{"glyphs":{"0":{"ha":928,"x_min":96,"x_max":832,"o":"m 464 -11 q 289 2 357 -11 q 181 47 221 15 q 124 135 142 79 q 101 274 106 190 q 96 478 96 358 q 101 681 96 597 q 124 821 106 765 q 181 908 142 876 q 289 953 221 940 q 464 967 357 967 q 638 953 569 967 q 746 908 707 940 q 803 821 785 876 q 827 681 822 765 q 832 478 832 597 q 827 274 832 358 q 803 135 822 190 q 746 47 785 79 q 638 2 707 15 q 464 -11 569 -11 m 464 122 q 565 126 525 122 q 626 147 604 131 q 659 202 649 164 q 672 307 669 240 q 675 478 675 374 q 672 649 675 582 q 659 753 669 715 q 626 808 649 792 q 565 829 604 825 q 464 833 525 833 q 363 829 403 833 q 301 808 324 825 q 268 753 279 792 q 254 649 257 715 q 251 478 251 582 q 254 307 251 374 q 267 202 257 240 q 301 147 278 164 q 363 126 324 131 q 464 122 403 122 z "},"1":{"ha":532,"x_min":43,"x_max":393,"o":"m 236 0 l 236 781 l 43 693 l 43 829 l 283 956 l 393 956 l 393 0 l 236 0 z "},"2":{"ha":849,"x_min":89,"x_max":757,"o":"m 89 0 l 89 118 q 94 253 89 199 q 114 346 99 308 q 163 410 129 383 q 254 460 196 436 l 488 557 q 560 594 536 576 q 592 636 583 611 q 600 701 600 661 q 581 789 600 761 q 515 825 563 817 q 381 833 467 833 q 302 831 349 833 q 205 824 256 828 q 108 815 154 819 l 108 939 q 206 953 150 947 q 320 963 261 958 q 431 967 379 967 q 557 959 499 967 q 660 926 615 951 q 731 851 706 901 q 757 714 757 800 q 738 578 757 629 q 682 497 719 528 q 585 442 644 465 l 318 332 q 267 301 283 318 q 246 257 250 285 q 242 185 242 229 l 242 135 l 757 135 l 757 0 l 89 0 z "},"3":{"ha":839,"x_min":79,"x_max":743,"o":"m 371 -11 q 272 -8 325 -11 q 167 2 218 -4 q 79 15 117 8 l 79 139 q 178 131 126 135 q 277 124 231 126 q 357 122 324 122 q 485 131 435 122 q 560 169 535 139 q 585 267 585 200 q 569 358 585 325 q 516 403 553 390 q 417 417 479 417 l 244 417 l 244 550 l 417 550 q 499 561 464 550 q 554 602 535 572 q 574 690 574 632 q 552 787 574 757 q 481 825 531 817 q 343 833 431 833 q 258 831 304 833 q 165 824 211 828 q 85 815 119 821 l 85 940 q 172 954 122 949 q 275 963 222 960 q 372 967 328 967 q 546 951 476 967 q 656 903 615 935 q 715 824 697 871 q 733 715 733 778 q 692 560 733 611 q 569 490 650 508 l 569 485 q 663 450 624 474 q 722 380 701 426 q 743 256 743 333 q 728 147 743 196 q 674 63 714 99 q 561 8 635 28 q 371 -11 488 -11 z "},"4":{"ha":896,"x_min":58,"x_max":839,"o":"m 547 0 l 547 213 l 58 213 l 58 331 l 424 956 l 596 956 l 231 346 l 547 346 l 585 644 l 704 644 l 704 346 l 839 346 l 839 213 l 704 213 l 704 0 l 547 0 z "},"5":{"ha":863,"x_min":107,"x_max":774,"o":"m 401 -11 q 303 -8 357 -11 q 199 1 250 -4 q 107 15 147 7 l 107 139 q 210 131 158 135 q 308 124 261 126 q 388 122 354 122 q 501 130 457 122 q 570 156 546 138 q 604 206 594 175 q 614 286 614 238 q 603 373 614 340 q 566 421 593 406 q 492 441 539 436 q 374 446 446 446 q 299 444 342 446 q 208 438 256 442 q 118 429 161 435 l 118 956 l 703 956 l 703 821 l 261 821 l 261 568 q 324 574 288 571 q 396 578 360 576 q 460 579 432 579 q 619 562 558 579 q 715 509 681 544 q 761 422 749 474 q 774 301 774 369 q 758 158 774 218 q 701 60 742 97 q 588 6 661 24 q 401 -11 515 -11 z "},"6":{"ha":918,"x_min":96,"x_max":835,"o":"m 479 -11 q 317 -3 385 -11 q 206 33 250 6 q 138 115 163 60 q 113 199 122 150 q 99 315 103 247 q 96 469 96 383 q 99 610 96 547 q 112 722 103 674 q 135 808 121 771 q 204 905 160 871 q 318 953 249 939 q 489 967 388 967 q 577 963 526 967 q 681 953 628 958 q 782 939 735 947 l 782 814 q 688 824 736 819 q 596 831 639 828 q 521 833 553 833 q 378 822 432 833 q 299 776 325 810 q 264 679 272 742 q 256 513 256 617 l 264 513 q 303 544 276 528 q 380 571 329 560 q 514 582 431 582 q 659 571 599 582 q 758 531 719 560 q 816 449 797 503 q 835 308 835 396 q 820 155 835 217 q 767 57 806 93 q 660 5 729 21 q 479 -11 590 -11 m 468 122 q 574 127 532 122 q 638 148 615 132 q 670 195 661 164 q 679 282 679 226 q 670 373 679 339 q 639 423 661 407 q 576 444 617 439 q 468 449 535 449 q 355 441 397 449 q 292 417 313 433 q 266 375 272 400 q 260 313 260 350 q 270 208 260 246 q 304 151 281 169 q 367 127 328 132 q 468 122 407 122 z "},"7":{"ha":786,"x_min":53,"x_max":725,"o":"m 176 0 l 554 821 l 53 821 l 53 956 l 725 956 l 725 833 l 350 0 l 176 0 z "},"8":{"ha":949,"x_min":94,"x_max":853,"o":"m 474 -11 q 281 7 356 -11 q 165 59 206 25 q 110 142 125 93 q 94 256 94 192 q 115 381 94 336 q 174 449 135 426 q 268 485 213 472 l 268 490 q 143 560 183 508 q 103 715 103 611 q 121 825 103 778 q 180 903 139 872 q 293 951 221 935 q 474 967 365 967 q 654 951 582 967 q 767 903 726 935 q 826 825 808 872 q 844 715 844 778 q 804 560 844 611 q 679 490 764 508 l 679 485 q 774 449 736 472 q 833 381 813 426 q 853 256 853 336 q 837 142 853 192 q 781 59 821 93 q 667 7 740 25 q 474 -11 593 -11 m 474 122 q 606 131 558 122 q 674 172 654 140 q 693 267 693 203 q 683 347 693 317 q 649 392 674 376 q 583 413 625 407 q 474 418 540 418 q 364 413 406 418 q 298 392 322 407 q 265 347 274 376 q 256 267 256 317 q 274 172 256 203 q 341 131 293 140 q 474 122 389 122 m 474 549 q 606 560 561 549 q 668 601 651 571 q 685 690 685 632 q 669 782 685 751 q 608 824 653 813 q 474 835 563 835 q 340 824 385 835 q 279 782 294 813 q 264 690 264 751 q 280 601 264 632 q 342 560 296 571 q 474 549 388 549 z "},"9":{"ha":918,"x_min":85,"x_max":822,"o":"m 429 -11 q 341 -7 392 -11 q 238 3 290 -3 q 138 17 185 8 l 138 142 q 231 132 183 136 q 324 125 279 128 q 397 122 368 122 q 540 134 488 122 q 620 180 593 146 q 656 276 647 214 q 664 443 664 339 l 656 443 q 615 412 642 428 q 538 385 589 396 q 404 374 488 374 q 259 385 319 374 q 160 424 199 396 q 103 506 121 453 q 85 647 85 560 q 99 801 85 739 q 151 899 113 863 q 258 951 189 935 q 439 967 328 967 q 611 957 542 967 q 724 917 681 947 q 790 819 768 886 q 815 685 808 767 q 822 486 822 603 q 818 334 822 401 q 803 216 814 267 q 774 126 793 165 q 704 43 749 74 q 592 1 660 13 q 429 -11 525 -11 m 450 507 q 565 515 522 507 q 627 539 607 522 q 653 581 647 556 q 660 643 660 606 q 649 748 660 710 q 615 805 639 786 q 551 828 592 824 q 450 833 511 833 q 345 828 386 833 q 281 808 304 824 q 248 760 257 792 q 239 674 239 729 q 248 583 239 617 q 279 533 257 549 q 343 512 301 517 q 450 507 385 507 z "},"A":{"ha":950,"x_min":31,"x_max":919,"o":"m 31 0 l 372 956 l 578 956 l 919 0 l 757 0 l 674 236 l 271 236 l 189 0 l 31 0 m 315 369 l 628 369 l 475 804 l 468 804 l 315 369 z "},"Á":{"ha":950,"x_min":31,"x_max":919,"o":"m 31 0 l 372 956 l 578 956 l 919 0 l 757 0 l 674 236 l 271 236 l 189 0 l 31 0 m 315 369 l 628 369 l 475 804 l 468 804 l 315 369 m 388 1064 l 388 1071 l 524 1263 l 676 1263 l 676 1256 l 496 1064 l 388 1064 z "},"Ă":{"ha":950,"x_min":31,"x_max":919,"o":"m 31 0 l 372 956 l 578 956 l 919 0 l 757 0 l 674 236 l 271 236 l 189 0 l 31 0 m 315 369 l 628 369 l 475 804 l 468 804 l 315 369 m 474 1051 q 365 1067 406 1051 q 306 1109 325 1082 q 282 1174 288 1136 q 276 1254 276 1211 l 365 1254 q 370 1193 365 1218 q 397 1154 375 1168 q 472 1140 419 1140 q 549 1154 526 1140 q 577 1193 572 1168 q 582 1254 582 1218 l 672 1254 q 667 1174 672 1211 q 642 1109 661 1136 q 582 1067 622 1082 q 474 1051 542 1051 z "},"Ắ":{"ha":950,"x_min":31,"x_max":919,"o":"m 31 0 l 372 956 l 578 956 l 919 0 l 757 0 l 674 236 l 271 236 l 189 0 l 31 0 m 315 369 l 628 369 l 475 804 l 468 804 l 315 369 m 474 1051 q 365 1067 406 1051 q 306 1109 325 1082 q 282 1174 288 1136 q 276 1254 276 1211 l 365 1254 q 370 1193 365 1218 q 397 1154 375 1168 q 472 1140 419 1140 q 549 1154 526 1140 q 577 1193 572 1168 q 582 1254 582 1218 l 672 1254 q 667 1174 672 1211 q 642 1109 661 1136 q 582 1067 622 1082 q 474 1051 542 1051 m 389 1301 l 389 1308 l 524 1499 l 678 1499 l 678 1492 l 497 1301 l 389 1301 z "},"Ặ":{"ha":950,"x_min":31,"x_max":919,"o":"m 31 0 l 372 956 l 578 956 l 919 0 l 757 0 l 674 236 l 271 236 l 189 0 l 31 0 m 315 369 l 628 369 l 475 804 l 468 804 l 315 369 m 414 -271 l 414 -151 l 536 -151 l 536 -271 l 414 -271 m 474 1051 q 365 1067 406 1051 q 306 1109 325 1082 q 282 1174 288 1136 q 276 1254 276 1211 l 365 1254 q 370 1193 365 1218 q 397 1154 375 1168 q 472 1140 419 1140 q 549 1154 526 1140 q 577 1193 572 1168 q 582 1254 582 1218 l 672 1254 q 667 1174 672 1211 q 642 1109 661 1136 q 582 1067 622 1082 q 474 1051 542 1051 z "},"Ằ":{"ha":950,"x_min":31,"x_max":919,"o":"m 31 0 l 372 956 l 578 956 l 919 0 l 757 0 l 674 236 l 271 236 l 189 0 l 31 0 m 315 369 l 628 369 l 475 804 l 468 804 l 315 369 m 474 1053 q 365 1068 406 1053 q 306 1110 325 1083 q 282 1174 288 1138 q 276 1256 276 1211 l 365 1256 q 370 1194 365 1219 q 397 1155 375 1168 q 472 1142 419 1142 q 549 1155 526 1142 q 577 1194 572 1168 q 582 1256 582 1219 l 672 1256 q 667 1174 672 1211 q 642 1110 661 1138 q 582 1068 622 1083 q 474 1053 542 1053 m 456 1301 l 275 1492 l 275 1499 l 428 1499 l 564 1308 l 564 1301 l 456 1301 z "},"Ẳ":{"ha":950,"x_min":31,"x_max":919,"o":"m 31 0 l 372 956 l 578 956 l 919 0 l 757 0 l 674 236 l 271 236 l 189 0 l 31 0 m 315 369 l 628 369 l 475 804 l 468 804 l 315 369 m 472 1053 q 365 1068 406 1053 q 306 1110 325 1083 q 282 1174 288 1138 q 276 1256 276 1211 l 365 1256 q 370 1194 365 1219 q 397 1155 375 1168 q 472 1142 419 1142 q 549 1155 526 1142 q 577 1194 572 1168 q 582 1256 582 1219 l 672 1256 q 667 1174 672 1211 q 642 1110 661 1138 q 582 1068 622 1083 q 472 1053 542 1053 m 404 1283 l 404 1296 q 410 1332 404 1317 q 429 1358 415 1347 q 468 1376 443 1369 l 497 1385 q 539 1399 525 1393 q 557 1414 553 1406 q 561 1438 561 1422 q 551 1472 561 1463 q 516 1483 540 1481 q 450 1485 492 1485 q 408 1484 433 1485 q 356 1482 383 1483 q 307 1478 329 1481 l 307 1551 q 389 1560 342 1557 q 474 1564 436 1564 q 576 1557 535 1564 q 639 1525 617 1550 q 661 1447 661 1500 q 653 1394 661 1414 q 624 1362 644 1374 q 571 1340 604 1350 l 540 1331 q 505 1319 517 1324 q 490 1306 493 1314 q 488 1283 488 1299 l 404 1283 z "},"Ẵ":{"ha":950,"x_min":31,"x_max":919,"o":"m 31 0 l 372 956 l 578 956 l 919 0 l 757 0 l 674 236 l 271 236 l 189 0 l 31 0 m 315 369 l 628 369 l 475 804 l 468 804 l 315 369 m 472 1051 q 365 1067 406 1051 q 306 1109 325 1082 q 282 1174 288 1136 q 276 1254 276 1211 l 365 1254 q 370 1193 365 1218 q 397 1154 375 1168 q 472 1140 419 1140 q 549 1154 526 1140 q 577 1193 572 1168 q 582 1254 582 1218 l 672 1254 q 667 1174 672 1211 q 642 1109 661 1136 q 582 1067 622 1082 q 472 1051 542 1051 m 232 1307 q 238 1402 232 1364 q 268 1460 244 1440 q 343 1479 292 1479 q 420 1469 382 1479 q 494 1449 458 1460 q 548 1432 522 1439 q 599 1425 574 1425 q 634 1440 629 1425 q 639 1494 639 1454 l 719 1494 q 713 1399 719 1438 q 684 1342 707 1361 q 610 1322 661 1322 q 532 1332 568 1322 q 458 1353 496 1342 q 403 1369 431 1361 q 354 1376 376 1376 q 319 1361 325 1376 q 314 1307 314 1346 l 232 1307 z "},"Ǎ":{"ha":950,"x_min":31,"x_max":919,"o":"m 31 0 l 372 956 l 578 956 l 919 0 l 757 0 l 674 236 l 271 236 l 189 0 l 31 0 m 315 369 l 628 369 l 475 804 l 468 804 l 315 369 m 400 1064 l 263 1253 l 263 1261 l 361 1261 l 474 1135 l 586 1261 l 686 1261 l 686 1253 l 549 1064 l 400 1064 z "},"Â":{"ha":950,"x_min":31,"x_max":919,"o":"m 31 0 l 372 956 l 578 956 l 919 0 l 757 0 l 674 236 l 271 236 l 189 0 l 31 0 m 315 369 l 628 369 l 475 804 l 468 804 l 315 369 m 263 1065 l 263 1074 l 400 1263 l 549 1263 l 686 1074 l 686 1065 l 586 1065 l 474 1190 l 361 1065 l 263 1065 z "},"Ấ":{"ha":950,"x_min":31,"x_max":919,"o":"m 31 0 l 372 956 l 578 956 l 919 0 l 757 0 l 674 236 l 271 236 l 189 0 l 31 0 m 315 369 l 628 369 l 475 804 l 468 804 l 315 369 m 263 1065 l 263 1074 l 400 1263 l 549 1263 l 686 1074 l 686 1065 l 586 1065 l 474 1190 l 361 1065 l 263 1065 m 388 1311 l 388 1318 l 524 1510 l 676 1510 l 676 1503 l 496 1311 l 388 1311 z "},"Ậ":{"ha":950,"x_min":31,"x_max":919,"o":"m 31 0 l 372 956 l 578 956 l 919 0 l 757 0 l 674 236 l 271 236 l 189 0 l 31 0 m 315 369 l 628 369 l 475 804 l 468 804 l 315 369 m 414 -271 l 414 -151 l 536 -151 l 536 -271 l 414 -271 m 263 1065 l 263 1074 l 400 1263 l 549 1263 l 686 1074 l 686 1065 l 586 1065 l 474 1190 l 361 1065 l 263 1065 z "},"Ầ":{"ha":950,"x_min":31,"x_max":919,"o":"m 31 0 l 372 956 l 578 956 l 919 0 l 757 0 l 674 236 l 271 236 l 189 0 l 31 0 m 315 369 l 628 369 l 475 804 l 468 804 l 315 369 m 263 1065 l 263 1074 l 400 1263 l 549 1263 l 686 1074 l 686 1065 l 586 1065 l 474 1190 l 361 1065 l 263 1065 m 442 1313 l 261 1503 l 261 1510 l 414 1510 l 550 1319 l 550 1313 l 442 1313 z "},"Ẩ":{"ha":950,"x_min":31,"x_max":919,"o":"m 31 0 l 372 956 l 578 956 l 919 0 l 757 0 l 674 236 l 271 236 l 189 0 l 31 0 m 315 369 l 628 369 l 475 804 l 468 804 l 315 369 m 263 1065 l 263 1074 l 400 1263 l 549 1263 l 686 1074 l 686 1065 l 586 1065 l 474 1190 l 361 1065 l 263 1065 m 404 1293 l 404 1306 q 410 1342 404 1326 q 428 1368 415 1357 q 467 1386 442 1379 l 496 1394 q 538 1409 524 1403 q 556 1424 551 1415 q 561 1447 561 1432 q 551 1481 561 1472 q 516 1493 540 1490 q 450 1496 492 1496 q 407 1495 432 1496 q 355 1493 382 1494 q 307 1489 328 1492 l 307 1561 q 389 1570 342 1567 q 474 1574 436 1574 q 574 1567 533 1574 q 638 1535 615 1560 q 660 1457 660 1510 q 651 1403 660 1424 q 624 1372 643 1383 q 569 1350 604 1360 l 540 1340 q 504 1328 515 1333 q 490 1316 493 1324 q 488 1293 488 1308 l 404 1293 z "},"Ẫ":{"ha":950,"x_min":31,"x_max":919,"o":"m 31 0 l 372 956 l 578 956 l 919 0 l 757 0 l 674 236 l 271 236 l 189 0 l 31 0 m 315 369 l 628 369 l 475 804 l 468 804 l 315 369 m 263 1065 l 263 1074 l 400 1263 l 549 1263 l 686 1074 l 686 1065 l 586 1065 l 474 1190 l 361 1065 l 263 1065 m 231 1317 q 237 1412 231 1374 q 267 1469 243 1450 q 343 1489 292 1489 q 419 1479 382 1489 q 493 1458 457 1469 q 547 1442 521 1450 q 599 1435 572 1435 q 633 1449 628 1435 q 639 1504 639 1464 l 719 1504 q 713 1409 719 1447 q 683 1351 707 1371 q 608 1332 660 1332 q 531 1342 567 1332 q 458 1363 494 1351 q 403 1378 429 1371 q 353 1386 376 1386 q 318 1372 324 1386 q 313 1317 313 1357 l 231 1317 z "},"Ȁ":{"ha":950,"x_min":31,"x_max":919,"o":"m 31 0 l 372 956 l 578 956 l 919 0 l 757 0 l 674 236 l 271 236 l 189 0 l 31 0 m 315 369 l 628 369 l 475 804 l 468 804 l 315 369 m 681 1064 l 588 1064 l 428 1232 l 428 1239 l 558 1239 l 681 1072 l 681 1064 m 419 1064 l 328 1064 l 167 1232 l 167 1239 l 299 1239 l 419 1072 l 419 1064 z "},"Ä":{"ha":950,"x_min":31,"x_max":919,"o":"m 31 0 l 372 956 l 578 956 l 919 0 l 757 0 l 674 236 l 271 236 l 189 0 l 31 0 m 315 369 l 628 369 l 475 804 l 468 804 l 315 369 m 267 1103 l 267 1229 l 399 1229 l 399 1103 l 267 1103 m 551 1103 l 551 1229 l 683 1229 l 683 1103 l 551 1103 z "},"Ạ":{"ha":950,"x_min":31,"x_max":919,"o":"m 31 0 l 372 956 l 578 956 l 919 0 l 757 0 l 674 236 l 271 236 l 189 0 l 31 0 m 315 369 l 628 369 l 475 804 l 468 804 l 315 369 m 414 -271 l 414 -151 l 536 -151 l 536 -271 l 414 -271 z "},"À":{"ha":950,"x_min":31,"x_max":919,"o":"m 31 0 l 372 956 l 578 956 l 919 0 l 757 0 l 674 236 l 271 236 l 189 0 l 31 0 m 315 369 l 628 369 l 475 804 l 468 804 l 315 369 m 442 1065 l 261 1254 l 261 1263 l 414 1263 l 550 1072 l 550 1065 l 442 1065 z "},"Ả":{"ha":950,"x_min":31,"x_max":919,"o":"m 31 0 l 372 956 l 578 956 l 919 0 l 757 0 l 674 236 l 271 236 l 189 0 l 31 0 m 315 369 l 628 369 l 475 804 l 468 804 l 315 369 m 404 1046 l 404 1058 q 410 1094 404 1079 q 429 1121 415 1110 q 467 1139 443 1132 l 496 1147 q 539 1162 525 1156 q 557 1176 553 1168 q 561 1200 561 1185 q 551 1234 561 1225 q 516 1246 540 1243 q 450 1249 492 1249 q 408 1248 433 1249 q 355 1246 382 1247 q 307 1242 328 1244 l 307 1314 q 389 1323 342 1319 q 474 1326 436 1326 q 575 1319 533 1326 q 638 1288 617 1313 q 660 1210 660 1263 q 651 1156 660 1176 q 624 1124 643 1136 q 571 1103 604 1113 l 540 1093 q 504 1081 515 1086 q 490 1069 493 1076 q 488 1046 488 1061 l 404 1046 z "},"Ȃ":{"ha":950,"x_min":31,"x_max":919,"o":"m 31 0 l 372 956 l 578 956 l 919 0 l 757 0 l 674 236 l 271 236 l 189 0 l 31 0 m 315 369 l 628 369 l 475 804 l 468 804 l 315 369 m 476 1272 q 585 1257 546 1272 q 643 1215 624 1242 q 667 1151 663 1188 q 672 1069 672 1114 l 583 1069 q 579 1131 583 1106 q 553 1170 575 1157 q 476 1183 531 1183 q 401 1170 424 1183 q 372 1131 378 1157 q 367 1069 367 1106 l 276 1069 q 282 1151 276 1114 q 307 1215 288 1188 q 367 1257 326 1242 q 476 1272 407 1272 z "},"Ā":{"ha":950,"x_min":31,"x_max":919,"o":"m 31 0 l 372 956 l 578 956 l 919 0 l 757 0 l 674 236 l 271 236 l 189 0 l 31 0 m 315 369 l 628 369 l 475 804 l 468 804 l 315 369 m 265 1103 l 265 1201 l 685 1201 l 685 1103 l 265 1103 z "},"Ą":{"ha":950,"x_min":31,"x_max":921,"o":"m 31 0 l 372 956 l 578 956 l 919 0 l 757 0 l 674 236 l 271 236 l 189 0 l 31 0 m 315 369 l 628 369 l 475 804 l 468 804 l 315 369 m 853 -278 q 763 -262 794 -278 q 718 -222 731 -247 q 706 -167 706 -197 q 735 -74 706 -122 q 810 14 764 -25 l 919 0 q 881 -35 901 -12 q 847 -85 861 -58 q 832 -135 832 -111 q 845 -172 832 -157 q 897 -187 858 -187 q 908 -187 901 -187 q 921 -185 914 -186 l 921 -274 q 888 -276 906 -275 q 853 -278 871 -278 z "},"Å":{"ha":949,"x_min":31,"x_max":919,"o":"m 31 0 l 372 956 l 578 956 l 919 0 l 757 0 l 674 236 l 271 236 l 189 0 l 31 0 m 315 369 l 628 369 l 475 804 l 468 804 l 315 369 m 504 896 q 399 905 438 896 q 344 933 361 914 q 323 981 328 951 q 318 1050 318 1010 q 323 1119 318 1090 q 344 1167 328 1149 q 399 1196 361 1186 q 504 1206 438 1206 q 610 1196 571 1206 q 666 1167 649 1186 q 688 1119 683 1149 q 693 1050 693 1090 q 688 981 693 1010 q 666 933 683 951 q 610 905 649 914 q 504 896 571 896 m 504 967 q 575 974 554 967 q 600 999 596 981 q 604 1050 604 1018 q 600 1101 604 1082 q 575 1126 596 1119 q 504 1133 554 1133 q 435 1126 456 1133 q 410 1101 414 1119 q 406 1050 406 1082 q 410 999 406 1018 q 435 974 414 981 q 504 967 456 967 z "},"Ǻ":{"ha":949,"x_min":31,"x_max":919,"o":"m 31 0 l 372 956 l 578 956 l 919 0 l 757 0 l 674 236 l 271 236 l 189 0 l 31 0 m 315 369 l 628 369 l 475 804 l 468 804 l 315 369 m 504 893 q 399 902 438 893 q 344 930 361 911 q 323 978 328 949 q 318 1047 318 1007 q 323 1117 318 1088 q 344 1165 328 1146 q 399 1193 361 1183 q 504 1203 438 1203 q 610 1193 571 1203 q 666 1165 649 1183 q 688 1117 683 1146 q 693 1047 693 1088 q 688 978 693 1007 q 666 930 683 949 q 610 902 649 911 q 504 893 571 893 m 504 964 q 575 971 554 964 q 600 997 596 978 q 604 1047 604 1015 q 600 1098 604 1079 q 575 1124 596 1117 q 504 1131 554 1131 q 435 1124 456 1131 q 410 1098 414 1117 q 406 1047 406 1079 q 410 997 406 1015 q 435 971 414 978 q 504 964 456 964 m 426 1232 l 426 1239 l 563 1431 l 715 1431 l 715 1424 l 535 1232 l 426 1232 z "},"Ã":{"ha":950,"x_min":31,"x_max":919,"o":"m 31 0 l 372 956 l 578 956 l 919 0 l 757 0 l 674 236 l 271 236 l 189 0 l 31 0 m 315 369 l 628 369 l 475 804 l 468 804 l 315 369 m 232 1069 q 238 1165 232 1126 q 269 1222 244 1203 q 343 1242 293 1242 q 420 1232 382 1242 q 494 1211 458 1222 q 548 1195 522 1203 q 599 1188 574 1188 q 634 1202 629 1188 q 639 1257 639 1217 l 719 1257 q 713 1162 719 1200 q 684 1104 707 1124 q 610 1085 661 1085 q 532 1094 568 1085 q 460 1115 496 1104 q 403 1131 431 1124 q 354 1139 376 1139 q 319 1124 325 1139 q 314 1069 314 1110 l 232 1069 z "},"Æ":{"ha":1332,"x_min":-15,"x_max":1254,"o":"m -15 0 l 436 956 l 1254 956 l 1254 822 l 674 822 l 742 549 l 1189 549 l 1189 415 l 772 415 l 842 133 l 1254 133 l 1254 0 l 711 0 l 656 236 l 253 236 l 142 0 l -15 0 m 313 369 l 625 369 l 522 804 l 515 804 l 313 369 z "},"Ǽ":{"ha":1332,"x_min":-15,"x_max":1254,"o":"m -15 0 l 436 956 l 1254 956 l 1254 822 l 674 822 l 742 549 l 1189 549 l 1189 415 l 772 415 l 842 133 l 1254 133 l 1254 0 l 711 0 l 656 236 l 253 236 l 142 0 l -15 0 m 313 369 l 625 369 l 522 804 l 515 804 l 313 369 m 578 1064 l 578 1071 l 714 1263 l 867 1263 l 867 1256 l 686 1064 l 578 1064 z "},"B":{"ha":943,"x_min":128,"x_max":853,"o":"m 128 0 l 128 956 l 582 956 q 733 927 676 956 q 817 845 790 899 q 843 715 843 792 q 826 606 843 651 q 772 531 808 560 q 679 490 736 503 l 679 485 q 784 442 746 472 q 838 364 822 411 q 853 253 853 317 q 840 152 853 199 q 798 72 828 106 q 715 19 768 39 q 581 0 663 0 l 128 0 m 285 132 l 533 132 q 632 145 597 132 q 681 190 667 158 q 696 274 696 221 q 681 359 696 328 q 630 403 665 390 q 533 417 594 417 l 285 417 l 285 132 m 285 550 l 528 550 q 619 564 585 550 q 669 608 653 578 q 686 685 686 638 q 672 767 686 738 q 625 810 658 797 q 528 822 592 822 l 285 822 l 285 550 z "},"C":{"ha":796,"x_min":96,"x_max":724,"o":"m 488 -11 q 315 2 385 -11 q 202 47 246 15 q 135 134 158 79 q 104 274 113 189 q 96 478 96 358 q 104 682 96 597 q 135 822 113 767 q 202 908 158 876 q 315 953 246 940 q 488 967 385 967 q 570 964 528 967 q 651 956 613 961 q 718 944 690 951 l 718 819 q 649 827 683 824 q 583 832 615 831 q 528 833 551 833 q 401 828 451 833 q 322 803 351 822 q 277 745 292 783 q 258 642 263 707 q 253 478 253 576 q 258 315 253 381 q 277 210 263 249 q 322 153 292 172 q 401 128 351 133 q 528 122 451 122 q 628 126 574 122 q 724 136 683 131 l 724 8 q 652 -1 693 3 q 569 -8 611 -6 q 488 -11 526 -11 z "},"Ć":{"ha":796,"x_min":96,"x_max":724,"o":"m 488 -11 q 315 2 385 -11 q 202 47 246 15 q 135 134 158 79 q 104 274 113 189 q 96 478 96 358 q 104 682 96 597 q 135 822 113 767 q 202 908 158 876 q 315 953 246 940 q 488 967 385 967 q 570 964 528 967 q 651 956 613 961 q 718 944 690 951 l 718 819 q 649 827 683 824 q 583 832 615 831 q 528 833 551 833 q 401 828 451 833 q 322 803 351 822 q 277 745 292 783 q 258 642 263 707 q 253 478 253 576 q 258 315 253 381 q 277 210 263 249 q 322 153 292 172 q 401 128 351 133 q 528 122 451 122 q 628 126 574 122 q 724 136 683 131 l 724 8 q 652 -1 693 3 q 569 -8 611 -6 q 488 -11 526 -11 m 376 1064 l 376 1071 l 513 1263 l 665 1263 l 665 1256 l 485 1064 l 376 1064 z "},"Č":{"ha":796,"x_min":96,"x_max":724,"o":"m 488 -11 q 315 2 385 -11 q 202 47 246 15 q 135 134 158 79 q 104 274 113 189 q 96 478 96 358 q 104 682 96 597 q 135 822 113 767 q 202 908 158 876 q 315 953 246 940 q 488 967 385 967 q 570 964 528 967 q 651 956 613 961 q 718 944 690 951 l 718 819 q 649 827 683 824 q 583 832 615 831 q 528 833 551 833 q 401 828 451 833 q 322 803 351 822 q 277 745 292 783 q 258 642 263 707 q 253 478 253 576 q 258 315 253 381 q 277 210 263 249 q 322 153 292 172 q 401 128 351 133 q 528 122 451 122 q 628 126 574 122 q 724 136 683 131 l 724 8 q 652 -1 693 3 q 569 -8 611 -6 q 488 -11 526 -11 m 389 1064 l 251 1253 l 251 1261 l 350 1261 l 463 1135 l 575 1261 l 675 1261 l 675 1253 l 538 1064 l 389 1064 z "},"Ç":{"ha":796,"x_min":96,"x_max":724,"o":"m 488 -11 q 315 2 385 -11 q 202 47 246 15 q 135 134 158 79 q 104 274 113 189 q 96 478 96 358 q 104 682 96 597 q 135 822 113 767 q 202 908 158 876 q 315 953 246 940 q 488 967 385 967 q 570 964 528 967 q 651 956 613 961 q 718 944 690 951 l 718 819 q 649 827 683 824 q 583 832 615 831 q 528 833 551 833 q 401 828 451 833 q 322 803 351 822 q 277 745 292 783 q 258 642 263 707 q 253 478 253 576 q 258 315 253 381 q 277 210 263 249 q 322 153 292 172 q 401 128 351 133 q 528 122 451 122 q 628 126 574 122 q 724 136 683 131 l 724 8 q 652 -1 693 3 q 569 -8 611 -6 q 488 -11 526 -11 m 322 -264 l 322 -257 l 424 25 l 522 25 l 522 18 l 465 -264 l 322 -264 z "},"Ĉ":{"ha":796,"x_min":96,"x_max":724,"o":"m 488 -11 q 315 2 385 -11 q 202 47 246 15 q 135 134 158 79 q 104 274 113 189 q 96 478 96 358 q 104 682 96 597 q 135 822 113 767 q 202 908 158 876 q 315 953 246 940 q 488 967 385 967 q 570 964 528 967 q 651 956 613 961 q 718 944 690 951 l 718 819 q 649 827 683 824 q 583 832 615 831 q 528 833 551 833 q 401 828 451 833 q 322 803 351 822 q 277 745 292 783 q 258 642 263 707 q 253 478 253 576 q 258 315 253 381 q 277 210 263 249 q 322 153 292 172 q 401 128 351 133 q 528 122 451 122 q 628 126 574 122 q 724 136 683 131 l 724 8 q 652 -1 693 3 q 569 -8 611 -6 q 488 -11 526 -11 m 251 1065 l 251 1074 l 389 1263 l 538 1263 l 675 1074 l 675 1065 l 575 1065 l 463 1190 l 350 1065 l 251 1065 z "},"Ċ":{"ha":796,"x_min":96,"x_max":724,"o":"m 488 -11 q 315 2 385 -11 q 202 47 246 15 q 135 134 158 79 q 104 274 113 189 q 96 478 96 358 q 104 682 96 597 q 135 822 113 767 q 202 908 158 876 q 315 953 246 940 q 488 967 385 967 q 570 964 528 967 q 651 956 613 961 q 718 944 690 951 l 718 819 q 649 827 683 824 q 583 832 615 831 q 528 833 551 833 q 401 828 451 833 q 322 803 351 822 q 277 745 292 783 q 258 642 263 707 q 253 478 253 576 q 258 315 253 381 q 277 210 263 249 q 322 153 292 172 q 401 128 351 133 q 528 122 451 122 q 628 126 574 122 q 724 136 683 131 l 724 8 q 652 -1 693 3 q 569 -8 611 -6 q 488 -11 526 -11 m 396 1103 l 396 1229 l 528 1229 l 528 1103 l 396 1103 z "},"D":{"ha":953,"x_min":128,"x_max":856,"o":"m 128 0 l 128 956 l 440 956 q 638 944 561 956 q 760 901 715 932 q 824 817 804 871 q 850 679 844 763 q 856 478 856 596 q 850 276 856 360 q 824 139 844 193 q 760 54 804 85 q 638 12 715 24 q 440 0 561 0 l 128 0 m 285 133 l 426 133 q 555 137 504 133 q 635 156 606 140 q 678 208 664 172 q 695 310 692 244 q 699 478 699 376 q 695 644 699 579 q 677 747 692 710 q 633 799 663 783 q 553 819 603 815 q 426 822 503 822 l 285 822 l 285 133 z "},"Ǳ":{"ha":1799,"x_min":128,"x_max":1732,"o":"m 128 0 l 128 956 l 440 956 q 638 944 561 956 q 760 901 715 932 q 824 817 804 871 q 850 679 844 763 q 856 478 856 596 q 850 276 856 360 q 824 139 844 193 q 760 54 804 85 q 638 12 715 24 q 440 0 561 0 l 128 0 m 285 133 l 426 133 q 555 137 504 133 q 635 156 606 140 q 678 208 664 172 q 695 310 692 244 q 699 478 699 376 q 695 644 699 579 q 677 747 692 710 q 633 799 663 783 q 553 819 603 815 q 426 822 503 822 l 285 822 l 285 133 m 1022 0 l 1022 126 l 1526 822 l 1038 822 l 1038 956 l 1725 956 l 1725 832 l 1218 132 l 1732 132 l 1732 0 l 1022 0 z "},"Ǆ":{"ha":1799,"x_min":128,"x_max":1732,"o":"m 128 0 l 128 956 l 440 956 q 638 944 561 956 q 760 901 715 932 q 824 817 804 871 q 850 679 844 763 q 856 478 856 596 q 850 276 856 360 q 824 139 844 193 q 760 54 804 85 q 638 12 715 24 q 440 0 561 0 l 128 0 m 285 133 l 426 133 q 555 137 504 133 q 635 156 606 140 q 678 208 664 172 q 695 310 692 244 q 699 478 699 376 q 695 644 699 579 q 677 747 692 710 q 633 799 663 783 q 553 819 603 815 q 426 822 503 822 l 285 822 l 285 133 m 1022 0 l 1022 126 l 1526 822 l 1038 822 l 1038 956 l 1725 956 l 1725 832 l 1218 132 l 1732 132 l 1732 0 l 1022 0 m 1301 1064 l 1164 1253 l 1164 1261 l 1263 1261 l 1375 1135 l 1488 1261 l 1588 1261 l 1588 1253 l 1450 1064 l 1301 1064 z "},"Ð":{"ha":953,"x_min":33,"x_max":856,"o":"m 128 0 l 128 422 l 33 422 l 33 544 l 128 544 l 128 956 l 440 956 q 638 944 561 956 q 760 901 715 932 q 824 817 804 871 q 850 679 844 763 q 856 478 856 596 q 850 276 856 360 q 824 139 844 193 q 760 54 804 85 q 638 12 715 24 q 440 0 561 0 l 128 0 m 285 133 l 426 133 q 555 137 504 133 q 635 156 606 140 q 678 208 664 172 q 695 310 692 244 q 699 478 699 376 q 695 644 699 579 q 677 747 692 710 q 633 799 663 783 q 553 819 604 815 q 426 822 503 822 l 285 822 l 285 544 l 422 544 l 422 422 l 285 422 l 285 133 z "},"Ď":{"ha":953,"x_min":128,"x_max":856,"o":"m 128 0 l 128 956 l 440 956 q 638 944 561 956 q 760 901 715 932 q 824 817 804 871 q 850 679 844 763 q 856 478 856 596 q 850 276 856 360 q 824 139 844 193 q 760 54 804 85 q 638 12 715 24 q 440 0 561 0 l 128 0 m 285 133 l 426 133 q 555 137 504 133 q 635 156 606 140 q 678 208 664 172 q 695 310 692 244 q 699 478 699 376 q 695 644 699 579 q 677 747 692 710 q 633 799 663 783 q 553 819 603 815 q 426 822 503 822 l 285 822 l 285 133 m 403 1064 l 265 1253 l 265 1261 l 364 1261 l 476 1135 l 589 1261 l 689 1261 l 689 1253 l 551 1064 l 403 1064 z "},"Đ":{"ha":953,"x_min":33,"x_max":856,"o":"m 128 0 l 128 422 l 33 422 l 33 544 l 128 544 l 128 956 l 440 956 q 638 944 561 956 q 760 901 715 932 q 824 817 804 871 q 850 679 844 763 q 856 478 856 596 q 850 276 856 360 q 824 139 844 193 q 760 54 804 85 q 638 12 715 24 q 440 0 561 0 l 128 0 m 285 133 l 426 133 q 555 137 504 133 q 635 156 606 140 q 678 208 664 172 q 695 310 692 244 q 699 478 699 376 q 695 644 699 579 q 677 747 692 710 q 633 799 663 783 q 553 819 604 815 q 426 822 503 822 l 285 822 l 285 544 l 422 544 l 422 422 l 285 422 l 285 133 z "},"Ḍ":{"ha":953,"x_min":128,"x_max":856,"o":"m 128 0 l 128 956 l 440 956 q 638 944 561 956 q 760 901 715 932 q 824 817 804 871 q 850 679 844 763 q 856 478 856 596 q 850 276 856 360 q 824 139 844 193 q 760 54 804 85 q 638 12 715 24 q 440 0 561 0 l 128 0 m 285 133 l 426 133 q 555 137 504 133 q 635 156 606 140 q 678 208 664 172 q 695 310 692 244 q 699 478 699 376 q 695 644 699 579 q 677 747 692 710 q 633 799 663 783 q 553 819 603 815 q 426 822 503 822 l 285 822 l 285 133 m 417 -271 l 417 -151 l 539 -151 l 539 -271 l 417 -271 z "},"ǲ":{"ha":1668,"x_min":128,"x_max":1597,"o":"m 128 0 l 128 956 l 440 956 q 638 944 561 956 q 760 901 715 932 q 824 817 804 871 q 850 679 844 763 q 856 478 856 596 q 850 276 856 360 q 824 139 844 193 q 760 54 804 85 q 638 12 715 24 q 440 0 561 0 l 128 0 m 285 133 l 426 133 q 555 137 504 133 q 635 156 606 140 q 678 208 664 172 q 695 310 692 244 q 699 478 699 376 q 695 644 699 579 q 677 747 692 710 q 633 799 663 783 q 553 819 603 815 q 426 822 503 822 l 285 822 l 285 133 m 1024 0 l 1024 114 l 1404 585 l 1040 585 l 1040 708 l 1594 708 l 1594 594 l 1214 124 l 1597 124 l 1597 0 l 1024 0 z "},"ǅ":{"ha":1668,"x_min":128,"x_max":1597,"o":"m 128 0 l 128 956 l 440 956 q 638 944 561 956 q 760 901 715 932 q 824 817 804 871 q 850 679 844 763 q 856 478 856 596 q 850 276 856 360 q 824 139 844 193 q 760 54 804 85 q 638 12 715 24 q 440 0 561 0 l 128 0 m 285 133 l 426 133 q 555 137 504 133 q 635 156 606 140 q 678 208 664 172 q 695 310 692 244 q 699 478 699 376 q 695 644 699 579 q 677 747 692 710 q 633 799 663 783 q 553 819 603 815 q 426 822 503 822 l 285 822 l 285 133 m 1024 0 l 1024 114 l 1404 585 l 1040 585 l 1040 708 l 1594 708 l 1594 594 l 1214 124 l 1597 124 l 1597 0 l 1024 0 m 1246 817 l 1108 1006 l 1108 1014 l 1207 1014 l 1319 888 l 1432 1014 l 1532 1014 l 1532 1006 l 1394 817 l 1246 817 z "},"E":{"ha":842,"x_min":128,"x_max":764,"o":"m 128 0 l 128 956 l 764 956 l 764 822 l 285 822 l 285 549 l 699 549 l 699 415 l 285 415 l 285 133 l 764 133 l 764 0 l 128 0 z "},"É":{"ha":842,"x_min":128,"x_max":764,"o":"m 128 0 l 128 956 l 764 956 l 764 822 l 285 822 l 285 549 l 699 549 l 699 415 l 285 415 l 285 133 l 764 133 l 764 0 l 128 0 m 368 1064 l 368 1071 l 504 1263 l 657 1263 l 657 1256 l 476 1064 l 368 1064 z "},"Ĕ":{"ha":842,"x_min":128,"x_max":764,"o":"m 128 0 l 128 956 l 764 956 l 764 822 l 285 822 l 285 549 l 699 549 l 699 415 l 285 415 l 285 133 l 764 133 l 764 0 l 128 0 m 454 1051 q 346 1067 386 1051 q 287 1109 306 1082 q 263 1174 268 1136 q 257 1254 257 1211 l 346 1254 q 351 1193 346 1218 q 378 1154 356 1168 q 453 1140 400 1140 q 530 1154 507 1140 q 558 1193 553 1168 q 563 1254 563 1218 l 653 1254 q 647 1174 653 1211 q 622 1109 642 1136 q 563 1067 603 1082 q 454 1051 522 1051 z "},"Ě":{"ha":842,"x_min":128,"x_max":764,"o":"m 128 0 l 128 956 l 764 956 l 764 822 l 285 822 l 285 549 l 699 549 l 699 415 l 285 415 l 285 133 l 764 133 l 764 0 l 128 0 m 381 1064 l 243 1253 l 243 1261 l 342 1261 l 454 1135 l 567 1261 l 667 1261 l 667 1253 l 529 1064 l 381 1064 z "},"Ê":{"ha":842,"x_min":128,"x_max":764,"o":"m 128 0 l 128 956 l 764 956 l 764 822 l 285 822 l 285 549 l 699 549 l 699 415 l 285 415 l 285 133 l 764 133 l 764 0 l 128 0 m 243 1065 l 243 1074 l 381 1263 l 529 1263 l 667 1074 l 667 1065 l 567 1065 l 454 1190 l 342 1065 l 243 1065 z "},"Ế":{"ha":842,"x_min":128,"x_max":764,"o":"m 128 0 l 128 956 l 764 956 l 764 822 l 285 822 l 285 549 l 699 549 l 699 415 l 285 415 l 285 133 l 764 133 l 764 0 l 128 0 m 243 1065 l 243 1074 l 381 1263 l 529 1263 l 667 1074 l 667 1065 l 567 1065 l 454 1190 l 342 1065 l 243 1065 m 368 1311 l 368 1318 l 504 1510 l 657 1510 l 657 1503 l 476 1311 l 368 1311 z "},"Ệ":{"ha":842,"x_min":128,"x_max":764,"o":"m 128 0 l 128 956 l 764 956 l 764 822 l 285 822 l 285 549 l 699 549 l 699 415 l 285 415 l 285 133 l 764 133 l 764 0 l 128 0 m 394 -271 l 394 -151 l 517 -151 l 517 -271 l 394 -271 m 243 1065 l 243 1074 l 381 1263 l 529 1263 l 667 1074 l 667 1065 l 567 1065 l 454 1190 l 342 1065 l 243 1065 z "},"Ề":{"ha":842,"x_min":128,"x_max":764,"o":"m 128 0 l 128 956 l 764 956 l 764 822 l 285 822 l 285 549 l 699 549 l 699 415 l 285 415 l 285 133 l 764 133 l 764 0 l 128 0 m 243 1065 l 243 1074 l 381 1263 l 529 1263 l 667 1074 l 667 1065 l 567 1065 l 454 1190 l 342 1065 l 243 1065 m 422 1313 l 242 1503 l 242 1510 l 394 1510 l 531 1319 l 531 1313 l 422 1313 z "},"Ể":{"ha":842,"x_min":128,"x_max":764,"o":"m 128 0 l 128 956 l 764 956 l 764 822 l 285 822 l 285 549 l 699 549 l 699 415 l 285 415 l 285 133 l 764 133 l 764 0 l 128 0 m 243 1065 l 243 1074 l 381 1263 l 529 1263 l 667 1074 l 667 1065 l 567 1065 l 454 1190 l 342 1065 l 243 1065 m 385 1293 l 385 1306 q 390 1342 385 1326 q 409 1368 396 1357 q 447 1386 422 1379 l 476 1394 q 518 1409 504 1403 q 537 1424 532 1415 q 542 1447 542 1432 q 531 1481 542 1472 q 497 1493 521 1490 q 431 1496 472 1496 q 388 1495 413 1496 q 335 1493 363 1494 q 288 1489 308 1492 l 288 1561 q 369 1570 322 1567 q 454 1574 417 1574 q 555 1567 514 1574 q 618 1535 596 1560 q 640 1457 640 1510 q 632 1403 640 1424 q 604 1372 624 1383 q 550 1350 585 1360 l 521 1340 q 485 1328 496 1333 q 471 1316 474 1324 q 468 1293 468 1308 l 385 1293 z "},"Ễ":{"ha":842,"x_min":128,"x_max":764,"o":"m 128 0 l 128 956 l 764 956 l 764 822 l 285 822 l 285 549 l 699 549 l 699 415 l 285 415 l 285 133 l 764 133 l 764 0 l 128 0 m 243 1065 l 243 1074 l 381 1263 l 529 1263 l 667 1074 l 667 1065 l 567 1065 l 454 1190 l 342 1065 l 243 1065 m 211 1317 q 217 1412 211 1374 q 248 1469 224 1450 q 324 1489 272 1489 q 400 1479 363 1489 q 474 1458 438 1469 q 527 1442 501 1450 q 579 1435 553 1435 q 614 1449 608 1435 q 619 1504 619 1464 l 700 1504 q 694 1409 700 1447 q 664 1351 688 1371 q 589 1332 640 1332 q 511 1342 547 1332 q 439 1363 475 1351 q 383 1378 410 1371 q 333 1386 357 1386 q 299 1372 304 1386 q 293 1317 293 1357 l 211 1317 z "},"Ȅ":{"ha":842,"x_min":128,"x_max":764,"o":"m 128 0 l 128 956 l 764 956 l 764 822 l 285 822 l 285 549 l 699 549 l 699 415 l 285 415 l 285 133 l 764 133 l 764 0 l 128 0 m 661 1064 l 568 1064 l 408 1232 l 408 1239 l 539 1239 l 661 1072 l 661 1064 m 400 1064 l 308 1064 l 147 1232 l 147 1239 l 279 1239 l 400 1072 l 400 1064 z "},"Ë":{"ha":842,"x_min":128,"x_max":764,"o":"m 128 0 l 128 956 l 764 956 l 764 822 l 285 822 l 285 549 l 699 549 l 699 415 l 285 415 l 285 133 l 764 133 l 764 0 l 128 0 m 247 1103 l 247 1229 l 379 1229 l 379 1103 l 247 1103 m 532 1103 l 532 1229 l 664 1229 l 664 1103 l 532 1103 z "},"Ė":{"ha":842,"x_min":128,"x_max":764,"o":"m 128 0 l 128 956 l 764 956 l 764 822 l 285 822 l 285 549 l 699 549 l 699 415 l 285 415 l 285 133 l 764 133 l 764 0 l 128 0 m 389 1103 l 389 1229 l 521 1229 l 521 1103 l 389 1103 z "},"Ẹ":{"ha":842,"x_min":128,"x_max":764,"o":"m 128 0 l 128 956 l 764 956 l 764 822 l 285 822 l 285 549 l 699 549 l 699 415 l 285 415 l 285 133 l 764 133 l 764 0 l 128 0 m 394 -271 l 394 -151 l 517 -151 l 517 -271 l 394 -271 z "},"È":{"ha":842,"x_min":128,"x_max":764,"o":"m 128 0 l 128 956 l 764 956 l 764 822 l 285 822 l 285 549 l 699 549 l 699 415 l 285 415 l 285 133 l 764 133 l 764 0 l 128 0 m 422 1065 l 242 1254 l 242 1263 l 394 1263 l 531 1072 l 531 1065 l 422 1065 z "},"Ẻ":{"ha":842,"x_min":128,"x_max":764,"o":"m 128 0 l 128 956 l 764 956 l 764 822 l 285 822 l 285 549 l 699 549 l 699 415 l 285 415 l 285 133 l 764 133 l 764 0 l 128 0 m 385 1046 l 385 1058 q 390 1094 385 1079 q 410 1121 396 1110 q 447 1139 424 1132 l 476 1147 q 519 1162 506 1156 q 538 1176 533 1168 q 542 1200 542 1185 q 531 1234 542 1225 q 497 1246 521 1243 q 431 1249 472 1249 q 388 1248 414 1249 q 335 1246 363 1247 q 288 1242 308 1244 l 288 1314 q 369 1323 322 1319 q 454 1326 417 1326 q 556 1319 514 1326 q 619 1288 597 1313 q 640 1210 640 1263 q 632 1156 640 1176 q 604 1124 624 1136 q 551 1103 585 1113 l 521 1093 q 485 1081 496 1086 q 471 1069 474 1076 q 468 1046 468 1061 l 385 1046 z "},"Ȇ":{"ha":842,"x_min":128,"x_max":764,"o":"m 128 0 l 128 956 l 764 956 l 764 822 l 285 822 l 285 549 l 699 549 l 699 415 l 285 415 l 285 133 l 764 133 l 764 0 l 128 0 m 457 1272 q 565 1257 526 1272 q 624 1215 604 1242 q 648 1151 643 1188 q 653 1069 653 1114 l 564 1069 q 560 1131 564 1106 q 533 1170 556 1157 q 457 1183 511 1183 q 381 1170 404 1183 q 353 1131 358 1157 q 347 1069 347 1106 l 257 1069 q 263 1151 257 1114 q 288 1215 268 1188 q 347 1257 307 1242 q 457 1272 388 1272 z "},"Ē":{"ha":842,"x_min":128,"x_max":764,"o":"m 128 0 l 128 956 l 764 956 l 764 822 l 285 822 l 285 549 l 699 549 l 699 415 l 285 415 l 285 133 l 764 133 l 764 0 l 128 0 m 246 1103 l 246 1201 l 665 1201 l 665 1103 l 246 1103 z "},"Ę":{"ha":842,"x_min":128,"x_max":765,"o":"m 128 0 l 128 956 l 764 956 l 764 822 l 285 822 l 285 549 l 699 549 l 699 415 l 285 415 l 285 133 l 764 133 l 764 0 l 128 0 m 697 -278 q 607 -262 639 -278 q 563 -222 575 -247 q 550 -167 550 -197 q 579 -74 550 -122 q 654 14 608 -25 l 764 0 q 726 -35 746 -12 q 691 -85 706 -58 q 676 -135 676 -111 q 690 -172 676 -157 q 742 -187 703 -187 q 752 -187 746 -187 q 765 -185 758 -186 l 765 -274 q 733 -276 750 -275 q 697 -278 715 -278 z "},"Ẽ":{"ha":842,"x_min":128,"x_max":764,"o":"m 128 0 l 128 956 l 764 956 l 764 822 l 285 822 l 285 549 l 699 549 l 699 415 l 285 415 l 285 133 l 764 133 l 764 0 l 128 0 m 213 1069 q 219 1165 213 1126 q 249 1222 225 1203 q 324 1242 274 1242 q 401 1232 363 1242 q 475 1211 439 1222 q 528 1195 503 1203 q 579 1188 554 1188 q 615 1202 610 1188 q 619 1257 619 1217 l 700 1257 q 694 1162 700 1200 q 665 1104 688 1124 q 590 1085 642 1085 q 513 1094 549 1085 q 440 1115 476 1104 q 384 1131 411 1124 q 335 1139 357 1139 q 300 1124 306 1139 q 294 1069 294 1110 l 213 1069 z "},"F":{"ha":789,"x_min":128,"x_max":736,"o":"m 128 0 l 128 956 l 736 956 l 736 822 l 285 822 l 285 526 l 685 526 l 685 393 l 285 393 l 285 0 l 128 0 z "},"G":{"ha":933,"x_min":96,"x_max":821,"o":"m 508 -11 q 334 2 406 -11 q 215 47 263 15 q 142 135 168 79 q 106 274 117 190 q 96 478 96 358 q 106 681 96 597 q 143 821 117 765 q 217 908 169 876 q 335 953 264 940 q 508 967 407 967 q 609 963 554 967 q 718 952 664 958 q 817 938 772 946 l 817 813 q 724 824 769 819 q 640 831 678 828 q 576 833 601 833 q 436 830 493 833 q 343 810 379 826 q 288 755 307 793 q 260 650 268 717 q 253 478 253 583 q 258 322 253 385 q 278 217 263 258 q 323 156 294 176 q 398 126 351 135 q 513 118 444 118 q 569 119 539 118 q 625 123 599 121 q 669 128 651 125 l 669 399 l 482 399 l 482 529 l 821 529 l 821 18 q 717 3 774 10 q 607 -7 661 -3 q 508 -11 553 -11 z "},"Ǵ":{"ha":933,"x_min":96,"x_max":821,"o":"m 508 -11 q 334 2 406 -11 q 215 47 263 15 q 142 135 168 79 q 106 274 117 190 q 96 478 96 358 q 106 681 96 597 q 143 821 117 765 q 217 908 169 876 q 335 953 264 940 q 508 967 407 967 q 609 963 554 967 q 718 952 664 958 q 817 938 772 946 l 817 813 q 724 824 769 819 q 640 831 678 828 q 576 833 601 833 q 436 830 493 833 q 343 810 379 826 q 288 755 307 793 q 260 650 268 717 q 253 478 253 583 q 258 322 253 385 q 278 217 263 258 q 323 156 294 176 q 398 126 351 135 q 513 118 444 118 q 569 119 539 118 q 625 123 599 121 q 669 128 651 125 l 669 399 l 482 399 l 482 529 l 821 529 l 821 18 q 717 3 774 10 q 607 -7 661 -3 q 508 -11 553 -11 m 408 1064 l 408 1071 l 544 1263 l 697 1263 l 697 1256 l 517 1064 l 408 1064 z "},"Ğ":{"ha":933,"x_min":96,"x_max":821,"o":"m 508 -11 q 334 2 406 -11 q 215 47 263 15 q 142 135 168 79 q 106 274 117 190 q 96 478 96 358 q 106 681 96 597 q 143 821 117 765 q 217 908 169 876 q 335 953 264 940 q 508 967 407 967 q 609 963 554 967 q 718 952 664 958 q 817 938 772 946 l 817 813 q 724 824 769 819 q 640 831 678 828 q 576 833 601 833 q 436 830 493 833 q 343 810 379 826 q 288 755 307 793 q 260 650 268 717 q 253 478 253 583 q 258 322 253 385 q 278 217 263 258 q 323 156 294 176 q 398 126 351 135 q 513 118 444 118 q 569 119 539 118 q 625 123 599 121 q 669 128 651 125 l 669 399 l 482 399 l 482 529 l 821 529 l 821 18 q 717 3 774 10 q 607 -7 661 -3 q 508 -11 553 -11 m 493 1051 q 385 1067 425 1051 q 326 1109 344 1082 q 301 1174 307 1136 q 296 1254 296 1211 l 385 1254 q 390 1193 385 1218 q 417 1154 394 1168 q 492 1140 439 1140 q 569 1154 546 1140 q 597 1193 592 1168 q 601 1254 601 1218 l 692 1254 q 686 1174 692 1211 q 661 1109 681 1136 q 601 1067 642 1082 q 493 1051 561 1051 z "},"Ǧ":{"ha":933,"x_min":96,"x_max":821,"o":"m 508 -11 q 334 2 406 -11 q 215 47 263 15 q 142 135 168 79 q 106 274 117 190 q 96 478 96 358 q 106 681 96 597 q 143 821 117 765 q 217 908 169 876 q 335 953 264 940 q 508 967 407 967 q 609 963 554 967 q 718 952 664 958 q 817 938 772 946 l 817 813 q 724 824 769 819 q 640 831 678 828 q 576 833 601 833 q 436 830 493 833 q 343 810 379 826 q 288 755 307 793 q 260 650 268 717 q 253 478 253 583 q 258 322 253 385 q 278 217 263 258 q 323 156 294 176 q 398 126 351 135 q 513 118 444 118 q 569 119 539 118 q 625 123 599 121 q 669 128 651 125 l 669 399 l 482 399 l 482 529 l 821 529 l 821 18 q 717 3 774 10 q 607 -7 661 -3 q 508 -11 553 -11 m 421 1064 l 283 1253 l 283 1261 l 382 1261 l 494 1135 l 607 1261 l 707 1261 l 707 1253 l 569 1064 l 421 1064 z "},"Ĝ":{"ha":933,"x_min":96,"x_max":821,"o":"m 508 -11 q 334 2 406 -11 q 215 47 263 15 q 142 135 168 79 q 106 274 117 190 q 96 478 96 358 q 106 681 96 597 q 143 821 117 765 q 217 908 169 876 q 335 953 264 940 q 508 967 407 967 q 609 963 554 967 q 718 952 664 958 q 817 938 772 946 l 817 813 q 724 824 769 819 q 640 831 678 828 q 576 833 601 833 q 436 830 493 833 q 343 810 379 826 q 288 755 307 793 q 260 650 268 717 q 253 478 253 583 q 258 322 253 385 q 278 217 263 258 q 323 156 294 176 q 398 126 351 135 q 513 118 444 118 q 569 119 539 118 q 625 123 599 121 q 669 128 651 125 l 669 399 l 482 399 l 482 529 l 821 529 l 821 18 q 717 3 774 10 q 607 -7 661 -3 q 508 -11 553 -11 m 283 1065 l 283 1074 l 421 1263 l 569 1263 l 707 1074 l 707 1065 l 607 1065 l 494 1190 l 382 1065 l 283 1065 z "},"Ģ":{"ha":933,"x_min":96,"x_max":821,"o":"m 508 -11 q 334 2 406 -11 q 215 47 263 15 q 142 135 168 79 q 106 274 117 190 q 96 478 96 358 q 106 681 96 597 q 143 821 117 765 q 217 908 169 876 q 335 953 264 940 q 508 967 407 967 q 609 963 554 967 q 718 952 664 958 q 817 938 772 946 l 817 813 q 724 824 769 819 q 640 831 678 828 q 576 833 601 833 q 436 830 493 833 q 343 810 379 826 q 288 755 307 793 q 260 650 268 717 q 253 478 253 583 q 258 322 253 385 q 278 217 263 258 q 323 156 294 176 q 398 126 351 135 q 513 118 444 118 q 569 119 539 118 q 625 123 599 121 q 669 128 651 125 l 669 399 l 482 399 l 482 529 l 821 529 l 821 18 q 717 3 774 10 q 607 -7 661 -3 q 508 -11 553 -11 m 393 -412 l 393 -349 q 447 -344 429 -349 q 473 -326 465 -339 q 481 -287 481 -312 l 481 -264 l 415 -264 l 415 -111 l 575 -111 l 575 -225 q 569 -319 575 -283 q 544 -376 563 -356 q 489 -405 525 -397 q 393 -412 453 -412 z "},"Ġ":{"ha":933,"x_min":96,"x_max":821,"o":"m 508 -11 q 334 2 406 -11 q 215 47 263 15 q 142 135 168 79 q 106 274 117 190 q 96 478 96 358 q 106 681 96 597 q 143 821 117 765 q 217 908 169 876 q 335 953 264 940 q 508 967 407 967 q 609 963 554 967 q 718 952 664 958 q 817 938 772 946 l 817 813 q 724 824 769 819 q 640 831 678 828 q 576 833 601 833 q 436 830 493 833 q 343 810 379 826 q 288 755 307 793 q 260 650 268 717 q 253 478 253 583 q 258 322 253 385 q 278 217 263 258 q 323 156 294 176 q 398 126 351 135 q 513 118 444 118 q 569 119 539 118 q 625 123 599 121 q 669 128 651 125 l 669 399 l 482 399 l 482 529 l 821 529 l 821 18 q 717 3 774 10 q 607 -7 661 -3 q 508 -11 553 -11 m 428 1103 l 428 1229 l 560 1229 l 560 1103 l 428 1103 z "},"H":{"ha":1011,"x_min":128,"x_max":883,"o":"m 128 0 l 128 956 l 285 956 l 285 550 l 726 550 l 726 956 l 883 956 l 883 0 l 726 0 l 726 413 l 285 413 l 285 0 l 128 0 z "},"Ħ":{"ha":1011,"x_min":128,"x_max":883,"o":"m 128 0 l 128 956 l 285 956 l 285 782 l 726 782 l 726 956 l 883 956 l 883 0 l 726 0 l 726 361 l 285 361 l 285 0 l 128 0 m 285 499 l 726 499 l 726 661 l 285 661 l 285 499 z "},"Ĥ":{"ha":1011,"x_min":128,"x_max":883,"o":"m 128 0 l 128 956 l 285 956 l 285 550 l 726 550 l 726 956 l 883 956 l 883 0 l 726 0 l 726 413 l 285 413 l 285 0 l 128 0 m 293 1065 l 293 1074 l 431 1263 l 579 1263 l 717 1074 l 717 1065 l 617 1065 l 504 1190 l 392 1065 l 293 1065 z "},"Ḥ":{"ha":1011,"x_min":128,"x_max":883,"o":"m 128 0 l 128 956 l 285 956 l 285 550 l 726 550 l 726 956 l 883 956 l 883 0 l 726 0 l 726 413 l 285 413 l 285 0 l 128 0 m 444 -271 l 444 -151 l 567 -151 l 567 -271 l 444 -271 z "},"I":{"ha":411,"x_min":128,"x_max":285,"o":"m 128 0 l 128 956 l 285 956 l 285 0 l 128 0 z "},"Ĳ":{"ha":928,"x_min":128,"x_max":808,"o":"m 128 0 l 128 956 l 285 956 l 285 0 l 128 0 m 453 0 l 453 126 q 568 134 528 128 q 626 162 608 140 q 648 229 644 183 q 651 356 651 275 l 651 956 l 808 956 l 808 401 q 803 211 808 286 q 781 93 799 136 q 726 31 764 50 q 622 6 688 11 q 453 0 556 0 z "},"Í":{"ha":411,"x_min":118,"x_max":408,"o":"m 128 0 l 128 956 l 285 956 l 285 0 l 128 0 m 118 1064 l 118 1071 l 254 1263 l 407 1263 l 407 1256 l 226 1064 l 118 1064 z "},"Ĭ":{"ha":411,"x_min":7,"x_max":403,"o":"m 128 0 l 128 956 l 285 956 l 285 0 l 128 0 m 204 1051 q 96 1067 136 1051 q 37 1109 56 1082 q 13 1174 18 1136 q 7 1254 7 1211 l 96 1254 q 101 1193 96 1218 q 128 1154 106 1168 q 203 1140 150 1140 q 280 1154 257 1140 q 308 1193 303 1168 q 313 1254 313 1218 l 403 1254 q 397 1174 403 1211 q 372 1109 392 1136 q 313 1067 353 1082 q 204 1051 272 1051 z "},"Ǐ":{"ha":411,"x_min":-7,"x_max":418,"o":"m 128 0 l 128 956 l 285 956 l 285 0 l 128 0 m 131 1064 l -7 1253 l -7 1261 l 92 1261 l 204 1135 l 317 1261 l 417 1261 l 417 1253 l 279 1064 l 131 1064 z "},"Î":{"ha":411,"x_min":-7,"x_max":418,"o":"m 128 0 l 128 956 l 285 956 l 285 0 l 128 0 m -7 1065 l -7 1074 l 131 1263 l 279 1263 l 417 1074 l 417 1065 l 317 1065 l 204 1190 l 92 1065 l -7 1065 z "},"Ȉ":{"ha":411,"x_min":-103,"x_max":411,"o":"m 128 0 l 128 956 l 285 956 l 285 0 l 128 0 m 411 1064 l 318 1064 l 158 1232 l 158 1239 l 289 1239 l 411 1072 l 411 1064 m 150 1064 l 58 1064 l -103 1232 l -103 1239 l 29 1239 l 150 1072 l 150 1064 z "},"Ï":{"ha":411,"x_min":-3,"x_max":414,"o":"m 128 0 l 128 956 l 285 956 l 285 0 l 128 0 m -3 1103 l -3 1229 l 129 1229 l 129 1103 l -3 1103 m 282 1103 l 282 1229 l 414 1229 l 414 1103 l 282 1103 z "},"İ":{"ha":411,"x_min":128,"x_max":285,"o":"m 128 0 l 128 956 l 285 956 l 285 0 l 128 0 m 139 1103 l 139 1229 l 271 1229 l 271 1103 l 139 1103 z "},"Ị":{"ha":411,"x_min":128,"x_max":285,"o":"m 128 0 l 128 956 l 285 956 l 285 0 l 128 0 m 144 -271 l 144 -151 l 267 -151 l 267 -271 l 144 -271 z "},"Ì":{"ha":411,"x_min":-8,"x_max":285,"o":"m 128 0 l 128 956 l 285 956 l 285 0 l 128 0 m 172 1065 l -8 1254 l -8 1263 l 144 1263 l 281 1072 l 281 1065 l 172 1065 z "},"Ỉ":{"ha":411,"x_min":38,"x_max":390,"o":"m 128 0 l 128 956 l 285 956 l 285 0 l 128 0 m 135 1046 l 135 1058 q 140 1094 135 1079 q 160 1121 146 1110 q 197 1139 174 1132 l 226 1147 q 269 1162 256 1156 q 288 1176 283 1168 q 292 1200 292 1185 q 281 1234 292 1225 q 247 1246 271 1243 q 181 1249 222 1249 q 138 1248 164 1249 q 85 1246 113 1247 q 38 1242 58 1244 l 38 1314 q 119 1323 72 1319 q 204 1326 167 1326 q 306 1319 264 1326 q 369 1288 347 1313 q 390 1210 390 1263 q 382 1156 390 1176 q 354 1124 374 1136 q 301 1103 335 1113 l 271 1093 q 235 1081 246 1086 q 221 1069 224 1076 q 218 1046 218 1061 l 135 1046 z "},"Ȋ":{"ha":411,"x_min":7,"x_max":403,"o":"m 128 0 l 128 956 l 285 956 l 285 0 l 128 0 m 207 1272 q 315 1257 276 1272 q 374 1215 354 1242 q 398 1151 393 1188 q 403 1069 403 1114 l 314 1069 q 310 1131 314 1106 q 283 1170 306 1157 q 207 1183 261 1183 q 131 1170 154 1183 q 103 1131 108 1157 q 97 1069 97 1106 l 7 1069 q 13 1151 7 1114 q 38 1215 18 1188 q 97 1257 57 1242 q 207 1272 138 1272 z "},"Ī":{"ha":411,"x_min":-4,"x_max":414,"o":"m 128 0 l 128 956 l 285 956 l 285 0 l 128 0 m -4 1103 l -4 1201 l 415 1201 l 415 1103 l -4 1103 z "},"Į":{"ha":411,"x_min":71,"x_max":286,"o":"m 128 0 l 128 956 l 285 956 l 285 0 l 128 0 m 218 -278 q 128 -262 160 -278 q 83 -222 96 -247 q 71 -167 71 -197 q 100 -74 71 -122 q 175 14 129 -25 l 285 0 q 247 -35 267 -12 q 212 -85 226 -58 q 197 -135 197 -111 q 210 -172 197 -157 q 263 -187 224 -187 q 273 -187 267 -187 q 286 -185 279 -186 l 286 -274 q 253 -276 271 -275 q 218 -278 236 -278 z "},"Ĩ":{"ha":411,"x_min":-37,"x_max":450,"o":"m 128 0 l 128 956 l 285 956 l 285 0 l 128 0 m -37 1069 q -31 1165 -37 1126 q -1 1222 -25 1203 q 74 1242 24 1242 q 151 1232 113 1242 q 225 1211 189 1222 q 278 1195 253 1203 q 329 1188 304 1188 q 365 1202 360 1188 q 369 1257 369 1217 l 450 1257 q 444 1162 450 1200 q 415 1104 438 1124 q 340 1085 392 1085 q 263 1094 299 1085 q 190 1115 226 1104 q 134 1131 161 1124 q 85 1139 107 1139 q 50 1124 56 1139 q 44 1069 44 1110 l -37 1069 z "},"J":{"ha":517,"x_min":42,"x_max":397,"o":"m 42 0 l 42 126 q 157 134 117 128 q 215 162 197 140 q 237 229 233 183 q 240 356 240 275 l 240 956 l 397 956 l 397 401 q 392 211 397 286 q 370 93 388 136 q 315 31 353 50 q 210 6 276 11 q 42 0 144 0 z "},"Ĵ":{"ha":517,"x_min":42,"x_max":531,"o":"m 42 0 l 42 126 q 157 134 117 128 q 215 162 197 140 q 237 229 233 183 q 240 356 240 275 l 240 956 l 397 956 l 397 401 q 392 211 397 286 q 370 93 388 136 q 315 31 353 50 q 210 6 276 11 q 42 0 144 0 m 107 1065 l 107 1074 l 244 1263 l 393 1263 l 531 1074 l 531 1065 l 431 1065 l 318 1190 l 206 1065 l 107 1065 z "},"K":{"ha":935,"x_min":128,"x_max":907,"o":"m 128 0 l 128 956 l 285 956 l 285 553 l 418 553 l 731 956 l 903 956 l 546 496 l 907 0 l 725 0 l 418 419 l 285 419 l 285 0 l 128 0 z "},"Ķ":{"ha":935,"x_min":128,"x_max":907,"o":"m 128 0 l 128 956 l 285 956 l 285 553 l 418 553 l 731 956 l 903 956 l 546 496 l 907 0 l 725 0 l 418 419 l 285 419 l 285 0 l 128 0 m 367 -412 l 367 -349 q 421 -344 403 -349 q 447 -326 439 -339 q 454 -287 454 -312 l 454 -264 l 389 -264 l 389 -111 l 549 -111 l 549 -225 q 542 -319 549 -283 q 517 -376 536 -356 q 463 -405 499 -397 q 367 -412 426 -412 z "},"L":{"ha":749,"x_min":128,"x_max":708,"o":"m 128 0 l 128 956 l 285 956 l 285 138 l 708 138 l 708 0 l 128 0 z "},"Ǉ":{"ha":1264,"x_min":128,"x_max":1144,"o":"m 128 0 l 128 956 l 285 956 l 285 138 l 708 138 l 708 0 l 128 0 m 790 0 l 790 126 q 906 134 865 128 q 964 162 946 140 q 985 229 982 183 q 989 356 989 275 l 989 956 l 1146 956 l 1146 401 q 1141 211 1146 286 q 1119 93 1136 136 q 1063 31 1101 50 q 959 6 1025 11 q 790 0 893 0 z "},"Ĺ":{"ha":749,"x_min":118,"x_max":708,"o":"m 128 0 l 128 956 l 285 956 l 285 138 l 708 138 l 708 0 l 128 0 m 118 1064 l 118 1071 l 254 1263 l 407 1263 l 407 1256 l 226 1064 l 118 1064 z "},"Ľ":{"ha":749,"x_min":128,"x_max":708,"o":"m 128 0 l 128 956 l 285 956 l 285 138 l 708 138 l 708 0 l 128 0 m 456 608 l 476 860 l 476 956 l 603 956 l 603 860 l 547 608 l 456 608 z "},"Ļ":{"ha":749,"x_min":128,"x_max":708,"o":"m 128 0 l 128 956 l 285 956 l 285 138 l 708 138 l 708 0 l 128 0 m 338 -412 l 338 -349 q 392 -344 374 -349 q 417 -326 410 -339 q 425 -287 425 -312 l 425 -264 l 360 -264 l 360 -111 l 519 -111 l 519 -225 q 513 -319 519 -283 q 488 -376 507 -356 q 433 -405 469 -397 q 338 -412 397 -412 z "},"Ŀ":{"ha":744,"x_min":128,"x_max":708,"o":"m 128 0 l 128 956 l 285 956 l 285 138 l 708 138 l 708 0 l 128 0 m 519 419 l 519 579 l 669 579 l 669 419 l 519 419 z "},"ǈ":{"ha":1115,"x_min":128,"x_max":1008,"o":"m 128 0 l 128 956 l 285 956 l 285 138 l 708 138 l 708 0 l 128 0 m 856 886 l 856 1032 l 1010 1032 l 1010 886 l 856 886 m 731 -278 l 731 -164 q 817 -157 790 -164 q 851 -133 844 -150 q 858 -89 858 -117 l 858 708 l 1006 708 l 1006 -57 q 993 -178 1006 -133 q 949 -244 981 -222 q 865 -272 918 -265 q 731 -278 811 -278 z "},"Ł":{"ha":749,"x_min":42,"x_max":708,"o":"m 42 356 l 42 474 l 531 656 l 531 538 l 42 356 m 128 0 l 128 956 l 285 956 l 285 138 l 708 138 l 708 0 l 128 0 z "},"M":{"ha":1251,"x_min":128,"x_max":1124,"o":"m 128 0 l 128 956 l 342 956 l 622 261 l 629 261 l 910 956 l 1124 956 l 1124 0 l 972 0 l 972 713 l 967 713 l 678 0 l 567 0 l 281 713 l 275 713 l 275 0 l 128 0 z "},"N":{"ha":1011,"x_min":128,"x_max":883,"o":"m 128 0 l 128 956 l 290 956 l 728 294 l 733 294 l 733 956 l 883 956 l 883 0 l 733 0 l 283 682 l 278 682 l 278 0 l 128 0 z "},"Ǌ":{"ha":1528,"x_min":128,"x_max":1408,"o":"m 128 0 l 128 956 l 290 956 l 728 294 l 733 294 l 733 956 l 883 956 l 883 0 l 733 0 l 283 682 l 278 682 l 278 0 l 128 0 m 1053 0 l 1053 126 q 1168 134 1128 128 q 1226 162 1208 140 q 1248 229 1244 183 q 1251 356 1251 275 l 1251 956 l 1408 956 l 1408 401 q 1403 211 1408 286 q 1381 93 1399 136 q 1326 31 1364 50 q 1222 6 1288 11 q 1053 0 1156 0 z "},"Ń":{"ha":1011,"x_min":128,"x_max":883,"o":"m 128 0 l 128 956 l 290 956 l 728 294 l 733 294 l 733 956 l 883 956 l 883 0 l 733 0 l 283 682 l 278 682 l 278 0 l 128 0 m 432 1064 l 432 1071 l 568 1263 l 721 1263 l 721 1256 l 540 1064 l 432 1064 z "},"Ň":{"ha":1011,"x_min":128,"x_max":883,"o":"m 128 0 l 128 956 l 290 956 l 728 294 l 733 294 l 733 956 l 883 956 l 883 0 l 733 0 l 283 682 l 278 682 l 278 0 l 128 0 m 444 1064 l 307 1253 l 307 1261 l 406 1261 l 518 1135 l 631 1261 l 731 1261 l 731 1253 l 593 1064 l 444 1064 z "},"Ņ":{"ha":1011,"x_min":128,"x_max":883,"o":"m 128 0 l 128 956 l 290 956 l 728 294 l 733 294 l 733 956 l 883 956 l 883 0 l 733 0 l 283 682 l 278 682 l 278 0 l 128 0 m 418 -412 l 418 -349 q 472 -344 454 -349 q 498 -326 490 -339 q 506 -287 506 -312 l 506 -264 l 440 -264 l 440 -111 l 600 -111 l 600 -225 q 594 -319 600 -283 q 569 -376 588 -356 q 514 -405 550 -397 q 418 -412 478 -412 z "},"Ṅ":{"ha":1011,"x_min":128,"x_max":883,"o":"m 128 0 l 128 956 l 290 956 l 728 294 l 733 294 l 733 956 l 883 956 l 883 0 l 733 0 l 283 682 l 278 682 l 278 0 l 128 0 m 453 1103 l 453 1229 l 585 1229 l 585 1103 l 453 1103 z "},"Ɲ":{"ha":1011,"x_min":0,"x_max":883,"o":"m 0 -278 l 0 -164 q 70 -160 44 -164 q 108 -148 96 -157 q 124 -124 119 -139 q 128 -89 128 -110 l 128 956 l 290 956 l 728 294 l 733 294 l 733 956 l 883 956 l 883 0 l 733 0 l 283 682 l 278 682 l 278 -57 q 269 -158 278 -118 q 242 -223 261 -199 q 191 -258 224 -247 q 111 -274 158 -269 q 0 -278 64 -278 z "},"ǋ":{"ha":1378,"x_min":128,"x_max":1272,"o":"m 128 0 l 128 956 l 290 956 l 728 294 l 733 294 l 733 956 l 883 956 l 883 0 l 733 0 l 283 682 l 278 682 l 278 0 l 128 0 m 1118 886 l 1118 1032 l 1272 1032 l 1272 886 l 1118 886 m 993 -278 l 993 -164 q 1080 -157 1053 -164 q 1114 -133 1107 -150 q 1121 -89 1121 -117 l 1121 708 l 1268 708 l 1268 -57 q 1256 -178 1268 -133 q 1212 -244 1243 -222 q 1127 -272 1181 -265 q 993 -278 1074 -278 z "},"Ñ":{"ha":1011,"x_min":128,"x_max":883,"o":"m 128 0 l 128 956 l 290 956 l 728 294 l 733 294 l 733 956 l 883 956 l 883 0 l 733 0 l 283 682 l 278 682 l 278 0 l 128 0 m 276 1069 q 283 1165 276 1126 q 313 1222 289 1203 q 388 1242 338 1242 q 465 1232 426 1242 q 539 1211 503 1222 q 592 1195 567 1203 q 643 1188 618 1188 q 678 1202 674 1188 q 683 1257 683 1217 l 764 1257 q 758 1162 764 1200 q 728 1104 751 1124 q 654 1085 706 1085 q 576 1094 613 1085 q 504 1115 540 1104 q 448 1131 475 1124 q 399 1139 421 1139 q 364 1124 369 1139 q 358 1069 358 1110 l 276 1069 z "},"Ŋ":{"ha":1011,"x_min":128,"x_max":883,"o":"m 606 -278 l 606 -164 q 692 -157 665 -164 q 726 -133 718 -150 q 733 -89 733 -117 l 733 0 l 283 682 l 278 682 l 278 0 l 128 0 l 128 956 l 290 956 l 728 294 l 733 294 l 733 956 l 883 956 l 883 -57 q 876 -158 883 -118 q 849 -223 868 -199 q 797 -258 829 -247 q 717 -274 764 -269 q 606 -278 669 -278 z "},"O":{"ha":989,"x_min":96,"x_max":893,"o":"m 493 -11 q 306 2 379 -11 q 189 47 232 15 q 126 135 146 79 q 101 274 107 190 q 96 478 96 358 q 101 681 96 597 q 126 821 107 765 q 189 908 146 876 q 306 953 232 940 q 493 967 379 967 q 681 953 607 967 q 799 908 756 940 q 862 821 842 876 q 888 681 882 765 q 893 478 893 597 q 888 274 893 358 q 862 135 882 190 q 799 47 842 79 q 681 2 756 15 q 493 -11 607 -11 m 493 122 q 608 126 563 122 q 678 147 653 131 q 717 202 704 164 q 733 306 729 240 q 736 478 736 372 q 733 649 736 583 q 717 753 729 715 q 678 808 704 792 q 608 829 653 825 q 493 833 563 833 q 381 829 425 833 q 310 808 336 825 q 272 753 283 792 q 256 649 260 715 q 253 478 253 583 q 256 306 253 372 q 272 202 260 240 q 310 147 283 164 q 381 126 336 131 q 493 122 425 122 z "},"Ó":{"ha":989,"x_min":96,"x_max":893,"o":"m 493 -11 q 306 2 379 -11 q 189 47 232 15 q 126 135 146 79 q 101 274 107 190 q 96 478 96 358 q 101 681 96 597 q 126 821 107 765 q 189 908 146 876 q 306 953 232 940 q 493 967 379 967 q 681 953 607 967 q 799 908 756 940 q 862 821 842 876 q 888 681 882 765 q 893 478 893 597 q 888 274 893 358 q 862 135 882 190 q 799 47 842 79 q 681 2 756 15 q 493 -11 607 -11 m 493 122 q 608 126 563 122 q 678 147 653 131 q 717 202 704 164 q 733 306 729 240 q 736 478 736 372 q 733 649 736 583 q 717 753 729 715 q 678 808 704 792 q 608 829 653 825 q 493 833 563 833 q 381 829 425 833 q 310 808 336 825 q 272 753 283 792 q 256 649 260 715 q 253 478 253 583 q 256 306 253 372 q 272 202 260 240 q 310 147 283 164 q 381 126 336 131 q 493 122 425 122 m 408 1064 l 408 1071 l 544 1263 l 697 1263 l 697 1256 l 517 1064 l 408 1064 z "},"Ŏ":{"ha":989,"x_min":96,"x_max":893,"o":"m 493 -11 q 306 2 379 -11 q 189 47 232 15 q 126 135 146 79 q 101 274 107 190 q 96 478 96 358 q 101 681 96 597 q 126 821 107 765 q 189 908 146 876 q 306 953 232 940 q 493 967 379 967 q 681 953 607 967 q 799 908 756 940 q 862 821 842 876 q 888 681 882 765 q 893 478 893 597 q 888 274 893 358 q 862 135 882 190 q 799 47 842 79 q 681 2 756 15 q 493 -11 607 -11 m 493 122 q 608 126 563 122 q 678 147 653 131 q 717 202 704 164 q 733 306 729 240 q 736 478 736 372 q 733 649 736 583 q 717 753 729 715 q 678 808 704 792 q 608 829 653 825 q 493 833 563 833 q 381 829 425 833 q 310 808 336 825 q 272 753 283 792 q 256 649 260 715 q 253 478 253 583 q 256 306 253 372 q 272 202 260 240 q 310 147 283 164 q 381 126 336 131 q 493 122 425 122 m 493 1051 q 385 1067 425 1051 q 326 1109 344 1082 q 301 1174 307 1136 q 296 1254 296 1211 l 385 1254 q 390 1193 385 1218 q 417 1154 394 1168 q 492 1140 439 1140 q 569 1154 546 1140 q 597 1193 592 1168 q 601 1254 601 1218 l 692 1254 q 686 1174 692 1211 q 661 1109 681 1136 q 601 1067 642 1082 q 493 1051 561 1051 z "},"Ǒ":{"ha":989,"x_min":96,"x_max":893,"o":"m 493 -11 q 306 2 379 -11 q 189 47 232 15 q 126 135 146 79 q 101 274 107 190 q 96 478 96 358 q 101 681 96 597 q 126 821 107 765 q 189 908 146 876 q 306 953 232 940 q 493 967 379 967 q 681 953 607 967 q 799 908 756 940 q 862 821 842 876 q 888 681 882 765 q 893 478 893 597 q 888 274 893 358 q 862 135 882 190 q 799 47 842 79 q 681 2 756 15 q 493 -11 607 -11 m 493 122 q 608 126 563 122 q 678 147 653 131 q 717 202 704 164 q 733 306 729 240 q 736 478 736 372 q 733 649 736 583 q 717 753 729 715 q 678 808 704 792 q 608 829 653 825 q 493 833 563 833 q 381 829 425 833 q 310 808 336 825 q 272 753 283 792 q 256 649 260 715 q 253 478 253 583 q 256 306 253 372 q 272 202 260 240 q 310 147 283 164 q 381 126 336 131 q 493 122 425 122 m 421 1064 l 283 1253 l 283 1261 l 382 1261 l 494 1135 l 607 1261 l 707 1261 l 707 1253 l 569 1064 l 421 1064 z "},"Ô":{"ha":989,"x_min":96,"x_max":893,"o":"m 493 -11 q 306 2 379 -11 q 189 47 232 15 q 126 135 146 79 q 101 274 107 190 q 96 478 96 358 q 101 681 96 597 q 126 821 107 765 q 189 908 146 876 q 306 953 232 940 q 493 967 379 967 q 681 953 607 967 q 799 908 756 940 q 862 821 842 876 q 888 681 882 765 q 893 478 893 597 q 888 274 893 358 q 862 135 882 190 q 799 47 842 79 q 681 2 756 15 q 493 -11 607 -11 m 493 122 q 608 126 563 122 q 678 147 653 131 q 717 202 704 164 q 733 306 729 240 q 736 478 736 372 q 733 649 736 583 q 717 753 729 715 q 678 808 704 792 q 608 829 653 825 q 493 833 563 833 q 381 829 425 833 q 310 808 336 825 q 272 753 283 792 q 256 649 260 715 q 253 478 253 583 q 256 306 253 372 q 272 202 260 240 q 310 147 283 164 q 381 126 336 131 q 493 122 425 122 m 283 1065 l 283 1074 l 421 1263 l 569 1263 l 707 1074 l 707 1065 l 607 1065 l 494 1190 l 382 1065 l 283 1065 z "},"Ố":{"ha":989,"x_min":96,"x_max":893,"o":"m 493 -11 q 306 2 379 -11 q 189 47 232 15 q 126 135 146 79 q 101 274 107 190 q 96 478 96 358 q 101 681 96 597 q 126 821 107 765 q 189 908 146 876 q 306 953 232 940 q 493 967 379 967 q 681 953 607 967 q 799 908 756 940 q 862 821 842 876 q 888 681 882 765 q 893 478 893 597 q 888 274 893 358 q 862 135 882 190 q 799 47 842 79 q 681 2 756 15 q 493 -11 607 -11 m 493 122 q 608 126 563 122 q 678 147 653 131 q 717 202 704 164 q 733 306 729 240 q 736 478 736 372 q 733 649 736 583 q 717 753 729 715 q 678 808 704 792 q 608 829 653 825 q 493 833 563 833 q 381 829 425 833 q 310 808 336 825 q 272 753 283 792 q 256 649 260 715 q 253 478 253 583 q 256 306 253 372 q 272 202 260 240 q 310 147 283 164 q 381 126 336 131 q 493 122 425 122 m 283 1065 l 283 1074 l 421 1263 l 569 1263 l 707 1074 l 707 1065 l 607 1065 l 494 1190 l 382 1065 l 283 1065 m 408 1311 l 408 1318 l 544 1510 l 697 1510 l 697 1503 l 517 1311 l 408 1311 z "},"Ộ":{"ha":989,"x_min":96,"x_max":893,"o":"m 493 -11 q 306 2 379 -11 q 189 47 232 15 q 126 135 146 79 q 101 274 107 190 q 96 478 96 358 q 101 681 96 597 q 126 821 107 765 q 189 908 146 876 q 306 953 232 940 q 493 967 379 967 q 681 953 607 967 q 799 908 756 940 q 862 821 842 876 q 888 681 882 765 q 893 478 893 597 q 888 274 893 358 q 862 135 882 190 q 799 47 842 79 q 681 2 756 15 q 493 -11 607 -11 m 493 122 q 608 126 563 122 q 678 147 653 131 q 717 202 704 164 q 733 306 729 240 q 736 478 736 372 q 733 649 736 583 q 717 753 729 715 q 678 808 704 792 q 608 829 653 825 q 493 833 563 833 q 381 829 425 833 q 310 808 336 825 q 272 753 283 792 q 256 649 260 715 q 253 478 253 583 q 256 306 253 372 q 272 202 260 240 q 310 147 283 164 q 381 126 336 131 q 493 122 425 122 m 435 -271 l 435 -151 l 557 -151 l 557 -271 l 435 -271 m 283 1065 l 283 1074 l 421 1263 l 569 1263 l 707 1074 l 707 1065 l 607 1065 l 494 1190 l 382 1065 l 283 1065 z "},"Ồ":{"ha":989,"x_min":96,"x_max":893,"o":"m 493 -11 q 306 2 379 -11 q 189 47 232 15 q 126 135 146 79 q 101 274 107 190 q 96 478 96 358 q 101 681 96 597 q 126 821 107 765 q 189 908 146 876 q 306 953 232 940 q 493 967 379 967 q 681 953 607 967 q 799 908 756 940 q 862 821 842 876 q 888 681 882 765 q 893 478 893 597 q 888 274 893 358 q 862 135 882 190 q 799 47 842 79 q 681 2 756 15 q 493 -11 607 -11 m 493 122 q 608 126 563 122 q 678 147 653 131 q 717 202 704 164 q 733 306 729 240 q 736 478 736 372 q 733 649 736 583 q 717 753 729 715 q 678 808 704 792 q 608 829 653 825 q 493 833 563 833 q 381 829 425 833 q 310 808 336 825 q 272 753 283 792 q 256 649 260 715 q 253 478 253 583 q 256 306 253 372 q 272 202 260 240 q 310 147 283 164 q 381 126 336 131 q 493 122 425 122 m 283 1065 l 283 1074 l 421 1263 l 569 1263 l 707 1074 l 707 1065 l 607 1065 l 494 1190 l 382 1065 l 283 1065 m 463 1313 l 282 1503 l 282 1510 l 435 1510 l 571 1319 l 571 1313 l 463 1313 z "},"Ổ":{"ha":989,"x_min":96,"x_max":893,"o":"m 493 -11 q 306 2 379 -11 q 189 47 232 15 q 126 135 146 79 q 101 274 107 190 q 96 478 96 358 q 101 681 96 597 q 126 821 107 765 q 189 908 146 876 q 306 953 232 940 q 493 967 379 967 q 681 953 607 967 q 799 908 756 940 q 862 821 842 876 q 888 681 882 765 q 893 478 893 597 q 888 274 893 358 q 862 135 882 190 q 799 47 842 79 q 681 2 756 15 q 493 -11 607 -11 m 493 122 q 608 126 563 122 q 678 147 653 131 q 717 202 704 164 q 733 306 729 240 q 736 478 736 372 q 733 649 736 583 q 717 753 729 715 q 678 808 704 792 q 608 829 653 825 q 493 833 563 833 q 381 829 425 833 q 310 808 336 825 q 272 753 283 792 q 256 649 260 715 q 253 478 253 583 q 256 306 253 372 q 272 202 260 240 q 310 147 283 164 q 381 126 336 131 q 493 122 425 122 m 283 1065 l 283 1074 l 421 1263 l 569 1263 l 707 1074 l 707 1065 l 607 1065 l 494 1190 l 382 1065 l 283 1065 m 425 1293 l 425 1306 q 431 1342 425 1326 q 449 1368 436 1357 q 488 1386 463 1379 l 517 1394 q 558 1409 544 1403 q 577 1424 572 1415 q 582 1447 582 1432 q 572 1481 582 1472 q 537 1493 561 1490 q 471 1496 513 1496 q 428 1495 453 1496 q 376 1493 403 1494 q 328 1489 349 1492 l 328 1561 q 410 1570 363 1567 q 494 1574 457 1574 q 595 1567 554 1574 q 658 1535 636 1560 q 681 1457 681 1510 q 672 1403 681 1424 q 644 1372 664 1383 q 590 1350 625 1360 l 561 1340 q 525 1328 536 1333 q 511 1316 514 1324 q 508 1293 508 1308 l 425 1293 z "},"Ỗ":{"ha":989,"x_min":96,"x_max":893,"o":"m 493 -11 q 306 2 379 -11 q 189 47 232 15 q 126 135 146 79 q 101 274 107 190 q 96 478 96 358 q 101 681 96 597 q 126 821 107 765 q 189 908 146 876 q 306 953 232 940 q 493 967 379 967 q 681 953 607 967 q 799 908 756 940 q 862 821 842 876 q 888 681 882 765 q 893 478 893 597 q 888 274 893 358 q 862 135 882 190 q 799 47 842 79 q 681 2 756 15 q 493 -11 607 -11 m 493 122 q 608 126 563 122 q 678 147 653 131 q 717 202 704 164 q 733 306 729 240 q 736 478 736 372 q 733 649 736 583 q 717 753 729 715 q 678 808 704 792 q 608 829 653 825 q 493 833 563 833 q 381 829 425 833 q 310 808 336 825 q 272 753 283 792 q 256 649 260 715 q 253 478 253 583 q 256 306 253 372 q 272 202 260 240 q 310 147 283 164 q 381 126 336 131 q 493 122 425 122 m 283 1065 l 283 1074 l 421 1263 l 569 1263 l 707 1074 l 707 1065 l 607 1065 l 494 1190 l 382 1065 l 283 1065 m 251 1317 q 258 1412 251 1374 q 288 1469 264 1450 q 364 1489 313 1489 q 440 1479 403 1489 q 514 1458 478 1469 q 567 1442 542 1450 q 619 1435 593 1435 q 654 1449 649 1435 q 660 1504 660 1464 l 740 1504 q 734 1409 740 1447 q 704 1351 728 1371 q 629 1332 681 1332 q 551 1342 588 1332 q 479 1363 515 1351 q 424 1378 450 1371 q 374 1386 397 1386 q 339 1372 344 1386 q 333 1317 333 1357 l 251 1317 z "},"Ȍ":{"ha":989,"x_min":96,"x_max":893,"o":"m 493 -11 q 306 2 379 -11 q 189 47 232 15 q 126 135 146 79 q 101 274 107 190 q 96 478 96 358 q 101 681 96 597 q 126 821 107 765 q 189 908 146 876 q 306 953 232 940 q 493 967 379 967 q 681 953 607 967 q 799 908 756 940 q 862 821 842 876 q 888 681 882 765 q 893 478 893 597 q 888 274 893 358 q 862 135 882 190 q 799 47 842 79 q 681 2 756 15 q 493 -11 607 -11 m 493 122 q 608 126 563 122 q 678 147 653 131 q 717 202 704 164 q 733 306 729 240 q 736 478 736 372 q 733 649 736 583 q 717 753 729 715 q 678 808 704 792 q 608 829 653 825 q 493 833 563 833 q 381 829 425 833 q 310 808 336 825 q 272 753 283 792 q 256 649 260 715 q 253 478 253 583 q 256 306 253 372 q 272 202 260 240 q 310 147 283 164 q 381 126 336 131 q 493 122 425 122 m 700 1064 l 607 1064 l 447 1232 l 447 1239 l 578 1239 l 700 1072 l 700 1064 m 439 1064 l 347 1064 l 186 1232 l 186 1239 l 318 1239 l 439 1072 l 439 1064 z "},"Ö":{"ha":989,"x_min":96,"x_max":893,"o":"m 493 -11 q 306 2 379 -11 q 189 47 232 15 q 126 135 146 79 q 101 274 107 190 q 96 478 96 358 q 101 681 96 597 q 126 821 107 765 q 189 908 146 876 q 306 953 232 940 q 493 967 379 967 q 681 953 607 967 q 799 908 756 940 q 862 821 842 876 q 888 681 882 765 q 893 478 893 597 q 888 274 893 358 q 862 135 882 190 q 799 47 842 79 q 681 2 756 15 q 493 -11 607 -11 m 493 122 q 608 126 563 122 q 678 147 653 131 q 717 202 704 164 q 733 306 729 240 q 736 478 736 372 q 733 649 736 583 q 717 753 729 715 q 678 808 704 792 q 608 829 653 825 q 493 833 563 833 q 381 829 425 833 q 310 808 336 825 q 272 753 283 792 q 256 649 260 715 q 253 478 253 583 q 256 306 253 372 q 272 202 260 240 q 310 147 283 164 q 381 126 336 131 q 493 122 425 122 m 286 1103 l 286 1229 l 418 1229 l 418 1103 l 286 1103 m 571 1103 l 571 1229 l 703 1229 l 703 1103 l 571 1103 z "},"Ȫ":{"ha":989,"x_min":96,"x_max":893,"o":"m 493 -11 q 306 2 379 -11 q 189 47 232 15 q 126 135 146 79 q 101 274 107 190 q 96 478 96 358 q 101 681 96 597 q 126 821 107 765 q 189 908 146 876 q 306 953 232 940 q 493 967 379 967 q 681 953 607 967 q 799 908 756 940 q 862 821 842 876 q 888 681 882 765 q 893 478 893 597 q 888 274 893 358 q 862 135 882 190 q 799 47 842 79 q 681 2 756 15 q 493 -11 607 -11 m 493 122 q 608 126 563 122 q 678 147 653 131 q 717 202 704 164 q 733 306 729 240 q 736 478 736 372 q 733 649 736 583 q 717 753 729 715 q 678 808 704 792 q 608 829 653 825 q 493 833 563 833 q 381 829 425 833 q 310 808 336 825 q 272 753 283 792 q 256 649 260 715 q 253 478 253 583 q 256 306 253 372 q 272 202 260 240 q 310 147 283 164 q 381 126 336 131 q 493 122 425 122 m 286 1103 l 286 1229 l 418 1229 l 418 1103 l 286 1103 m 571 1103 l 571 1229 l 703 1229 l 703 1103 l 571 1103 m 285 1353 l 285 1451 l 704 1451 l 704 1353 l 285 1353 z "},"Ȱ":{"ha":989,"x_min":96,"x_max":893,"o":"m 493 -11 q 306 2 379 -11 q 189 47 232 15 q 126 135 146 79 q 101 274 107 190 q 96 478 96 358 q 101 681 96 597 q 126 821 107 765 q 189 908 146 876 q 306 953 232 940 q 493 967 379 967 q 681 953 607 967 q 799 908 756 940 q 862 821 842 876 q 888 681 882 765 q 893 478 893 597 q 888 274 893 358 q 862 135 882 190 q 799 47 842 79 q 681 2 756 15 q 493 -11 607 -11 m 493 122 q 608 126 563 122 q 678 147 653 131 q 717 202 704 164 q 733 306 729 240 q 736 478 736 372 q 733 649 736 583 q 717 753 729 715 q 678 808 704 792 q 608 829 653 825 q 493 833 563 833 q 381 829 425 833 q 310 808 336 825 q 272 753 283 792 q 256 649 260 715 q 253 478 253 583 q 256 306 253 372 q 272 202 260 240 q 310 147 283 164 q 381 126 336 131 q 493 122 425 122 m 428 1103 l 428 1229 l 560 1229 l 560 1103 l 428 1103 m 285 1332 l 285 1431 l 704 1431 l 704 1332 l 285 1332 z "},"Ọ":{"ha":989,"x_min":96,"x_max":893,"o":"m 493 -11 q 306 2 379 -11 q 189 47 232 15 q 126 135 146 79 q 101 274 107 190 q 96 478 96 358 q 101 681 96 597 q 126 821 107 765 q 189 908 146 876 q 306 953 232 940 q 493 967 379 967 q 681 953 607 967 q 799 908 756 940 q 862 821 842 876 q 888 681 882 765 q 893 478 893 597 q 888 274 893 358 q 862 135 882 190 q 799 47 842 79 q 681 2 756 15 q 493 -11 607 -11 m 493 122 q 608 126 563 122 q 678 147 653 131 q 717 202 704 164 q 733 306 729 240 q 736 478 736 372 q 733 649 736 583 q 717 753 729 715 q 678 808 704 792 q 608 829 653 825 q 493 833 563 833 q 381 829 425 833 q 310 808 336 825 q 272 753 283 792 q 256 649 260 715 q 253 478 253 583 q 256 306 253 372 q 272 202 260 240 q 310 147 283 164 q 381 126 336 131 q 493 122 425 122 m 435 -271 l 435 -151 l 557 -151 l 557 -271 l 435 -271 z "},"Ò":{"ha":989,"x_min":96,"x_max":893,"o":"m 493 -11 q 306 2 379 -11 q 189 47 232 15 q 126 135 146 79 q 101 274 107 190 q 96 478 96 358 q 101 681 96 597 q 126 821 107 765 q 189 908 146 876 q 306 953 232 940 q 493 967 379 967 q 681 953 607 967 q 799 908 756 940 q 862 821 842 876 q 888 681 882 765 q 893 478 893 597 q 888 274 893 358 q 862 135 882 190 q 799 47 842 79 q 681 2 756 15 q 493 -11 607 -11 m 493 122 q 608 126 563 122 q 678 147 653 131 q 717 202 704 164 q 733 306 729 240 q 736 478 736 372 q 733 649 736 583 q 717 753 729 715 q 678 808 704 792 q 608 829 653 825 q 493 833 563 833 q 381 829 425 833 q 310 808 336 825 q 272 753 283 792 q 256 649 260 715 q 253 478 253 583 q 256 306 253 372 q 272 202 260 240 q 310 147 283 164 q 381 126 336 131 q 493 122 425 122 m 463 1065 l 282 1254 l 282 1263 l 435 1263 l 571 1072 l 571 1065 l 463 1065 z "},"Ỏ":{"ha":989,"x_min":96,"x_max":893,"o":"m 493 -11 q 306 2 379 -11 q 189 47 232 15 q 126 135 146 79 q 101 274 107 190 q 96 478 96 358 q 101 681 96 597 q 126 821 107 765 q 189 908 146 876 q 306 953 232 940 q 493 967 379 967 q 681 953 607 967 q 799 908 756 940 q 862 821 842 876 q 888 681 882 765 q 893 478 893 597 q 888 274 893 358 q 862 135 882 190 q 799 47 842 79 q 681 2 756 15 q 493 -11 607 -11 m 493 122 q 608 126 563 122 q 678 147 653 131 q 717 202 704 164 q 733 306 729 240 q 736 478 736 372 q 733 649 736 583 q 717 753 729 715 q 678 808 704 792 q 608 829 653 825 q 493 833 563 833 q 381 829 425 833 q 310 808 336 825 q 272 753 283 792 q 256 649 260 715 q 253 478 253 583 q 256 306 253 372 q 272 202 260 240 q 310 147 283 164 q 381 126 336 131 q 493 122 425 122 m 424 1046 l 424 1058 q 429 1094 424 1079 q 449 1121 435 1110 q 486 1139 463 1132 l 515 1147 q 558 1162 544 1156 q 576 1176 572 1168 q 581 1200 581 1185 q 570 1234 581 1225 q 535 1246 560 1243 q 469 1249 511 1249 q 427 1248 453 1249 q 374 1246 401 1247 q 326 1242 347 1244 l 326 1314 q 408 1323 361 1319 q 493 1326 456 1326 q 594 1319 553 1326 q 658 1288 636 1313 q 679 1210 679 1263 q 671 1156 679 1176 q 643 1124 663 1136 q 590 1103 624 1113 l 560 1093 q 524 1081 535 1086 q 510 1069 513 1076 q 507 1046 507 1061 l 424 1046 z "},"Ơ":{"ha":989,"x_min":96,"x_max":926,"o":"m 644 892 l 644 956 l 742 956 q 810 974 797 956 q 824 1043 824 992 l 824 1083 l 926 1083 l 926 1054 q 919 975 926 1007 q 893 925 913 943 q 838 899 874 907 q 742 892 801 892 l 644 892 m 493 -11 q 306 2 379 -11 q 189 47 232 15 q 126 135 146 79 q 101 274 107 190 q 96 478 96 358 q 101 681 96 597 q 126 821 107 765 q 189 908 146 876 q 306 953 232 940 q 493 967 379 967 q 681 953 607 967 q 799 908 756 940 q 862 821 842 876 q 888 681 882 765 q 893 478 893 597 q 888 274 893 358 q 862 135 882 190 q 799 47 842 79 q 681 2 756 15 q 493 -11 607 -11 m 493 122 q 608 126 563 122 q 678 147 653 131 q 717 202 704 164 q 733 306 729 240 q 736 478 736 372 q 733 649 736 583 q 717 753 729 715 q 678 808 704 792 q 608 829 653 825 q 493 833 563 833 q 381 829 425 833 q 310 808 336 825 q 272 753 283 792 q 256 649 260 715 q 253 478 253 583 q 256 306 253 372 q 272 202 260 240 q 310 147 283 164 q 381 126 336 131 q 493 122 425 122 z "},"Ớ":{"ha":989,"x_min":96,"x_max":926,"o":"m 644 892 l 644 956 l 742 956 q 810 974 797 956 q 824 1043 824 992 l 824 1083 l 926 1083 l 926 1054 q 919 975 926 1007 q 893 925 913 943 q 838 899 874 907 q 742 892 801 892 l 644 892 m 493 -11 q 306 2 379 -11 q 189 47 232 15 q 126 135 146 79 q 101 274 107 190 q 96 478 96 358 q 101 681 96 597 q 126 821 107 765 q 189 908 146 876 q 306 953 232 940 q 493 967 379 967 q 681 953 607 967 q 799 908 756 940 q 862 821 842 876 q 888 681 882 765 q 893 478 893 597 q 888 274 893 358 q 862 135 882 190 q 799 47 842 79 q 681 2 756 15 q 493 -11 607 -11 m 493 122 q 608 126 563 122 q 678 147 653 131 q 717 202 704 164 q 733 306 729 240 q 736 478 736 372 q 733 649 736 583 q 717 753 729 715 q 678 808 704 792 q 608 829 653 825 q 493 833 563 833 q 381 829 425 833 q 310 808 336 825 q 272 753 283 792 q 256 649 260 715 q 253 478 253 583 q 256 306 253 372 q 272 202 260 240 q 310 147 283 164 q 381 126 336 131 q 493 122 425 122 m 408 1064 l 408 1071 l 544 1263 l 697 1263 l 697 1256 l 517 1064 l 408 1064 z "},"Ợ":{"ha":989,"x_min":96,"x_max":926,"o":"m 644 892 l 644 956 l 742 956 q 810 974 797 956 q 824 1043 824 992 l 824 1083 l 926 1083 l 926 1054 q 919 975 926 1007 q 893 925 913 943 q 838 899 874 907 q 742 892 801 892 l 644 892 m 493 -11 q 306 2 379 -11 q 189 47 232 15 q 126 135 146 79 q 101 274 107 190 q 96 478 96 358 q 101 681 96 597 q 126 821 107 765 q 189 908 146 876 q 306 953 232 940 q 493 967 379 967 q 681 953 607 967 q 799 908 756 940 q 862 821 842 876 q 888 681 882 765 q 893 478 893 597 q 888 274 893 358 q 862 135 882 190 q 799 47 842 79 q 681 2 756 15 q 493 -11 607 -11 m 493 122 q 608 126 563 122 q 678 147 653 131 q 717 202 704 164 q 733 306 729 240 q 736 478 736 372 q 733 649 736 583 q 717 753 729 715 q 678 808 704 792 q 608 829 653 825 q 493 833 563 833 q 381 829 425 833 q 310 808 336 825 q 272 753 283 792 q 256 649 260 715 q 253 478 253 583 q 256 306 253 372 q 272 202 260 240 q 310 147 283 164 q 381 126 336 131 q 493 122 425 122 m 435 -271 l 435 -151 l 557 -151 l 557 -271 l 435 -271 z "},"Ờ":{"ha":989,"x_min":96,"x_max":926,"o":"m 644 892 l 644 956 l 742 956 q 810 974 797 956 q 824 1043 824 992 l 824 1083 l 926 1083 l 926 1054 q 919 975 926 1007 q 893 925 913 943 q 838 899 874 907 q 742 892 801 892 l 644 892 m 493 -11 q 306 2 379 -11 q 189 47 232 15 q 126 135 146 79 q 101 274 107 190 q 96 478 96 358 q 101 681 96 597 q 126 821 107 765 q 189 908 146 876 q 306 953 232 940 q 493 967 379 967 q 681 953 607 967 q 799 908 756 940 q 862 821 842 876 q 888 681 882 765 q 893 478 893 597 q 888 274 893 358 q 862 135 882 190 q 799 47 842 79 q 681 2 756 15 q 493 -11 607 -11 m 493 122 q 608 126 563 122 q 678 147 653 131 q 717 202 704 164 q 733 306 729 240 q 736 478 736 372 q 733 649 736 583 q 717 753 729 715 q 678 808 704 792 q 608 829 653 825 q 493 833 563 833 q 381 829 425 833 q 310 808 336 825 q 272 753 283 792 q 256 649 260 715 q 253 478 253 583 q 256 306 253 372 q 272 202 260 240 q 310 147 283 164 q 381 126 336 131 q 493 122 425 122 m 463 1065 l 282 1254 l 282 1263 l 435 1263 l 571 1072 l 571 1065 l 463 1065 z "},"Ở":{"ha":989,"x_min":96,"x_max":926,"o":"m 644 892 l 644 956 l 742 956 q 810 974 797 956 q 824 1043 824 992 l 824 1083 l 926 1083 l 926 1054 q 919 975 926 1007 q 893 925 913 943 q 838 899 874 907 q 742 892 801 892 l 644 892 m 493 -11 q 306 2 379 -11 q 189 47 232 15 q 126 135 146 79 q 101 274 107 190 q 96 478 96 358 q 101 681 96 597 q 126 821 107 765 q 189 908 146 876 q 306 953 232 940 q 493 967 379 967 q 681 953 607 967 q 799 908 756 940 q 862 821 842 876 q 888 681 882 765 q 893 478 893 597 q 888 274 893 358 q 862 135 882 190 q 799 47 842 79 q 681 2 756 15 q 493 -11 607 -11 m 493 122 q 608 126 563 122 q 678 147 653 131 q 717 202 704 164 q 733 306 729 240 q 736 478 736 372 q 733 649 736 583 q 717 753 729 715 q 678 808 704 792 q 608 829 653 825 q 493 833 563 833 q 381 829 425 833 q 310 808 336 825 q 272 753 283 792 q 256 649 260 715 q 253 478 253 583 q 256 306 253 372 q 272 202 260 240 q 310 147 283 164 q 381 126 336 131 q 493 122 425 122 m 424 1046 l 424 1058 q 429 1094 424 1079 q 449 1121 435 1110 q 486 1139 463 1132 l 515 1147 q 558 1162 544 1156 q 576 1176 572 1168 q 581 1200 581 1185 q 570 1234 581 1225 q 535 1246 560 1243 q 469 1249 511 1249 q 427 1248 453 1249 q 374 1246 401 1247 q 326 1242 347 1244 l 326 1314 q 408 1323 361 1319 q 493 1326 456 1326 q 594 1319 553 1326 q 658 1288 636 1313 q 679 1210 679 1263 q 671 1156 679 1176 q 643 1124 663 1136 q 590 1103 624 1113 l 560 1093 q 524 1081 535 1086 q 510 1069 513 1076 q 507 1046 507 1061 l 424 1046 z "},"Ỡ":{"ha":989,"x_min":96,"x_max":926,"o":"m 644 892 l 644 956 l 742 956 q 810 974 797 956 q 824 1043 824 992 l 824 1083 l 926 1083 l 926 1054 q 919 975 926 1007 q 893 925 913 943 q 838 899 874 907 q 742 892 801 892 l 644 892 m 493 -11 q 306 2 379 -11 q 189 47 232 15 q 126 135 146 79 q 101 274 107 190 q 96 478 96 358 q 101 681 96 597 q 126 821 107 765 q 189 908 146 876 q 306 953 232 940 q 493 967 379 967 q 681 953 607 967 q 799 908 756 940 q 862 821 842 876 q 888 681 882 765 q 893 478 893 597 q 888 274 893 358 q 862 135 882 190 q 799 47 842 79 q 681 2 756 15 q 493 -11 607 -11 m 493 122 q 608 126 563 122 q 678 147 653 131 q 717 202 704 164 q 733 306 729 240 q 736 478 736 372 q 733 649 736 583 q 717 753 729 715 q 678 808 704 792 q 608 829 653 825 q 493 833 563 833 q 381 829 425 833 q 310 808 336 825 q 272 753 283 792 q 256 649 260 715 q 253 478 253 583 q 256 306 253 372 q 272 202 260 240 q 310 147 283 164 q 381 126 336 131 q 493 122 425 122 m 251 1069 q 258 1165 251 1126 q 288 1222 264 1203 q 363 1242 313 1242 q 440 1232 401 1242 q 514 1211 478 1222 q 567 1195 542 1203 q 618 1188 593 1188 q 653 1202 649 1188 q 658 1257 658 1217 l 739 1257 q 733 1162 739 1200 q 703 1104 726 1124 q 629 1085 681 1085 q 551 1094 588 1085 q 479 1115 515 1104 q 423 1131 450 1124 q 374 1139 396 1139 q 339 1124 344 1139 q 333 1069 333 1110 l 251 1069 z "},"Ő":{"ha":989,"x_min":96,"x_max":893,"o":"m 493 -11 q 306 2 379 -11 q 189 47 232 15 q 126 135 146 79 q 101 274 107 190 q 96 478 96 358 q 101 681 96 597 q 126 821 107 765 q 189 908 146 876 q 306 953 232 940 q 493 967 379 967 q 681 953 607 967 q 799 908 756 940 q 862 821 842 876 q 888 681 882 765 q 893 478 893 597 q 888 274 893 358 q 862 135 882 190 q 799 47 842 79 q 681 2 756 15 q 493 -11 607 -11 m 493 122 q 608 126 563 122 q 678 147 653 131 q 717 202 704 164 q 733 306 729 240 q 736 478 736 372 q 733 649 736 583 q 717 753 729 715 q 678 808 704 792 q 608 829 653 825 q 493 833 563 833 q 381 829 425 833 q 310 808 336 825 q 272 753 283 792 q 256 649 260 715 q 253 478 253 583 q 256 306 253 372 q 272 202 260 240 q 310 147 283 164 q 381 126 336 131 q 493 122 425 122 m 303 1064 l 303 1071 l 425 1239 l 554 1239 l 554 1232 l 394 1064 l 303 1064 m 563 1064 l 563 1071 l 685 1239 l 817 1239 l 817 1232 l 656 1064 l 563 1064 z "},"Ȏ":{"ha":989,"x_min":96,"x_max":893,"o":"m 493 -11 q 306 2 379 -11 q 189 47 232 15 q 126 135 146 79 q 101 274 107 190 q 96 478 96 358 q 101 681 96 597 q 126 821 107 765 q 189 908 146 876 q 306 953 232 940 q 493 967 379 967 q 681 953 607 967 q 799 908 756 940 q 862 821 842 876 q 888 681 882 765 q 893 478 893 597 q 888 274 893 358 q 862 135 882 190 q 799 47 842 79 q 681 2 756 15 q 493 -11 607 -11 m 493 122 q 608 126 563 122 q 678 147 653 131 q 717 202 704 164 q 733 306 729 240 q 736 478 736 372 q 733 649 736 583 q 717 753 729 715 q 678 808 704 792 q 608 829 653 825 q 493 833 563 833 q 381 829 425 833 q 310 808 336 825 q 272 753 283 792 q 256 649 260 715 q 253 478 253 583 q 256 306 253 372 q 272 202 260 240 q 310 147 283 164 q 381 126 336 131 q 493 122 425 122 m 496 1272 q 604 1257 565 1272 q 663 1215 643 1242 q 687 1151 682 1188 q 692 1069 692 1114 l 603 1069 q 599 1131 603 1106 q 572 1170 594 1157 q 496 1183 550 1183 q 420 1170 443 1183 q 392 1131 397 1157 q 386 1069 386 1106 l 296 1069 q 301 1151 296 1114 q 326 1215 307 1188 q 386 1257 346 1242 q 496 1272 426 1272 z "},"Ō":{"ha":989,"x_min":96,"x_max":893,"o":"m 493 -11 q 306 2 379 -11 q 189 47 232 15 q 126 135 146 79 q 101 274 107 190 q 96 478 96 358 q 101 681 96 597 q 126 821 107 765 q 189 908 146 876 q 306 953 232 940 q 493 967 379 967 q 681 953 607 967 q 799 908 756 940 q 862 821 842 876 q 888 681 882 765 q 893 478 893 597 q 888 274 893 358 q 862 135 882 190 q 799 47 842 79 q 681 2 756 15 q 493 -11 607 -11 m 493 122 q 608 126 563 122 q 678 147 653 131 q 717 202 704 164 q 733 306 729 240 q 736 478 736 372 q 733 649 736 583 q 717 753 729 715 q 678 808 704 792 q 608 829 653 825 q 493 833 563 833 q 381 829 425 833 q 310 808 336 825 q 272 753 283 792 q 256 649 260 715 q 253 478 253 583 q 256 306 253 372 q 272 202 260 240 q 310 147 283 164 q 381 126 336 131 q 493 122 425 122 m 285 1103 l 285 1201 l 704 1201 l 704 1103 l 285 1103 z "},"Ǫ":{"ha":989,"x_min":96,"x_max":893,"o":"m 493 -11 q 306 2 379 -11 q 189 47 232 15 q 126 135 146 79 q 101 274 107 190 q 96 478 96 358 q 101 681 96 597 q 126 821 107 765 q 189 908 146 876 q 306 953 232 940 q 493 967 379 967 q 681 953 607 967 q 799 908 756 940 q 862 821 842 876 q 888 681 882 765 q 893 478 893 597 q 888 274 893 358 q 862 135 882 190 q 799 47 842 79 q 681 2 756 15 q 493 -11 607 -11 m 493 122 q 608 126 563 122 q 678 147 653 131 q 717 202 704 164 q 733 306 729 240 q 736 478 736 372 q 733 649 736 583 q 717 753 729 715 q 678 808 704 792 q 608 829 653 825 q 493 833 563 833 q 381 829 425 833 q 310 808 336 825 q 272 753 283 792 q 256 649 260 715 q 253 478 253 583 q 256 306 253 372 q 272 202 260 240 q 310 147 283 164 q 381 126 336 131 q 493 122 425 122 m 522 -278 q 432 -262 464 -278 q 388 -222 400 -247 q 375 -167 375 -197 q 404 -74 375 -122 q 479 14 433 -25 l 589 0 q 551 -35 571 -12 q 516 -85 531 -58 q 501 -135 501 -111 q 515 -172 501 -157 q 567 -187 528 -187 q 577 -187 571 -187 q 590 -185 583 -186 l 590 -274 q 558 -276 575 -275 q 522 -278 540 -278 z "},"Ø":{"ha":989,"x_min":96,"x_max":893,"o":"m 96 -76 l 760 1032 l 893 1032 l 228 -76 l 96 -76 m 493 -11 q 306 2 379 -11 q 189 47 232 15 q 126 135 146 79 q 101 274 107 190 q 96 478 96 358 q 101 681 96 597 q 126 821 107 765 q 189 908 146 876 q 306 953 232 940 q 493 967 379 967 q 681 953 607 967 q 799 908 756 940 q 862 821 842 876 q 888 681 882 765 q 893 478 893 597 q 888 274 893 358 q 862 135 882 190 q 799 47 842 79 q 681 2 756 15 q 493 -11 607 -11 m 493 122 q 608 126 563 122 q 678 147 653 131 q 717 202 704 164 q 733 306 729 240 q 736 478 736 372 q 733 649 736 583 q 717 753 729 715 q 678 808 704 792 q 608 829 653 825 q 493 833 563 833 q 381 829 425 833 q 310 808 336 825 q 272 753 283 792 q 256 649 260 715 q 253 478 253 583 q 256 306 253 372 q 272 202 260 240 q 310 147 283 164 q 381 126 336 131 q 493 122 425 122 z "},"Ǿ":{"ha":989,"x_min":96,"x_max":893,"o":"m 96 -76 l 760 1032 l 893 1032 l 228 -76 l 96 -76 m 493 -11 q 306 2 379 -11 q 189 47 232 15 q 126 135 146 79 q 101 274 107 190 q 96 478 96 358 q 101 681 96 597 q 126 821 107 765 q 189 908 146 876 q 306 953 232 940 q 493 967 379 967 q 681 953 607 967 q 799 908 756 940 q 862 821 842 876 q 888 681 882 765 q 893 478 893 597 q 888 274 893 358 q 862 135 882 190 q 799 47 842 79 q 681 2 756 15 q 493 -11 607 -11 m 493 122 q 608 126 563 122 q 678 147 653 131 q 717 202 704 164 q 733 306 729 240 q 736 478 736 372 q 733 649 736 583 q 717 753 729 715 q 678 808 704 792 q 608 829 653 825 q 493 833 563 833 q 381 829 425 833 q 310 808 336 825 q 272 753 283 792 q 256 649 260 715 q 253 478 253 583 q 256 306 253 372 q 272 202 260 240 q 310 147 283 164 q 381 126 336 131 q 493 122 425 122 m 408 1064 l 408 1071 l 543 1263 l 697 1263 l 697 1256 l 517 1064 l 408 1064 z "},"Õ":{"ha":989,"x_min":96,"x_max":893,"o":"m 493 -11 q 306 2 379 -11 q 189 47 232 15 q 126 135 146 79 q 101 274 107 190 q 96 478 96 358 q 101 681 96 597 q 126 821 107 765 q 189 908 146 876 q 306 953 232 940 q 493 967 379 967 q 681 953 607 967 q 799 908 756 940 q 862 821 842 876 q 888 681 882 765 q 893 478 893 597 q 888 274 893 358 q 862 135 882 190 q 799 47 842 79 q 681 2 756 15 q 493 -11 607 -11 m 493 122 q 608 126 563 122 q 678 147 653 131 q 717 202 704 164 q 733 306 729 240 q 736 478 736 372 q 733 649 736 583 q 717 753 729 715 q 678 808 704 792 q 608 829 653 825 q 493 833 563 833 q 381 829 425 833 q 310 808 336 825 q 272 753 283 792 q 256 649 260 715 q 253 478 253 583 q 256 306 253 372 q 272 202 260 240 q 310 147 283 164 q 381 126 336 131 q 493 122 425 122 m 251 1069 q 258 1165 251 1126 q 288 1222 264 1203 q 363 1242 313 1242 q 440 1232 401 1242 q 514 1211 478 1222 q 567 1195 542 1203 q 618 1188 593 1188 q 653 1202 649 1188 q 658 1257 658 1217 l 739 1257 q 733 1162 739 1200 q 703 1104 726 1124 q 629 1085 681 1085 q 551 1094 588 1085 q 479 1115 515 1104 q 423 1131 450 1124 q 374 1139 396 1139 q 339 1124 344 1139 q 333 1069 333 1110 l 251 1069 z "},"Ȭ":{"ha":989,"x_min":96,"x_max":893,"o":"m 493 -11 q 306 2 379 -11 q 189 47 232 15 q 126 135 146 79 q 101 274 107 190 q 96 478 96 358 q 101 681 96 597 q 126 821 107 765 q 189 908 146 876 q 306 953 232 940 q 493 967 379 967 q 681 953 607 967 q 799 908 756 940 q 862 821 842 876 q 888 681 882 765 q 893 478 893 597 q 888 274 893 358 q 862 135 882 190 q 799 47 842 79 q 681 2 756 15 q 493 -11 607 -11 m 493 122 q 608 126 563 122 q 678 147 653 131 q 717 202 704 164 q 733 306 729 240 q 736 478 736 372 q 733 649 736 583 q 717 753 729 715 q 678 808 704 792 q 608 829 653 825 q 493 833 563 833 q 381 829 425 833 q 310 808 336 825 q 272 753 283 792 q 256 649 260 715 q 253 478 253 583 q 256 306 253 372 q 272 202 260 240 q 310 147 283 164 q 381 126 336 131 q 493 122 425 122 m 251 1069 q 258 1165 251 1126 q 288 1222 264 1203 q 363 1242 313 1242 q 440 1232 401 1242 q 514 1211 478 1222 q 567 1195 542 1203 q 618 1188 593 1188 q 653 1202 649 1188 q 658 1257 658 1217 l 739 1257 q 733 1162 739 1200 q 703 1104 726 1124 q 629 1085 681 1085 q 551 1094 588 1085 q 479 1115 515 1104 q 423 1131 450 1124 q 374 1139 396 1139 q 339 1124 344 1139 q 333 1069 333 1110 l 251 1069 m 285 1350 l 285 1449 l 704 1449 l 704 1350 l 285 1350 z "},"Œ":{"ha":1429,"x_min":96,"x_max":1351,"o":"m 493 0 q 306 13 379 0 q 189 56 232 25 q 126 142 146 88 q 101 279 107 197 q 96 478 96 361 q 101 676 96 594 q 126 813 107 758 q 189 899 146 868 q 306 943 232 931 q 493 956 379 956 l 1351 956 l 1351 822 l 940 822 q 891 825 918 822 q 840 832 864 828 q 871 761 860 803 q 888 667 882 719 q 893 549 893 614 l 1286 549 l 1286 415 l 893 415 q 888 292 893 347 q 872 196 883 238 q 840 124 861 154 q 891 131 864 128 q 940 133 918 133 l 1351 133 l 1351 0 l 493 0 m 493 133 q 608 137 563 133 q 678 157 653 140 q 717 210 704 174 q 733 312 729 247 q 736 478 736 376 q 733 644 736 579 q 717 745 729 708 q 678 799 704 782 q 608 819 653 815 q 493 822 563 822 q 381 819 425 822 q 310 799 336 815 q 272 745 283 782 q 256 644 260 708 q 253 478 253 579 q 256 312 253 376 q 272 210 260 247 q 310 157 283 174 q 381 137 336 140 q 493 133 425 133 z "},"P":{"ha":903,"x_min":128,"x_max":838,"o":"m 128 0 l 128 956 l 556 956 q 701 933 646 956 q 787 870 757 911 q 827 772 817 829 q 838 646 838 715 q 828 524 838 581 q 788 426 818 468 q 701 360 758 383 q 551 336 644 336 l 285 336 l 285 0 l 128 0 m 285 469 l 492 469 q 596 478 557 469 q 652 507 635 486 q 675 561 669 528 q 681 646 681 594 q 676 731 681 697 q 653 785 671 765 q 599 814 636 806 q 496 822 561 822 l 285 822 l 285 469 z "},"Þ":{"ha":903,"x_min":128,"x_max":838,"o":"m 128 0 l 128 956 l 285 956 l 285 797 l 556 797 q 701 774 646 797 q 787 711 757 751 q 827 614 817 671 q 838 488 838 557 q 828 365 838 422 q 788 267 818 308 q 701 201 758 225 q 551 178 644 178 l 285 178 l 285 0 l 128 0 m 285 311 l 492 311 q 596 319 557 311 q 652 348 635 328 q 675 402 669 368 q 681 488 681 436 q 676 572 681 538 q 653 626 671 606 q 599 656 636 647 q 496 664 561 664 l 285 664 l 285 311 z "},"Q":{"ha":989,"x_min":96,"x_max":924,"o":"m 744 -160 l 422 303 l 589 303 l 924 -157 l 924 -160 l 744 -160 m 493 -11 q 306 2 379 -11 q 189 47 232 15 q 126 135 146 79 q 101 274 107 190 q 96 478 96 358 q 101 681 96 597 q 126 821 107 765 q 189 908 146 876 q 306 953 232 940 q 493 967 379 967 q 681 953 607 967 q 799 908 756 940 q 862 821 842 876 q 888 681 882 765 q 893 478 893 597 q 888 274 893 358 q 862 135 882 190 q 799 47 842 79 q 681 2 756 15 q 493 -11 607 -11 m 493 122 q 608 126 563 122 q 678 147 653 131 q 717 202 704 164 q 733 306 729 240 q 736 478 736 372 q 733 649 736 583 q 717 753 729 715 q 678 808 704 792 q 608 829 653 825 q 493 833 563 833 q 381 829 425 833 q 310 808 336 825 q 272 753 283 792 q 256 649 260 715 q 253 478 253 583 q 256 306 253 372 q 272 202 260 240 q 310 147 283 164 q 381 126 336 131 q 493 122 425 122 z "},"R":{"ha":943,"x_min":128,"x_max":865,"o":"m 128 0 l 128 956 l 574 956 q 719 935 664 956 q 803 874 775 914 q 840 780 831 835 q 850 660 850 725 q 841 556 850 613 q 802 453 832 500 q 708 386 772 407 l 865 0 l 699 0 l 546 390 l 586 369 q 563 365 576 365 q 532 364 550 364 l 285 364 l 285 0 l 128 0 m 285 497 l 507 497 q 610 506 572 497 q 665 535 647 515 q 688 585 683 554 q 693 660 693 615 q 688 737 693 706 q 667 787 683 768 q 613 814 650 806 q 513 822 576 822 l 285 822 l 285 497 z "},"Ŕ":{"ha":943,"x_min":128,"x_max":865,"o":"m 128 0 l 128 956 l 574 956 q 719 935 664 956 q 803 874 775 914 q 840 780 831 835 q 850 660 850 725 q 841 556 850 613 q 802 453 832 500 q 708 386 772 407 l 865 0 l 699 0 l 546 390 l 586 369 q 563 365 576 365 q 532 364 550 364 l 285 364 l 285 0 l 128 0 m 285 497 l 507 497 q 610 506 572 497 q 665 535 647 515 q 688 585 683 554 q 693 660 693 615 q 688 737 693 706 q 667 787 683 768 q 613 814 650 806 q 513 822 576 822 l 285 822 l 285 497 m 385 1064 l 385 1071 l 521 1263 l 674 1263 l 674 1256 l 493 1064 l 385 1064 z "},"Ř":{"ha":943,"x_min":128,"x_max":865,"o":"m 128 0 l 128 956 l 574 956 q 719 935 664 956 q 803 874 775 914 q 840 780 831 835 q 850 660 850 725 q 841 556 850 613 q 802 453 832 500 q 708 386 772 407 l 865 0 l 699 0 l 546 390 l 586 369 q 563 365 576 365 q 532 364 550 364 l 285 364 l 285 0 l 128 0 m 285 497 l 507 497 q 610 506 572 497 q 665 535 647 515 q 688 585 683 554 q 693 660 693 615 q 688 737 693 706 q 667 787 683 768 q 613 814 650 806 q 513 822 576 822 l 285 822 l 285 497 m 397 1064 l 260 1253 l 260 1261 l 358 1261 l 471 1135 l 583 1261 l 683 1261 l 683 1253 l 546 1064 l 397 1064 z "},"Ŗ":{"ha":943,"x_min":128,"x_max":865,"o":"m 128 0 l 128 956 l 574 956 q 719 935 664 956 q 803 874 775 914 q 840 780 831 835 q 850 660 850 725 q 841 556 850 613 q 802 453 832 500 q 708 386 772 407 l 865 0 l 699 0 l 546 390 l 586 369 q 563 365 576 365 q 532 364 550 364 l 285 364 l 285 0 l 128 0 m 285 497 l 507 497 q 610 506 572 497 q 665 535 647 515 q 688 585 683 554 q 693 660 693 615 q 688 737 693 706 q 667 787 683 768 q 613 814 650 806 q 513 822 576 822 l 285 822 l 285 497 m 371 -412 l 371 -349 q 425 -344 407 -349 q 451 -326 443 -339 q 458 -287 458 -312 l 458 -264 l 393 -264 l 393 -111 l 553 -111 l 553 -225 q 547 -319 553 -283 q 522 -376 540 -356 q 467 -405 503 -397 q 371 -412 431 -412 z "},"Ȑ":{"ha":943,"x_min":128,"x_max":865,"o":"m 128 0 l 128 956 l 574 956 q 719 935 664 956 q 803 874 775 914 q 840 780 831 835 q 850 660 850 725 q 841 556 850 613 q 802 453 832 500 q 708 386 772 407 l 865 0 l 699 0 l 546 390 l 586 369 q 563 365 576 365 q 532 364 550 364 l 285 364 l 285 0 l 128 0 m 285 497 l 507 497 q 610 506 572 497 q 665 535 647 515 q 688 585 683 554 q 693 660 693 615 q 688 737 693 706 q 667 787 683 768 q 613 814 650 806 q 513 822 576 822 l 285 822 l 285 497 m 678 1064 l 585 1064 l 425 1232 l 425 1239 l 556 1239 l 678 1072 l 678 1064 m 417 1064 l 325 1064 l 164 1232 l 164 1239 l 296 1239 l 417 1072 l 417 1064 z "},"Ṛ":{"ha":943,"x_min":128,"x_max":865,"o":"m 128 0 l 128 956 l 574 956 q 719 935 664 956 q 803 874 775 914 q 840 780 831 835 q 850 660 850 725 q 841 556 850 613 q 802 453 832 500 q 708 386 772 407 l 865 0 l 699 0 l 546 390 l 586 369 q 563 365 576 365 q 532 364 550 364 l 285 364 l 285 0 l 128 0 m 285 497 l 507 497 q 610 506 572 497 q 665 535 647 515 q 688 585 683 554 q 693 660 693 615 q 688 737 693 706 q 667 787 683 768 q 613 814 650 806 q 513 822 576 822 l 285 822 l 285 497 m 411 -271 l 411 -151 l 533 -151 l 533 -271 l 411 -271 z "},"Ȓ":{"ha":943,"x_min":128,"x_max":865,"o":"m 128 0 l 128 956 l 574 956 q 719 935 664 956 q 803 874 775 914 q 840 780 831 835 q 850 660 850 725 q 841 556 850 613 q 802 453 832 500 q 708 386 772 407 l 865 0 l 699 0 l 546 390 l 586 369 q 563 365 576 365 q 532 364 550 364 l 285 364 l 285 0 l 128 0 m 285 497 l 507 497 q 610 506 572 497 q 665 535 647 515 q 688 585 683 554 q 693 660 693 615 q 688 737 693 706 q 667 787 683 768 q 613 814 650 806 q 513 822 576 822 l 285 822 l 285 497 m 472 1272 q 581 1257 542 1272 q 639 1215 619 1242 q 663 1151 658 1188 q 668 1069 668 1114 l 579 1069 q 575 1131 579 1106 q 549 1170 571 1157 q 472 1183 526 1183 q 397 1170 419 1183 q 368 1131 374 1157 q 363 1069 363 1106 l 272 1069 q 278 1151 272 1114 q 303 1215 283 1188 q 363 1257 322 1242 q 472 1272 403 1272 z "},"S":{"ha":867,"x_min":83,"x_max":783,"o":"m 453 -11 q 340 -8 401 -11 q 219 -1 278 -6 q 111 10 160 4 l 111 139 q 216 131 161 135 q 321 124 271 126 q 407 122 371 122 q 522 129 481 122 q 589 151 564 136 q 613 179 606 163 q 623 219 621 196 q 625 269 625 242 q 622 332 625 307 q 610 371 619 357 q 579 391 600 385 q 525 401 558 397 l 297 428 q 188 456 231 436 q 123 510 146 476 q 92 589 100 543 q 83 690 83 635 q 108 838 83 783 q 180 920 133 892 q 290 958 226 949 q 432 967 354 967 q 543 963 486 967 q 651 955 600 960 q 735 942 701 950 l 735 815 q 653 825 700 821 q 557 831 607 829 q 464 833 507 833 q 348 827 392 833 q 281 807 304 821 q 247 765 253 792 q 242 697 242 738 q 248 624 242 650 q 277 589 254 599 q 347 574 300 579 l 575 547 q 653 534 618 543 q 715 504 688 525 q 757 444 742 483 q 772 400 767 425 q 780 345 776 375 q 783 278 783 315 q 767 146 783 199 q 723 62 751 93 q 653 15 694 31 q 561 -6 611 -1 q 453 -11 511 -11 z "},"Ś":{"ha":867,"x_min":83,"x_max":783,"o":"m 453 -11 q 340 -8 401 -11 q 219 -1 278 -6 q 111 10 160 4 l 111 139 q 216 131 161 135 q 321 124 271 126 q 407 122 371 122 q 522 129 481 122 q 589 151 564 136 q 613 179 606 163 q 623 219 621 196 q 625 269 625 242 q 622 332 625 307 q 610 371 619 357 q 579 391 600 385 q 525 401 558 397 l 297 428 q 188 456 231 436 q 123 510 146 476 q 92 589 100 543 q 83 690 83 635 q 108 838 83 783 q 180 920 133 892 q 290 958 226 949 q 432 967 354 967 q 543 963 486 967 q 651 955 600 960 q 735 942 701 950 l 735 815 q 653 825 700 821 q 557 831 607 829 q 464 833 507 833 q 348 827 392 833 q 281 807 304 821 q 247 765 253 792 q 242 697 242 738 q 248 624 242 650 q 277 589 254 599 q 347 574 300 579 l 575 547 q 653 534 618 543 q 715 504 688 525 q 757 444 742 483 q 772 400 767 425 q 780 345 776 375 q 783 278 783 315 q 767 146 783 199 q 723 62 751 93 q 653 15 694 31 q 561 -6 611 -1 q 453 -11 511 -11 m 347 1064 l 347 1071 l 483 1263 l 636 1263 l 636 1256 l 456 1064 l 347 1064 z "},"Ꞌ":{"ha":369,"x_min":115,"x_max":254,"o":"m 115 386 l 115 956 l 254 956 l 254 708 l 218 386 l 115 386 z "},"Š":{"ha":867,"x_min":83,"x_max":783,"o":"m 453 -11 q 340 -8 401 -11 q 219 -1 278 -6 q 111 10 160 4 l 111 139 q 216 131 161 135 q 321 124 271 126 q 407 122 371 122 q 522 129 481 122 q 589 151 564 136 q 613 179 606 163 q 623 219 621 196 q 625 269 625 242 q 622 332 625 307 q 610 371 619 357 q 579 391 600 385 q 525 401 558 397 l 297 428 q 188 456 231 436 q 123 510 146 476 q 92 589 100 543 q 83 690 83 635 q 108 838 83 783 q 180 920 133 892 q 290 958 226 949 q 432 967 354 967 q 543 963 486 967 q 651 955 600 960 q 735 942 701 950 l 735 815 q 653 825 700 821 q 557 831 607 829 q 464 833 507 833 q 348 827 392 833 q 281 807 304 821 q 247 765 253 792 q 242 697 242 738 q 248 624 242 650 q 277 589 254 599 q 347 574 300 579 l 575 547 q 653 534 618 543 q 715 504 688 525 q 757 444 742 483 q 772 400 767 425 q 780 345 776 375 q 783 278 783 315 q 767 146 783 199 q 723 62 751 93 q 653 15 694 31 q 561 -6 611 -1 q 453 -11 511 -11 m 360 1064 l 222 1253 l 222 1261 l 321 1261 l 433 1135 l 546 1261 l 646 1261 l 646 1253 l 508 1064 l 360 1064 z "},"Ş":{"ha":867,"x_min":83,"x_max":783,"o":"m 453 -11 q 340 -8 401 -11 q 219 -1 278 -6 q 111 10 160 4 l 111 139 q 216 131 161 135 q 321 124 271 126 q 407 122 371 122 q 522 129 481 122 q 589 151 564 136 q 613 179 606 163 q 623 219 621 196 q 625 269 625 242 q 622 332 625 307 q 610 371 619 357 q 579 391 600 385 q 525 401 558 397 l 297 428 q 188 456 231 436 q 123 510 146 476 q 92 589 100 543 q 83 690 83 635 q 108 838 83 783 q 180 920 133 892 q 290 958 226 949 q 432 967 354 967 q 543 963 486 967 q 651 955 600 960 q 735 942 701 950 l 735 815 q 653 825 700 821 q 557 831 607 829 q 464 833 507 833 q 348 827 392 833 q 281 807 304 821 q 247 765 253 792 q 242 697 242 738 q 248 624 242 650 q 277 589 254 599 q 347 574 300 579 l 575 547 q 653 534 618 543 q 715 504 688 525 q 757 444 742 483 q 772 400 767 425 q 780 345 776 375 q 783 278 783 315 q 767 146 783 199 q 723 62 751 93 q 653 15 694 31 q 561 -6 611 -1 q 453 -11 511 -11 m 292 -264 l 292 -257 l 393 25 l 492 25 l 492 18 l 435 -264 l 292 -264 z "},"Ŝ":{"ha":867,"x_min":83,"x_max":783,"o":"m 453 -11 q 340 -8 401 -11 q 219 -1 278 -6 q 111 10 160 4 l 111 139 q 216 131 161 135 q 321 124 271 126 q 407 122 371 122 q 522 129 481 122 q 589 151 564 136 q 613 179 606 163 q 623 219 621 196 q 625 269 625 242 q 622 332 625 307 q 610 371 619 357 q 579 391 600 385 q 525 401 558 397 l 297 428 q 188 456 231 436 q 123 510 146 476 q 92 589 100 543 q 83 690 83 635 q 108 838 83 783 q 180 920 133 892 q 290 958 226 949 q 432 967 354 967 q 543 963 486 967 q 651 955 600 960 q 735 942 701 950 l 735 815 q 653 825 700 821 q 557 831 607 829 q 464 833 507 833 q 348 827 392 833 q 281 807 304 821 q 247 765 253 792 q 242 697 242 738 q 248 624 242 650 q 277 589 254 599 q 347 574 300 579 l 575 547 q 653 534 618 543 q 715 504 688 525 q 757 444 742 483 q 772 400 767 425 q 780 345 776 375 q 783 278 783 315 q 767 146 783 199 q 723 62 751 93 q 653 15 694 31 q 561 -6 611 -1 q 453 -11 511 -11 m 222 1065 l 222 1074 l 360 1263 l 508 1263 l 646 1074 l 646 1065 l 546 1065 l 433 1190 l 321 1065 l 222 1065 z "},"Ș":{"ha":867,"x_min":83,"x_max":783,"o":"m 453 -11 q 340 -8 401 -11 q 219 -1 278 -6 q 111 10 160 4 l 111 139 q 216 131 161 135 q 321 124 271 126 q 407 122 371 122 q 522 129 481 122 q 589 151 564 136 q 613 179 606 163 q 623 219 621 196 q 625 269 625 242 q 622 332 625 307 q 610 371 619 357 q 579 391 600 385 q 525 401 558 397 l 297 428 q 188 456 231 436 q 123 510 146 476 q 92 589 100 543 q 83 690 83 635 q 108 838 83 783 q 180 920 133 892 q 290 958 226 949 q 432 967 354 967 q 543 963 486 967 q 651 955 600 960 q 735 942 701 950 l 735 815 q 653 825 700 821 q 557 831 607 829 q 464 833 507 833 q 348 827 392 833 q 281 807 304 821 q 247 765 253 792 q 242 697 242 738 q 248 624 242 650 q 277 589 254 599 q 347 574 300 579 l 575 547 q 653 534 618 543 q 715 504 688 525 q 757 444 742 483 q 772 400 767 425 q 780 345 776 375 q 783 278 783 315 q 767 146 783 199 q 723 62 751 93 q 653 15 694 31 q 561 -6 611 -1 q 453 -11 511 -11 m 332 -412 l 332 -349 q 386 -344 368 -349 q 412 -326 404 -339 q 419 -287 419 -312 l 419 -264 l 354 -264 l 354 -111 l 514 -111 l 514 -225 q 508 -319 514 -283 q 483 -376 501 -356 q 428 -405 464 -397 q 332 -412 392 -412 z "},"Ṣ":{"ha":867,"x_min":83,"x_max":783,"o":"m 453 -11 q 340 -8 401 -11 q 219 -1 278 -6 q 111 10 160 4 l 111 139 q 216 131 161 135 q 321 124 271 126 q 407 122 371 122 q 522 129 481 122 q 589 151 564 136 q 613 179 606 163 q 623 219 621 196 q 625 269 625 242 q 622 332 625 307 q 610 371 619 357 q 579 391 600 385 q 525 401 558 397 l 297 428 q 188 456 231 436 q 123 510 146 476 q 92 589 100 543 q 83 690 83 635 q 108 838 83 783 q 180 920 133 892 q 290 958 226 949 q 432 967 354 967 q 543 963 486 967 q 651 955 600 960 q 735 942 701 950 l 735 815 q 653 825 700 821 q 557 831 607 829 q 464 833 507 833 q 348 827 392 833 q 281 807 304 821 q 247 765 253 792 q 242 697 242 738 q 248 624 242 650 q 277 589 254 599 q 347 574 300 579 l 575 547 q 653 534 618 543 q 715 504 688 525 q 757 444 742 483 q 772 400 767 425 q 780 345 776 375 q 783 278 783 315 q 767 146 783 199 q 723 62 751 93 q 653 15 694 31 q 561 -6 611 -1 q 453 -11 511 -11 m 372 -271 l 372 -151 l 494 -151 l 494 -271 l 372 -271 z "},"ẞ":{"ha":993,"x_min":117,"x_max":903,"o":"m 576 -11 q 474 -3 531 -11 q 379 15 418 4 l 379 139 q 476 127 425 132 q 561 122 528 122 q 674 134 635 122 q 729 177 714 146 q 744 267 744 208 q 731 358 744 325 q 684 403 717 390 q 596 417 651 417 l 446 417 l 446 531 l 721 869 l 729 810 q 658 824 692 819 q 594 831 625 828 q 536 833 564 833 q 415 827 463 833 q 338 801 367 821 q 296 744 310 782 q 278 641 282 706 q 274 478 274 576 l 274 0 l 117 0 l 117 499 q 126 694 117 614 q 161 828 136 775 q 229 911 186 881 q 339 954 272 942 q 500 967 406 967 q 626 960 561 967 q 749 944 690 954 q 849 919 807 933 l 849 804 l 583 475 l 571 526 l 625 526 q 786 501 725 526 q 875 416 847 475 q 903 254 903 357 q 885 136 903 186 q 828 53 867 86 q 726 5 789 21 q 576 -11 664 -11 z "},"Ə":{"ha":961,"x_min":96,"x_max":865,"o":"m 479 -11 q 299 2 369 -11 q 186 47 228 15 q 125 135 144 79 q 101 274 106 190 q 96 478 96 358 l 96 549 l 708 549 q 700 678 707 626 q 675 762 693 731 q 626 808 657 793 q 544 828 594 824 q 419 833 493 833 q 311 829 371 833 q 208 817 251 825 l 208 944 q 284 956 240 951 q 374 964 328 961 q 460 967 419 967 q 638 953 565 967 q 755 908 710 940 q 824 822 800 876 q 857 682 849 767 q 865 478 865 597 q 860 274 865 358 q 835 135 854 190 q 774 47 817 79 q 660 2 732 15 q 479 -11 589 -11 m 479 122 q 582 125 542 122 q 647 142 622 128 q 685 188 672 157 q 702 274 697 219 q 708 415 707 329 l 253 415 q 258 274 254 329 q 276 188 263 219 q 313 142 289 157 q 378 125 338 128 q 479 122 419 122 z "},"T":{"ha":806,"x_min":35,"x_max":771,"o":"m 325 0 l 325 818 l 35 818 l 35 956 l 771 956 l 771 818 l 482 818 l 482 0 l 325 0 z "},"Ŧ":{"ha":806,"x_min":35,"x_max":771,"o":"m 65 399 l 65 519 l 742 519 l 742 399 l 65 399 m 325 0 l 325 818 l 35 818 l 35 956 l 771 956 l 771 818 l 482 818 l 482 0 l 325 0 z "},"Ť":{"ha":806,"x_min":35,"x_max":771,"o":"m 325 0 l 325 818 l 35 818 l 35 956 l 771 956 l 771 818 l 482 818 l 482 0 l 325 0 m 329 1064 l 192 1253 l 192 1261 l 290 1261 l 403 1135 l 515 1261 l 615 1261 l 615 1253 l 478 1064 l 329 1064 z "},"Ţ":{"ha":806,"x_min":35,"x_max":771,"o":"m 325 0 l 325 818 l 35 818 l 35 956 l 771 956 l 771 818 l 482 818 l 482 0 l 325 0 m 263 -264 l 263 -257 l 364 25 l 463 25 l 463 18 l 406 -264 l 263 -264 z "},"Ț":{"ha":806,"x_min":35,"x_max":771,"o":"m 325 0 l 325 818 l 35 818 l 35 956 l 771 956 l 771 818 l 482 818 l 482 0 l 325 0 m 301 -412 l 301 -349 q 356 -344 338 -349 q 381 -326 374 -339 q 389 -287 389 -312 l 389 -264 l 324 -264 l 324 -111 l 483 -111 l 483 -225 q 477 -319 483 -283 q 452 -376 471 -356 q 397 -405 433 -397 q 301 -412 361 -412 z "},"Ṭ":{"ha":806,"x_min":35,"x_max":771,"o":"m 325 0 l 325 818 l 35 818 l 35 956 l 771 956 l 771 818 l 482 818 l 482 0 l 325 0 m 342 -271 l 342 -151 l 464 -151 l 464 -271 l 342 -271 z "},"U":{"ha":978,"x_min":117,"x_max":860,"o":"m 489 -11 q 324 1 390 -11 q 216 40 257 13 q 153 117 175 68 q 124 242 132 167 q 117 422 117 317 l 117 956 l 274 956 l 274 374 q 279 243 274 293 q 304 167 285 193 q 368 131 324 140 q 489 122 413 122 q 610 131 567 122 q 673 167 653 140 q 698 243 693 193 q 703 374 703 293 l 703 956 l 860 956 l 860 422 q 852 242 860 317 q 824 117 844 167 q 762 40 803 68 q 654 1 721 13 q 489 -11 588 -11 z "},"Ú":{"ha":978,"x_min":117,"x_max":860,"o":"m 489 -11 q 324 1 390 -11 q 216 40 257 13 q 153 117 175 68 q 124 242 132 167 q 117 422 117 317 l 117 956 l 274 956 l 274 374 q 279 243 274 293 q 304 167 285 193 q 368 131 324 140 q 489 122 413 122 q 610 131 567 122 q 673 167 653 140 q 698 243 693 193 q 703 374 703 293 l 703 956 l 860 956 l 860 422 q 852 242 860 317 q 824 117 844 167 q 762 40 803 68 q 654 1 721 13 q 489 -11 588 -11 m 403 1064 l 403 1071 l 539 1263 l 692 1263 l 692 1256 l 511 1064 l 403 1064 z "},"Ŭ":{"ha":978,"x_min":117,"x_max":860,"o":"m 489 -11 q 324 1 390 -11 q 216 40 257 13 q 153 117 175 68 q 124 242 132 167 q 117 422 117 317 l 117 956 l 274 956 l 274 374 q 279 243 274 293 q 304 167 285 193 q 368 131 324 140 q 489 122 413 122 q 610 131 567 122 q 673 167 653 140 q 698 243 693 193 q 703 374 703 293 l 703 956 l 860 956 l 860 422 q 852 242 860 317 q 824 117 844 167 q 762 40 803 68 q 654 1 721 13 q 489 -11 588 -11 m 488 1051 q 379 1067 419 1051 q 320 1109 339 1082 q 296 1174 301 1136 q 290 1254 290 1211 l 379 1254 q 384 1193 379 1218 q 411 1154 389 1168 q 486 1140 433 1140 q 563 1154 540 1140 q 591 1193 586 1168 q 596 1254 596 1218 l 686 1254 q 681 1174 686 1211 q 656 1109 675 1136 q 596 1067 636 1082 q 488 1051 556 1051 z "},"Ǔ":{"ha":978,"x_min":117,"x_max":860,"o":"m 489 -11 q 324 1 390 -11 q 216 40 257 13 q 153 117 175 68 q 124 242 132 167 q 117 422 117 317 l 117 956 l 274 956 l 274 374 q 279 243 274 293 q 304 167 285 193 q 368 131 324 140 q 489 122 413 122 q 610 131 567 122 q 673 167 653 140 q 698 243 693 193 q 703 374 703 293 l 703 956 l 860 956 l 860 422 q 852 242 860 317 q 824 117 844 167 q 762 40 803 68 q 654 1 721 13 q 489 -11 588 -11 m 415 1064 l 278 1253 l 278 1261 l 376 1261 l 489 1135 l 601 1261 l 701 1261 l 701 1253 l 564 1064 l 415 1064 z "},"Û":{"ha":978,"x_min":117,"x_max":860,"o":"m 489 -11 q 324 1 390 -11 q 216 40 257 13 q 153 117 175 68 q 124 242 132 167 q 117 422 117 317 l 117 956 l 274 956 l 274 374 q 279 243 274 293 q 304 167 285 193 q 368 131 324 140 q 489 122 413 122 q 610 131 567 122 q 673 167 653 140 q 698 243 693 193 q 703 374 703 293 l 703 956 l 860 956 l 860 422 q 852 242 860 317 q 824 117 844 167 q 762 40 803 68 q 654 1 721 13 q 489 -11 588 -11 m 278 1065 l 278 1074 l 415 1263 l 564 1263 l 701 1074 l 701 1065 l 601 1065 l 489 1190 l 376 1065 l 278 1065 z "},"Ȕ":{"ha":978,"x_min":117,"x_max":860,"o":"m 489 -11 q 324 1 390 -11 q 216 40 257 13 q 153 117 175 68 q 124 242 132 167 q 117 422 117 317 l 117 956 l 274 956 l 274 374 q 279 243 274 293 q 304 167 285 193 q 368 131 324 140 q 489 122 413 122 q 610 131 567 122 q 673 167 653 140 q 698 243 693 193 q 703 374 703 293 l 703 956 l 860 956 l 860 422 q 852 242 860 317 q 824 117 844 167 q 762 40 803 68 q 654 1 721 13 q 489 -11 588 -11 m 694 1064 l 601 1064 l 442 1232 l 442 1239 l 572 1239 l 694 1072 l 694 1064 m 433 1064 l 342 1064 l 181 1232 l 181 1239 l 313 1239 l 433 1072 l 433 1064 z "},"Ü":{"ha":978,"x_min":117,"x_max":860,"o":"m 489 -11 q 324 1 390 -11 q 216 40 257 13 q 153 117 175 68 q 124 242 132 167 q 117 422 117 317 l 117 956 l 274 956 l 274 374 q 279 243 274 293 q 304 167 285 193 q 368 131 324 140 q 489 122 413 122 q 610 131 567 122 q 673 167 653 140 q 698 243 693 193 q 703 374 703 293 l 703 956 l 860 956 l 860 422 q 852 242 860 317 q 824 117 844 167 q 762 40 803 68 q 654 1 721 13 q 489 -11 588 -11 m 281 1103 l 281 1229 l 413 1229 l 413 1103 l 281 1103 m 565 1103 l 565 1229 l 697 1229 l 697 1103 l 565 1103 z "},"Ǘ":{"ha":978,"x_min":117,"x_max":860,"o":"m 489 -11 q 324 1 390 -11 q 216 40 257 13 q 153 117 175 68 q 124 242 132 167 q 117 422 117 317 l 117 956 l 274 956 l 274 374 q 279 243 274 293 q 304 167 285 193 q 368 131 324 140 q 489 122 413 122 q 610 131 567 122 q 673 167 653 140 q 698 243 693 193 q 703 374 703 293 l 703 956 l 860 956 l 860 422 q 852 242 860 317 q 824 117 844 167 q 762 40 803 68 q 654 1 721 13 q 489 -11 588 -11 m 281 1103 l 281 1229 l 413 1229 l 413 1103 l 281 1103 m 565 1103 l 565 1229 l 697 1229 l 697 1103 l 565 1103 m 403 1314 l 403 1321 l 539 1513 l 692 1513 l 692 1506 l 511 1314 l 403 1314 z "},"Ǚ":{"ha":978,"x_min":117,"x_max":860,"o":"m 489 -11 q 324 1 390 -11 q 216 40 257 13 q 153 117 175 68 q 124 242 132 167 q 117 422 117 317 l 117 956 l 274 956 l 274 374 q 279 243 274 293 q 304 167 285 193 q 368 131 324 140 q 489 122 413 122 q 610 131 567 122 q 673 167 653 140 q 698 243 693 193 q 703 374 703 293 l 703 956 l 860 956 l 860 422 q 852 242 860 317 q 824 117 844 167 q 762 40 803 68 q 654 1 721 13 q 489 -11 588 -11 m 281 1103 l 281 1229 l 413 1229 l 413 1103 l 281 1103 m 565 1103 l 565 1229 l 697 1229 l 697 1103 l 565 1103 m 415 1314 l 278 1503 l 278 1511 l 376 1511 l 489 1385 l 601 1511 l 701 1511 l 701 1503 l 564 1314 l 415 1314 z "},"Ǜ":{"ha":978,"x_min":117,"x_max":860,"o":"m 489 -11 q 324 1 390 -11 q 216 40 257 13 q 153 117 175 68 q 124 242 132 167 q 117 422 117 317 l 117 956 l 274 956 l 274 374 q 279 243 274 293 q 304 167 285 193 q 368 131 324 140 q 489 122 413 122 q 610 131 567 122 q 673 167 653 140 q 698 243 693 193 q 703 374 703 293 l 703 956 l 860 956 l 860 422 q 852 242 860 317 q 824 117 844 167 q 762 40 803 68 q 654 1 721 13 q 489 -11 588 -11 m 281 1103 l 281 1229 l 413 1229 l 413 1103 l 281 1103 m 565 1103 l 565 1229 l 697 1229 l 697 1103 l 565 1103 m 457 1315 l 276 1504 l 276 1513 l 429 1513 l 565 1322 l 565 1315 l 457 1315 z "},"Ǖ":{"ha":978,"x_min":117,"x_max":860,"o":"m 489 -11 q 324 1 390 -11 q 216 40 257 13 q 153 117 175 68 q 124 242 132 167 q 117 422 117 317 l 117 956 l 274 956 l 274 374 q 279 243 274 293 q 304 167 285 193 q 368 131 324 140 q 489 122 413 122 q 610 131 567 122 q 673 167 653 140 q 698 243 693 193 q 703 374 703 293 l 703 956 l 860 956 l 860 422 q 852 242 860 317 q 824 117 844 167 q 762 40 803 68 q 654 1 721 13 q 489 -11 588 -11 m 281 1103 l 281 1229 l 413 1229 l 413 1103 l 281 1103 m 565 1103 l 565 1229 l 697 1229 l 697 1103 l 565 1103 m 279 1353 l 279 1451 l 699 1451 l 699 1353 l 279 1353 z "},"Ụ":{"ha":978,"x_min":117,"x_max":860,"o":"m 489 -11 q 324 1 390 -11 q 216 40 257 13 q 153 117 175 68 q 124 242 132 167 q 117 422 117 317 l 117 956 l 274 956 l 274 374 q 279 243 274 293 q 304 167 285 193 q 368 131 324 140 q 489 122 413 122 q 610 131 567 122 q 673 167 653 140 q 698 243 693 193 q 703 374 703 293 l 703 956 l 860 956 l 860 422 q 852 242 860 317 q 824 117 844 167 q 762 40 803 68 q 654 1 721 13 q 489 -11 588 -11 m 429 -271 l 429 -151 l 551 -151 l 551 -271 l 429 -271 z "},"Ù":{"ha":978,"x_min":117,"x_max":860,"o":"m 489 -11 q 324 1 390 -11 q 216 40 257 13 q 153 117 175 68 q 124 242 132 167 q 117 422 117 317 l 117 956 l 274 956 l 274 374 q 279 243 274 293 q 304 167 285 193 q 368 131 324 140 q 489 122 413 122 q 610 131 567 122 q 673 167 653 140 q 698 243 693 193 q 703 374 703 293 l 703 956 l 860 956 l 860 422 q 852 242 860 317 q 824 117 844 167 q 762 40 803 68 q 654 1 721 13 q 489 -11 588 -11 m 457 1065 l 276 1254 l 276 1263 l 429 1263 l 565 1072 l 565 1065 l 457 1065 z "},"Ủ":{"ha":978,"x_min":117,"x_max":860,"o":"m 489 -11 q 324 1 390 -11 q 216 40 257 13 q 153 117 175 68 q 124 242 132 167 q 117 422 117 317 l 117 956 l 274 956 l 274 374 q 279 243 274 293 q 304 167 285 193 q 368 131 324 140 q 489 122 413 122 q 610 131 567 122 q 673 167 653 140 q 698 243 693 193 q 703 374 703 293 l 703 956 l 860 956 l 860 422 q 852 242 860 317 q 824 117 844 167 q 762 40 803 68 q 654 1 721 13 q 489 -11 588 -11 m 418 1046 l 418 1058 q 424 1094 418 1079 q 443 1121 429 1110 q 481 1139 457 1132 l 510 1147 q 553 1162 539 1156 q 571 1176 567 1168 q 575 1200 575 1185 q 565 1234 575 1225 q 530 1246 554 1243 q 464 1249 506 1249 q 422 1248 447 1249 q 369 1246 396 1247 q 321 1242 342 1244 l 321 1314 q 403 1323 356 1319 q 488 1326 450 1326 q 589 1319 547 1326 q 652 1288 631 1313 q 674 1210 674 1263 q 665 1156 674 1176 q 638 1124 657 1136 q 585 1103 618 1113 l 554 1093 q 518 1081 529 1086 q 504 1069 507 1076 q 501 1046 501 1061 l 418 1046 z "},"Ư":{"ha":978,"x_min":117,"x_max":1029,"o":"m 749 892 l 749 956 l 846 956 q 915 974 901 956 q 928 1043 928 992 l 928 1083 l 1029 1083 l 1029 1054 q 1023 975 1029 1007 q 997 925 1017 943 q 942 899 978 907 q 846 892 906 892 l 749 892 m 489 -11 q 324 1 390 -11 q 216 40 257 13 q 153 117 175 68 q 124 242 132 167 q 117 422 117 317 l 117 956 l 274 956 l 274 374 q 279 243 274 293 q 304 167 285 193 q 368 131 324 140 q 489 122 413 122 q 610 131 567 122 q 673 167 653 140 q 698 243 693 193 q 703 374 703 293 l 703 956 l 860 956 l 860 422 q 852 242 860 317 q 824 117 844 167 q 762 40 803 68 q 654 1 721 13 q 489 -11 588 -11 z "},"Ứ":{"ha":978,"x_min":117,"x_max":1029,"o":"m 749 892 l 749 956 l 846 956 q 915 974 901 956 q 928 1043 928 992 l 928 1083 l 1029 1083 l 1029 1054 q 1023 975 1029 1007 q 997 925 1017 943 q 942 899 978 907 q 846 892 906 892 l 749 892 m 489 -11 q 324 1 390 -11 q 216 40 257 13 q 153 117 175 68 q 124 242 132 167 q 117 422 117 317 l 117 956 l 274 956 l 274 374 q 279 243 274 293 q 304 167 285 193 q 368 131 324 140 q 489 122 413 122 q 610 131 567 122 q 673 167 653 140 q 698 243 693 193 q 703 374 703 293 l 703 956 l 860 956 l 860 422 q 852 242 860 317 q 824 117 844 167 q 762 40 803 68 q 654 1 721 13 q 489 -11 588 -11 m 403 1064 l 403 1071 l 539 1263 l 692 1263 l 692 1256 l 511 1064 l 403 1064 z "},"Ự":{"ha":978,"x_min":117,"x_max":1029,"o":"m 749 892 l 749 956 l 846 956 q 915 974 901 956 q 928 1043 928 992 l 928 1083 l 1029 1083 l 1029 1054 q 1023 975 1029 1007 q 997 925 1017 943 q 942 899 978 907 q 846 892 906 892 l 749 892 m 489 -11 q 324 1 390 -11 q 216 40 257 13 q 153 117 175 68 q 124 242 132 167 q 117 422 117 317 l 117 956 l 274 956 l 274 374 q 279 243 274 293 q 304 167 285 193 q 368 131 324 140 q 489 122 413 122 q 610 131 567 122 q 673 167 653 140 q 698 243 693 193 q 703 374 703 293 l 703 956 l 860 956 l 860 422 q 852 242 860 317 q 824 117 844 167 q 762 40 803 68 q 654 1 721 13 q 489 -11 588 -11 m 429 -271 l 429 -151 l 551 -151 l 551 -271 l 429 -271 z "},"Ừ":{"ha":978,"x_min":117,"x_max":1029,"o":"m 749 892 l 749 956 l 846 956 q 915 974 901 956 q 928 1043 928 992 l 928 1083 l 1029 1083 l 1029 1054 q 1023 975 1029 1007 q 997 925 1017 943 q 942 899 978 907 q 846 892 906 892 l 749 892 m 489 -11 q 324 1 390 -11 q 216 40 257 13 q 153 117 175 68 q 124 242 132 167 q 117 422 117 317 l 117 956 l 274 956 l 274 374 q 279 243 274 293 q 304 167 285 193 q 368 131 324 140 q 489 122 413 122 q 610 131 567 122 q 673 167 653 140 q 698 243 693 193 q 703 374 703 293 l 703 956 l 860 956 l 860 422 q 852 242 860 317 q 824 117 844 167 q 762 40 803 68 q 654 1 721 13 q 489 -11 588 -11 m 457 1065 l 276 1254 l 276 1263 l 429 1263 l 565 1072 l 565 1065 l 457 1065 z "},"Ử":{"ha":978,"x_min":117,"x_max":1029,"o":"m 749 892 l 749 956 l 846 956 q 915 974 901 956 q 928 1043 928 992 l 928 1083 l 1029 1083 l 1029 1054 q 1023 975 1029 1007 q 997 925 1017 943 q 942 899 978 907 q 846 892 906 892 l 749 892 m 489 -11 q 324 1 390 -11 q 216 40 257 13 q 153 117 175 68 q 124 242 132 167 q 117 422 117 317 l 117 956 l 274 956 l 274 374 q 279 243 274 293 q 304 167 285 193 q 368 131 324 140 q 489 122 413 122 q 610 131 567 122 q 673 167 653 140 q 698 243 693 193 q 703 374 703 293 l 703 956 l 860 956 l 860 422 q 852 242 860 317 q 824 117 844 167 q 762 40 803 68 q 654 1 721 13 q 489 -11 588 -11 m 418 1046 l 418 1058 q 424 1094 418 1079 q 443 1121 429 1110 q 481 1139 457 1132 l 510 1147 q 553 1162 539 1156 q 571 1176 567 1168 q 575 1200 575 1185 q 565 1234 575 1225 q 530 1246 554 1243 q 464 1249 506 1249 q 422 1248 447 1249 q 369 1246 396 1247 q 321 1242 342 1244 l 321 1314 q 403 1323 356 1319 q 488 1326 450 1326 q 589 1319 547 1326 q 652 1288 631 1313 q 674 1210 674 1263 q 665 1156 674 1176 q 638 1124 657 1136 q 585 1103 618 1113 l 554 1093 q 518 1081 529 1086 q 504 1069 507 1076 q 501 1046 501 1061 l 418 1046 z "},"Ữ":{"ha":978,"x_min":117,"x_max":1029,"o":"m 749 892 l 749 956 l 846 956 q 915 974 901 956 q 928 1043 928 992 l 928 1083 l 1029 1083 l 1029 1054 q 1023 975 1029 1007 q 997 925 1017 943 q 942 899 978 907 q 846 892 906 892 l 749 892 m 489 -11 q 324 1 390 -11 q 216 40 257 13 q 153 117 175 68 q 124 242 132 167 q 117 422 117 317 l 117 956 l 274 956 l 274 374 q 279 243 274 293 q 304 167 285 193 q 368 131 324 140 q 489 122 413 122 q 610 131 567 122 q 673 167 653 140 q 698 243 693 193 q 703 374 703 293 l 703 956 l 860 956 l 860 422 q 852 242 860 317 q 824 117 844 167 q 762 40 803 68 q 654 1 721 13 q 489 -11 588 -11 m 246 1069 q 252 1165 246 1126 q 283 1222 258 1203 q 357 1242 307 1242 q 434 1232 396 1242 q 508 1211 472 1222 q 562 1195 536 1203 q 613 1188 588 1188 q 648 1202 643 1188 q 653 1257 653 1217 l 733 1257 q 727 1162 733 1200 q 698 1104 721 1124 q 624 1085 675 1085 q 546 1094 582 1085 q 474 1115 510 1104 q 417 1131 444 1124 q 368 1139 390 1139 q 333 1124 339 1139 q 328 1069 328 1110 l 246 1069 z "},"Ű":{"ha":978,"x_min":117,"x_max":860,"o":"m 489 -11 q 324 1 390 -11 q 216 40 257 13 q 153 117 175 68 q 124 242 132 167 q 117 422 117 317 l 117 956 l 274 956 l 274 374 q 279 243 274 293 q 304 167 285 193 q 368 131 324 140 q 489 122 413 122 q 610 131 567 122 q 673 167 653 140 q 698 243 693 193 q 703 374 703 293 l 703 956 l 860 956 l 860 422 q 852 242 860 317 q 824 117 844 167 q 762 40 803 68 q 654 1 721 13 q 489 -11 588 -11 m 297 1064 l 297 1071 l 419 1239 l 549 1239 l 549 1232 l 389 1064 l 297 1064 m 557 1064 l 557 1071 l 679 1239 l 811 1239 l 811 1232 l 650 1064 l 557 1064 z "},"Ȗ":{"ha":978,"x_min":117,"x_max":860,"o":"m 489 -11 q 324 1 390 -11 q 216 40 257 13 q 153 117 175 68 q 124 242 132 167 q 117 422 117 317 l 117 956 l 274 956 l 274 374 q 279 243 274 293 q 304 167 285 193 q 368 131 324 140 q 489 122 413 122 q 610 131 567 122 q 673 167 653 140 q 698 243 693 193 q 703 374 703 293 l 703 956 l 860 956 l 860 422 q 852 242 860 317 q 824 117 844 167 q 762 40 803 68 q 654 1 721 13 q 489 -11 588 -11 m 490 1272 q 599 1257 560 1272 q 657 1215 638 1242 q 681 1151 676 1188 q 686 1069 686 1114 l 597 1069 q 593 1131 597 1106 q 567 1170 589 1157 q 490 1183 544 1183 q 415 1170 438 1183 q 386 1131 392 1157 q 381 1069 381 1106 l 290 1069 q 296 1151 290 1114 q 321 1215 301 1188 q 381 1257 340 1242 q 490 1272 421 1272 z "},"Ū":{"ha":978,"x_min":117,"x_max":860,"o":"m 489 -11 q 324 1 390 -11 q 216 40 257 13 q 153 117 175 68 q 124 242 132 167 q 117 422 117 317 l 117 956 l 274 956 l 274 374 q 279 243 274 293 q 304 167 285 193 q 368 131 324 140 q 489 122 413 122 q 610 131 567 122 q 673 167 653 140 q 698 243 693 193 q 703 374 703 293 l 703 956 l 860 956 l 860 422 q 852 242 860 317 q 824 117 844 167 q 762 40 803 68 q 654 1 721 13 q 489 -11 588 -11 m 279 1103 l 279 1201 l 699 1201 l 699 1103 l 279 1103 z "},"Ų":{"ha":978,"x_min":117,"x_max":860,"o":"m 489 -11 q 324 1 390 -11 q 216 40 257 13 q 153 117 175 68 q 124 242 132 167 q 117 422 117 317 l 117 956 l 274 956 l 274 374 q 279 243 274 293 q 304 167 285 193 q 368 131 324 140 q 489 122 413 122 q 610 131 567 122 q 673 167 653 140 q 698 243 693 193 q 703 374 703 293 l 703 956 l 860 956 l 860 422 q 852 242 860 317 q 824 117 844 167 q 762 40 803 68 q 654 1 721 13 q 489 -11 588 -11 m 519 -278 q 429 -262 461 -278 q 385 -222 397 -247 q 372 -167 372 -197 q 401 -74 372 -122 q 476 14 431 -25 l 586 0 q 548 -35 568 -12 q 513 -85 528 -58 q 499 -135 499 -111 q 512 -172 499 -157 q 564 -187 525 -187 q 574 -187 568 -187 q 588 -185 581 -186 l 588 -274 q 555 -276 572 -275 q 519 -278 538 -278 z "},"Ů":{"ha":978,"x_min":117,"x_max":860,"o":"m 489 -11 q 324 1 390 -11 q 216 40 257 13 q 153 117 175 68 q 124 242 132 167 q 117 422 117 317 l 117 956 l 274 956 l 274 374 q 279 243 274 293 q 304 167 285 193 q 368 131 324 140 q 489 122 413 122 q 610 131 567 122 q 673 167 653 140 q 698 243 693 193 q 703 374 703 293 l 703 956 l 860 956 l 860 422 q 852 242 860 317 q 824 117 844 167 q 762 40 803 68 q 654 1 721 13 q 489 -11 588 -11 m 488 1044 q 383 1053 421 1044 q 328 1081 344 1063 q 306 1129 311 1100 q 301 1199 301 1158 q 306 1268 301 1239 q 328 1316 311 1297 q 383 1344 344 1335 q 488 1354 421 1354 q 593 1344 554 1354 q 649 1316 632 1335 q 672 1268 667 1297 q 676 1199 676 1239 q 672 1129 676 1158 q 649 1081 667 1100 q 593 1053 632 1063 q 488 1044 554 1044 m 488 1115 q 558 1122 538 1115 q 583 1148 579 1129 q 588 1199 588 1167 q 583 1249 588 1231 q 558 1275 579 1268 q 488 1282 538 1282 q 418 1275 439 1282 q 393 1249 397 1268 q 389 1199 389 1231 q 393 1148 389 1167 q 418 1122 397 1129 q 488 1115 439 1115 z "},"Ũ":{"ha":978,"x_min":117,"x_max":860,"o":"m 489 -11 q 324 1 390 -11 q 216 40 257 13 q 153 117 175 68 q 124 242 132 167 q 117 422 117 317 l 117 956 l 274 956 l 274 374 q 279 243 274 293 q 304 167 285 193 q 368 131 324 140 q 489 122 413 122 q 610 131 567 122 q 673 167 653 140 q 698 243 693 193 q 703 374 703 293 l 703 956 l 860 956 l 860 422 q 852 242 860 317 q 824 117 844 167 q 762 40 803 68 q 654 1 721 13 q 489 -11 588 -11 m 246 1069 q 252 1165 246 1126 q 283 1222 258 1203 q 357 1242 307 1242 q 434 1232 396 1242 q 508 1211 472 1222 q 562 1195 536 1203 q 613 1188 588 1188 q 648 1202 643 1188 q 653 1257 653 1217 l 733 1257 q 727 1162 733 1200 q 698 1104 721 1124 q 624 1085 675 1085 q 546 1094 582 1085 q 474 1115 510 1104 q 417 1131 444 1124 q 368 1139 390 1139 q 333 1124 339 1139 q 328 1069 328 1110 l 246 1069 z "},"V":{"ha":921,"x_min":32,"x_max":888,"o":"m 357 0 l 32 956 l 194 956 l 460 172 l 467 172 l 729 956 l 888 956 l 563 0 l 357 0 z "},"W":{"ha":1374,"x_min":42,"x_max":1332,"o":"m 289 0 l 42 956 l 200 956 l 392 190 l 399 190 l 608 956 l 772 956 l 985 190 l 993 190 l 1175 956 l 1332 956 l 1085 0 l 893 0 l 690 724 l 685 724 l 481 0 l 289 0 z "},"Ẃ":{"ha":1374,"x_min":42,"x_max":1332,"o":"m 289 0 l 42 956 l 200 956 l 392 190 l 399 190 l 608 956 l 772 956 l 985 190 l 993 190 l 1175 956 l 1332 956 l 1085 0 l 893 0 l 690 724 l 685 724 l 481 0 l 289 0 m 600 1064 l 600 1071 l 736 1263 l 889 1263 l 889 1256 l 708 1064 l 600 1064 z "},"Ŵ":{"ha":1374,"x_min":42,"x_max":1332,"o":"m 289 0 l 42 956 l 200 956 l 392 190 l 399 190 l 608 956 l 772 956 l 985 190 l 993 190 l 1175 956 l 1332 956 l 1085 0 l 893 0 l 690 724 l 685 724 l 481 0 l 289 0 m 475 1065 l 475 1074 l 613 1263 l 761 1263 l 899 1074 l 899 1065 l 799 1065 l 686 1190 l 574 1065 l 475 1065 z "},"Ẅ":{"ha":1374,"x_min":42,"x_max":1332,"o":"m 289 0 l 42 956 l 200 956 l 392 190 l 399 190 l 608 956 l 772 956 l 985 190 l 993 190 l 1175 956 l 1332 956 l 1085 0 l 893 0 l 690 724 l 685 724 l 481 0 l 289 0 m 478 1103 l 478 1229 l 610 1229 l 610 1103 l 478 1103 m 763 1103 l 763 1229 l 894 1229 l 894 1103 l 763 1103 z "},"Ẁ":{"ha":1374,"x_min":42,"x_max":1332,"o":"m 289 0 l 42 956 l 200 956 l 392 190 l 399 190 l 608 956 l 772 956 l 985 190 l 993 190 l 1175 956 l 1332 956 l 1085 0 l 893 0 l 690 724 l 685 724 l 481 0 l 289 0 m 654 1065 l 474 1254 l 474 1263 l 626 1263 l 763 1072 l 763 1065 l 654 1065 z "},"X":{"ha":938,"x_min":32,"x_max":906,"o":"m 32 0 l 374 479 l 38 956 l 221 956 l 467 610 l 478 610 l 722 956 l 901 956 l 565 483 l 906 0 l 722 0 l 471 356 l 460 356 l 210 0 l 32 0 z "},"Y":{"ha":854,"x_min":10,"x_max":843,"o":"m 347 0 l 347 351 l 10 956 l 176 956 l 425 507 l 435 507 l 681 956 l 843 956 l 504 351 l 504 0 l 347 0 z "},"Ý":{"ha":854,"x_min":10,"x_max":843,"o":"m 347 0 l 347 351 l 10 956 l 176 956 l 425 507 l 435 507 l 681 956 l 843 956 l 504 351 l 504 0 l 347 0 m 340 1064 l 340 1071 l 476 1263 l 629 1263 l 629 1256 l 449 1064 l 340 1064 z "},"Ŷ":{"ha":854,"x_min":10,"x_max":843,"o":"m 347 0 l 347 351 l 10 956 l 176 956 l 425 507 l 435 507 l 681 956 l 843 956 l 504 351 l 504 0 l 347 0 m 215 1065 l 215 1074 l 353 1263 l 501 1263 l 639 1074 l 639 1065 l 539 1065 l 426 1190 l 314 1065 l 215 1065 z "},"Ÿ":{"ha":854,"x_min":10,"x_max":843,"o":"m 347 0 l 347 351 l 10 956 l 176 956 l 425 507 l 435 507 l 681 956 l 843 956 l 504 351 l 504 0 l 347 0 m 218 1103 l 218 1229 l 350 1229 l 350 1103 l 218 1103 m 503 1103 l 503 1229 l 635 1229 l 635 1103 l 503 1103 z "},"Ỵ":{"ha":854,"x_min":10,"x_max":843,"o":"m 347 0 l 347 351 l 10 956 l 176 956 l 425 507 l 435 507 l 681 956 l 843 956 l 504 351 l 504 0 l 347 0 m 367 -271 l 367 -151 l 489 -151 l 489 -271 l 367 -271 z "},"Ỳ":{"ha":854,"x_min":10,"x_max":843,"o":"m 347 0 l 347 351 l 10 956 l 176 956 l 425 507 l 435 507 l 681 956 l 843 956 l 504 351 l 504 0 l 347 0 m 394 1065 l 214 1254 l 214 1263 l 367 1263 l 503 1072 l 503 1065 l 394 1065 z "},"Ỷ":{"ha":854,"x_min":10,"x_max":843,"o":"m 347 0 l 347 351 l 10 956 l 176 956 l 425 507 l 435 507 l 681 956 l 843 956 l 504 351 l 504 0 l 347 0 m 357 1046 l 357 1058 q 363 1094 357 1079 q 382 1121 368 1110 q 419 1139 396 1132 l 449 1147 q 492 1162 478 1156 q 510 1176 506 1168 q 514 1200 514 1185 q 503 1234 514 1225 q 469 1246 493 1243 q 403 1249 444 1249 q 360 1248 386 1249 q 308 1246 335 1247 q 260 1242 281 1244 l 260 1314 q 342 1323 294 1319 q 426 1326 389 1326 q 528 1319 486 1326 q 591 1288 569 1313 q 613 1210 613 1263 q 604 1156 613 1176 q 576 1124 596 1136 q 524 1103 557 1113 l 493 1093 q 457 1081 468 1086 q 443 1069 446 1076 q 440 1046 440 1061 l 357 1046 z "},"Ȳ":{"ha":854,"x_min":10,"x_max":843,"o":"m 347 0 l 347 351 l 10 956 l 176 956 l 425 507 l 435 507 l 681 956 l 843 956 l 504 351 l 504 0 l 347 0 m 217 1103 l 217 1201 l 636 1201 l 636 1103 l 217 1103 z "},"Ỹ":{"ha":854,"x_min":10,"x_max":843,"o":"m 347 0 l 347 351 l 10 956 l 176 956 l 425 507 l 435 507 l 681 956 l 843 956 l 504 351 l 504 0 l 347 0 m 183 1069 q 190 1165 183 1126 q 220 1222 196 1203 q 294 1242 244 1242 q 372 1232 333 1242 q 446 1211 410 1222 q 499 1195 474 1203 q 550 1188 525 1188 q 585 1202 581 1188 q 590 1257 590 1217 l 671 1257 q 665 1162 671 1200 q 635 1104 658 1124 q 561 1085 613 1085 q 483 1094 519 1085 q 411 1115 447 1104 q 355 1131 382 1124 q 306 1139 328 1139 q 271 1124 276 1139 q 265 1069 265 1110 l 183 1069 z "},"Z":{"ha":846,"x_min":69,"x_max":779,"o":"m 69 0 l 69 126 l 574 822 l 85 822 l 85 956 l 772 956 l 772 832 l 265 132 l 779 132 l 779 0 l 69 0 z "},"Ź":{"ha":846,"x_min":69,"x_max":779,"o":"m 69 0 l 69 126 l 574 822 l 85 822 l 85 956 l 772 956 l 772 832 l 265 132 l 779 132 l 779 0 l 69 0 m 336 1064 l 336 1071 l 472 1263 l 625 1263 l 625 1256 l 444 1064 l 336 1064 z "},"Ž":{"ha":846,"x_min":69,"x_max":779,"o":"m 69 0 l 69 126 l 574 822 l 85 822 l 85 956 l 772 956 l 772 832 l 265 132 l 779 132 l 779 0 l 69 0 m 349 1064 l 211 1253 l 211 1261 l 310 1261 l 422 1135 l 535 1261 l 635 1261 l 635 1253 l 497 1064 l 349 1064 z "},"Ż":{"ha":846,"x_min":69,"x_max":779,"o":"m 69 0 l 69 126 l 574 822 l 85 822 l 85 956 l 772 956 l 772 832 l 265 132 l 779 132 l 779 0 l 69 0 m 356 1103 l 356 1229 l 488 1229 l 488 1103 l 356 1103 z "},"Ẓ":{"ha":846,"x_min":69,"x_max":779,"o":"m 69 0 l 69 126 l 574 822 l 85 822 l 85 956 l 772 956 l 772 832 l 265 132 l 779 132 l 779 0 l 69 0 m 363 -271 l 363 -151 l 485 -151 l 485 -271 l 363 -271 z "},"a":{"ha":786,"x_min":69,"x_max":676,"o":"m 290 -11 q 169 8 218 -11 q 94 73 119 28 q 69 196 69 118 q 89 326 69 278 q 156 394 108 374 q 289 415 203 415 q 330 415 303 415 q 392 413 357 414 q 463 412 428 413 q 528 410 499 411 l 528 443 q 521 528 528 497 q 492 573 514 558 q 431 592 471 588 q 326 596 390 596 q 255 594 296 596 q 175 589 214 592 q 115 582 136 586 l 115 699 q 240 715 172 710 q 376 719 308 719 q 509 710 456 719 q 596 679 563 700 q 646 625 629 658 q 669 545 663 592 q 676 439 676 499 l 676 0 l 540 0 l 535 92 l 526 92 q 463 24 503 47 q 378 -5 424 1 q 290 -11 332 -11 m 356 108 q 419 113 390 108 q 469 130 447 118 q 503 163 490 142 q 522 217 515 186 q 528 289 528 247 l 528 314 l 325 314 q 255 307 279 314 q 222 278 231 300 q 214 210 214 256 q 224 145 214 167 q 265 116 233 124 q 356 108 296 108 z "},"á":{"ha":786,"x_min":69,"x_max":676,"o":"m 290 -11 q 169 8 218 -11 q 94 73 119 28 q 69 196 69 118 q 89 326 69 278 q 156 394 108 374 q 289 415 203 415 q 330 415 303 415 q 392 413 357 414 q 463 412 428 413 q 528 410 499 411 l 528 443 q 521 528 528 497 q 492 573 514 558 q 431 592 471 588 q 326 596 390 596 q 255 594 296 596 q 175 589 214 592 q 115 582 136 586 l 115 699 q 240 715 172 710 q 376 719 308 719 q 509 710 456 719 q 596 679 563 700 q 646 625 629 658 q 669 545 663 592 q 676 439 676 499 l 676 0 l 540 0 l 535 92 l 526 92 q 463 24 503 47 q 378 -5 424 1 q 290 -11 332 -11 m 356 108 q 419 113 390 108 q 469 130 447 118 q 503 163 490 142 q 522 217 515 186 q 528 289 528 247 l 528 314 l 325 314 q 255 307 279 314 q 222 278 231 300 q 214 210 214 256 q 224 145 214 167 q 265 116 233 124 q 356 108 296 108 m 274 817 l 274 824 l 410 1015 l 563 1015 l 563 1008 l 382 817 l 274 817 z "},"ă":{"ha":786,"x_min":69,"x_max":676,"o":"m 290 -11 q 169 8 218 -11 q 94 73 119 28 q 69 196 69 118 q 89 326 69 278 q 156 394 108 374 q 289 415 203 415 q 330 415 303 415 q 392 413 357 414 q 463 412 428 413 q 528 410 499 411 l 528 443 q 521 528 528 497 q 492 573 514 558 q 431 592 471 588 q 326 596 390 596 q 255 594 296 596 q 175 589 214 592 q 115 582 136 586 l 115 699 q 240 715 172 710 q 376 719 308 719 q 509 710 456 719 q 596 679 563 700 q 646 625 629 658 q 669 545 663 592 q 676 439 676 499 l 676 0 l 540 0 l 535 92 l 526 92 q 463 24 503 47 q 378 -5 424 1 q 290 -11 332 -11 m 356 108 q 419 113 390 108 q 469 130 447 118 q 503 163 490 142 q 522 217 515 186 q 528 289 528 247 l 528 314 l 325 314 q 255 307 279 314 q 222 278 231 300 q 214 210 214 256 q 224 145 214 167 q 265 116 233 124 q 356 108 296 108 m 393 806 q 285 821 325 806 q 226 863 244 836 q 201 927 207 890 q 196 1008 196 964 l 285 1008 q 290 947 285 972 q 317 908 294 921 q 392 894 339 894 q 469 908 446 894 q 497 947 492 921 q 501 1008 501 972 l 592 1008 q 586 927 592 964 q 561 863 581 890 q 501 821 542 836 q 393 806 461 806 z "},"ắ":{"ha":786,"x_min":69,"x_max":676,"o":"m 290 -11 q 169 8 218 -11 q 94 73 119 28 q 69 196 69 118 q 89 326 69 278 q 156 394 108 374 q 289 415 203 415 q 330 415 303 415 q 392 413 357 414 q 463 412 428 413 q 528 410 499 411 l 528 443 q 521 528 528 497 q 492 573 514 558 q 431 592 471 588 q 326 596 390 596 q 255 594 296 596 q 175 589 214 592 q 115 582 136 586 l 115 699 q 240 715 172 710 q 376 719 308 719 q 509 710 456 719 q 596 679 563 700 q 646 625 629 658 q 669 545 663 592 q 676 439 676 499 l 676 0 l 540 0 l 535 92 l 526 92 q 463 24 503 47 q 378 -5 424 1 q 290 -11 332 -11 m 356 108 q 419 113 390 108 q 469 130 447 118 q 503 163 490 142 q 522 217 515 186 q 528 289 528 247 l 528 314 l 325 314 q 255 307 279 314 q 222 278 231 300 q 214 210 214 256 q 224 145 214 167 q 265 116 233 124 q 356 108 296 108 m 393 806 q 285 821 325 806 q 226 863 244 836 q 201 927 207 890 q 196 1008 196 964 l 285 1008 q 290 947 285 972 q 317 908 294 921 q 392 894 339 894 q 469 908 446 894 q 497 947 492 921 q 501 1008 501 972 l 592 1008 q 586 927 592 964 q 561 863 581 890 q 501 821 542 836 q 393 806 461 806 m 274 1054 l 274 1061 l 408 1251 l 563 1251 l 563 1244 l 382 1054 l 274 1054 z "},"ặ":{"ha":786,"x_min":69,"x_max":676,"o":"m 290 -11 q 169 8 218 -11 q 94 73 119 28 q 69 196 69 118 q 89 326 69 278 q 156 394 108 374 q 289 415 203 415 q 330 415 303 415 q 392 413 357 414 q 463 412 428 413 q 528 410 499 411 l 528 443 q 521 528 528 497 q 492 573 514 558 q 431 592 471 588 q 326 596 390 596 q 255 594 296 596 q 175 589 214 592 q 115 582 136 586 l 115 699 q 240 715 172 710 q 376 719 308 719 q 509 710 456 719 q 596 679 563 700 q 646 625 629 658 q 669 545 663 592 q 676 439 676 499 l 676 0 l 540 0 l 535 92 l 526 92 q 463 24 503 47 q 378 -5 424 1 q 290 -11 332 -11 m 356 108 q 419 113 390 108 q 469 130 447 118 q 503 163 490 142 q 522 217 515 186 q 528 289 528 247 l 528 314 l 325 314 q 255 307 279 314 q 222 278 231 300 q 214 210 214 256 q 224 145 214 167 q 265 116 233 124 q 356 108 296 108 m 333 -271 l 333 -151 l 456 -151 l 456 -271 l 333 -271 m 393 806 q 285 821 325 806 q 226 863 244 836 q 201 927 207 890 q 196 1008 196 964 l 285 1008 q 290 947 285 972 q 317 908 294 921 q 392 894 339 894 q 469 908 446 894 q 497 947 492 921 q 501 1008 501 972 l 592 1008 q 586 927 592 964 q 561 863 581 890 q 501 821 542 836 q 393 806 461 806 z "},"ằ":{"ha":786,"x_min":69,"x_max":676,"o":"m 290 -11 q 169 8 218 -11 q 94 73 119 28 q 69 196 69 118 q 89 326 69 278 q 156 394 108 374 q 289 415 203 415 q 330 415 303 415 q 392 413 357 414 q 463 412 428 413 q 528 410 499 411 l 528 443 q 521 528 528 497 q 492 573 514 558 q 431 592 471 588 q 326 596 390 596 q 255 594 296 596 q 175 589 214 592 q 115 582 136 586 l 115 699 q 240 715 172 710 q 376 719 308 719 q 509 710 456 719 q 596 679 563 700 q 646 625 629 658 q 669 545 663 592 q 676 439 676 499 l 676 0 l 540 0 l 535 92 l 526 92 q 463 24 503 47 q 378 -5 424 1 q 290 -11 332 -11 m 356 108 q 419 113 390 108 q 469 130 447 118 q 503 163 490 142 q 522 217 515 186 q 528 289 528 247 l 528 314 l 325 314 q 255 307 279 314 q 222 278 231 300 q 214 210 214 256 q 224 145 214 167 q 265 116 233 124 q 356 108 296 108 m 393 806 q 285 821 325 806 q 226 863 244 836 q 201 927 207 890 q 196 1008 196 964 l 286 1008 q 290 947 286 972 q 317 908 294 921 q 392 894 339 894 q 469 908 446 894 q 497 947 492 921 q 501 1008 501 972 l 592 1008 q 586 927 592 964 q 561 863 581 890 q 501 821 542 836 q 393 806 461 806 m 375 1054 l 194 1244 l 194 1251 l 347 1251 l 483 1061 l 483 1054 l 375 1054 z "},"ẳ":{"ha":786,"x_min":69,"x_max":676,"o":"m 290 -11 q 169 8 218 -11 q 94 73 119 28 q 69 196 69 118 q 89 326 69 278 q 156 394 108 374 q 289 415 203 415 q 330 415 303 415 q 392 413 357 414 q 463 412 428 413 q 528 410 499 411 l 528 443 q 521 528 528 497 q 492 573 514 558 q 431 592 471 588 q 326 596 390 596 q 255 594 296 596 q 175 589 214 592 q 115 582 136 586 l 115 699 q 240 715 172 710 q 376 719 308 719 q 509 710 456 719 q 596 679 563 700 q 646 625 629 658 q 669 545 663 592 q 676 439 676 499 l 676 0 l 540 0 l 535 92 l 526 92 q 463 24 503 47 q 378 -5 424 1 q 290 -11 332 -11 m 356 108 q 419 113 390 108 q 469 130 447 118 q 503 163 490 142 q 522 217 515 186 q 528 289 528 247 l 528 314 l 325 314 q 255 307 279 314 q 222 278 231 300 q 214 210 214 256 q 224 145 214 167 q 265 116 233 124 q 356 108 296 108 m 392 806 q 285 821 325 806 q 226 863 244 836 q 201 927 207 890 q 196 1008 196 964 l 285 1008 q 290 947 285 972 q 317 908 294 921 q 392 894 339 894 q 469 908 446 894 q 497 947 492 921 q 501 1008 501 972 l 592 1008 q 586 927 592 964 q 561 863 581 890 q 501 821 542 836 q 392 806 461 806 m 324 1036 l 324 1049 q 329 1085 324 1069 q 349 1111 335 1100 q 388 1129 363 1122 l 417 1138 q 458 1152 444 1146 q 476 1167 472 1158 q 481 1190 481 1175 q 470 1224 481 1215 q 435 1235 460 1233 q 369 1238 411 1238 q 328 1237 353 1238 q 276 1235 303 1236 q 226 1231 249 1233 l 226 1304 q 308 1313 261 1310 q 393 1317 356 1317 q 495 1310 454 1317 q 558 1278 536 1303 q 581 1200 581 1253 q 572 1147 581 1167 q 544 1115 564 1126 q 490 1093 524 1103 l 460 1083 q 424 1072 436 1076 q 410 1059 413 1067 q 407 1036 407 1051 l 324 1036 z "},"ẵ":{"ha":786,"x_min":69,"x_max":676,"o":"m 290 -11 q 169 8 218 -11 q 94 73 119 28 q 69 196 69 118 q 89 326 69 278 q 156 394 108 374 q 289 415 203 415 q 330 415 303 415 q 392 413 357 414 q 463 412 428 413 q 528 410 499 411 l 528 443 q 521 528 528 497 q 492 573 514 558 q 431 592 471 588 q 326 596 390 596 q 255 594 296 596 q 175 589 214 592 q 115 582 136 586 l 115 699 q 240 715 172 710 q 376 719 308 719 q 509 710 456 719 q 596 679 563 700 q 646 625 629 658 q 669 545 663 592 q 676 439 676 499 l 676 0 l 540 0 l 535 92 l 526 92 q 463 24 503 47 q 378 -5 424 1 q 290 -11 332 -11 m 356 108 q 419 113 390 108 q 469 130 447 118 q 503 163 490 142 q 522 217 515 186 q 528 289 528 247 l 528 314 l 325 314 q 255 307 279 314 q 222 278 231 300 q 214 210 214 256 q 224 145 214 167 q 265 116 233 124 q 356 108 296 108 m 392 806 q 284 821 324 806 q 225 863 244 836 q 201 927 206 890 q 196 1008 196 964 l 285 1008 q 290 947 285 972 q 317 908 294 921 q 392 894 339 894 q 469 908 446 894 q 497 947 492 921 q 501 1008 501 972 l 592 1008 q 586 927 592 964 q 561 863 581 890 q 501 821 542 836 q 392 806 461 806 m 149 1060 q 155 1155 149 1117 q 185 1213 161 1193 q 260 1232 210 1232 q 337 1222 299 1232 q 411 1201 375 1213 q 465 1185 439 1192 q 515 1178 490 1178 q 551 1192 546 1178 q 556 1247 556 1207 l 636 1247 q 630 1152 636 1190 q 601 1094 624 1114 q 526 1075 578 1075 q 449 1085 485 1075 q 376 1106 413 1094 q 320 1122 347 1114 q 271 1129 293 1129 q 236 1114 242 1129 q 231 1060 231 1099 l 149 1060 z "},"ǎ":{"ha":786,"x_min":69,"x_max":676,"o":"m 290 -11 q 169 8 218 -11 q 94 73 119 28 q 69 196 69 118 q 89 326 69 278 q 156 394 108 374 q 289 415 203 415 q 330 415 303 415 q 392 413 357 414 q 463 412 428 413 q 528 410 499 411 l 528 443 q 521 528 528 497 q 492 573 514 558 q 431 592 471 588 q 326 596 390 596 q 255 594 296 596 q 175 589 214 592 q 115 582 136 586 l 115 699 q 240 715 172 710 q 376 719 308 719 q 509 710 456 719 q 596 679 563 700 q 646 625 629 658 q 669 545 663 592 q 676 439 676 499 l 676 0 l 540 0 l 535 92 l 526 92 q 463 24 503 47 q 378 -5 424 1 q 290 -11 332 -11 m 356 108 q 419 113 390 108 q 469 130 447 118 q 503 163 490 142 q 522 217 515 186 q 528 289 528 247 l 528 314 l 325 314 q 255 307 279 314 q 222 278 231 300 q 214 210 214 256 q 224 145 214 167 q 265 116 233 124 q 356 108 296 108 m 321 817 l 183 1006 l 183 1014 l 282 1014 l 394 888 l 507 1014 l 607 1014 l 607 1006 l 469 817 l 321 817 z "},"â":{"ha":786,"x_min":69,"x_max":676,"o":"m 290 -11 q 169 8 218 -11 q 94 73 119 28 q 69 196 69 118 q 89 326 69 278 q 156 394 108 374 q 289 415 203 415 q 330 415 303 415 q 392 413 357 414 q 463 412 428 413 q 528 410 499 411 l 528 443 q 521 528 528 497 q 492 573 514 558 q 431 592 471 588 q 326 596 390 596 q 255 594 296 596 q 175 589 214 592 q 115 582 136 586 l 115 699 q 240 715 172 710 q 376 719 308 719 q 509 710 456 719 q 596 679 563 700 q 646 625 629 658 q 669 545 663 592 q 676 439 676 499 l 676 0 l 540 0 l 535 92 l 526 92 q 463 24 503 47 q 378 -5 424 1 q 290 -11 332 -11 m 356 108 q 419 113 390 108 q 469 130 447 118 q 503 163 490 142 q 522 217 515 186 q 528 289 528 247 l 528 314 l 325 314 q 255 307 279 314 q 222 278 231 300 q 214 210 214 256 q 224 145 214 167 q 265 116 233 124 q 356 108 296 108 m 183 817 l 183 826 l 321 1015 l 469 1015 l 607 826 l 607 817 l 507 817 l 394 943 l 282 817 l 183 817 z "},"ấ":{"ha":786,"x_min":69,"x_max":676,"o":"m 290 -11 q 169 8 218 -11 q 94 73 119 28 q 69 196 69 118 q 89 326 69 278 q 156 394 108 374 q 289 415 203 415 q 330 415 303 415 q 392 413 357 414 q 463 412 428 413 q 528 410 499 411 l 528 443 q 521 528 528 497 q 492 573 514 558 q 431 592 471 588 q 326 596 390 596 q 255 594 296 596 q 175 589 214 592 q 115 582 136 586 l 115 699 q 240 715 172 710 q 376 719 308 719 q 509 710 456 719 q 596 679 563 700 q 646 625 629 658 q 669 545 663 592 q 676 439 676 499 l 676 0 l 540 0 l 535 92 l 526 92 q 463 24 503 47 q 378 -5 424 1 q 290 -11 332 -11 m 356 108 q 419 113 390 108 q 469 130 447 118 q 503 163 490 142 q 522 217 515 186 q 528 289 528 247 l 528 314 l 325 314 q 255 307 279 314 q 222 278 231 300 q 214 210 214 256 q 224 145 214 167 q 265 116 233 124 q 356 108 296 108 m 183 817 l 183 826 l 321 1015 l 469 1015 l 607 826 l 607 817 l 507 817 l 394 943 l 282 817 l 183 817 m 274 1064 l 274 1071 l 410 1263 l 563 1263 l 563 1256 l 382 1064 l 274 1064 z "},"ậ":{"ha":786,"x_min":69,"x_max":676,"o":"m 290 -11 q 169 8 218 -11 q 94 73 119 28 q 69 196 69 118 q 89 326 69 278 q 156 394 108 374 q 289 415 203 415 q 330 415 303 415 q 392 413 357 414 q 463 412 428 413 q 528 410 499 411 l 528 443 q 521 528 528 497 q 492 573 514 558 q 431 592 471 588 q 326 596 390 596 q 255 594 296 596 q 175 589 214 592 q 115 582 136 586 l 115 699 q 240 715 172 710 q 376 719 308 719 q 509 710 456 719 q 596 679 563 700 q 646 625 629 658 q 669 545 663 592 q 676 439 676 499 l 676 0 l 540 0 l 535 92 l 526 92 q 463 24 503 47 q 378 -5 424 1 q 290 -11 332 -11 m 356 108 q 419 113 390 108 q 469 130 447 118 q 503 163 490 142 q 522 217 515 186 q 528 289 528 247 l 528 314 l 325 314 q 255 307 279 314 q 222 278 231 300 q 214 210 214 256 q 224 145 214 167 q 265 116 233 124 q 356 108 296 108 m 333 -271 l 333 -151 l 456 -151 l 456 -271 l 333 -271 m 183 817 l 183 826 l 321 1015 l 469 1015 l 607 826 l 607 817 l 507 817 l 394 943 l 282 817 l 183 817 z "},"ầ":{"ha":786,"x_min":69,"x_max":676,"o":"m 290 -11 q 169 8 218 -11 q 94 73 119 28 q 69 196 69 118 q 89 326 69 278 q 156 394 108 374 q 289 415 203 415 q 330 415 303 415 q 392 413 357 414 q 463 412 428 413 q 528 410 499 411 l 528 443 q 521 528 528 497 q 492 573 514 558 q 431 592 471 588 q 326 596 390 596 q 255 594 296 596 q 175 589 214 592 q 115 582 136 586 l 115 699 q 240 715 172 710 q 376 719 308 719 q 509 710 456 719 q 596 679 563 700 q 646 625 629 658 q 669 545 663 592 q 676 439 676 499 l 676 0 l 540 0 l 535 92 l 526 92 q 463 24 503 47 q 378 -5 424 1 q 290 -11 332 -11 m 356 108 q 419 113 390 108 q 469 130 447 118 q 503 163 490 142 q 522 217 515 186 q 528 289 528 247 l 528 314 l 325 314 q 255 307 279 314 q 222 278 231 300 q 214 210 214 256 q 224 145 214 167 q 265 116 233 124 q 356 108 296 108 m 183 817 l 183 826 l 321 1015 l 469 1015 l 607 826 l 607 817 l 507 817 l 394 943 l 282 817 l 183 817 m 375 1064 l 194 1254 l 194 1261 l 349 1261 l 485 1071 l 485 1064 l 375 1064 z "},"ẩ":{"ha":786,"x_min":69,"x_max":676,"o":"m 290 -11 q 169 8 218 -11 q 94 73 119 28 q 69 196 69 118 q 89 326 69 278 q 156 394 108 374 q 289 415 203 415 q 330 415 303 415 q 392 413 357 414 q 463 412 428 413 q 528 410 499 411 l 528 443 q 521 528 528 497 q 492 573 514 558 q 431 592 471 588 q 326 596 390 596 q 255 594 296 596 q 175 589 214 592 q 115 582 136 586 l 115 699 q 240 715 172 710 q 376 719 308 719 q 509 710 456 719 q 596 679 563 700 q 646 625 629 658 q 669 545 663 592 q 676 439 676 499 l 676 0 l 540 0 l 535 92 l 526 92 q 463 24 503 47 q 378 -5 424 1 q 290 -11 332 -11 m 356 108 q 419 113 390 108 q 469 130 447 118 q 503 163 490 142 q 522 217 515 186 q 528 289 528 247 l 528 314 l 325 314 q 255 307 279 314 q 222 278 231 300 q 214 210 214 256 q 224 145 214 167 q 265 116 233 124 q 356 108 296 108 m 183 817 l 183 826 l 321 1015 l 469 1015 l 607 826 l 607 817 l 507 817 l 394 943 l 282 817 l 183 817 m 325 1046 l 325 1058 q 331 1094 325 1079 q 349 1121 336 1110 q 388 1139 363 1132 l 417 1147 q 458 1162 444 1156 q 477 1176 472 1168 q 482 1200 482 1185 q 472 1234 482 1225 q 437 1246 461 1243 q 371 1249 413 1249 q 328 1248 353 1249 q 276 1246 303 1247 q 228 1242 249 1244 l 228 1314 q 310 1323 263 1319 q 394 1326 357 1326 q 495 1319 454 1326 q 558 1288 536 1313 q 581 1210 581 1263 q 572 1156 581 1176 q 544 1124 564 1136 q 490 1103 525 1113 l 461 1093 q 425 1081 436 1086 q 411 1069 414 1076 q 408 1046 408 1061 l 325 1046 z "},"ẫ":{"ha":786,"x_min":69,"x_max":676,"o":"m 290 -11 q 169 8 218 -11 q 94 73 119 28 q 69 196 69 118 q 89 326 69 278 q 156 394 108 374 q 289 415 203 415 q 330 415 303 415 q 392 413 357 414 q 463 412 428 413 q 528 410 499 411 l 528 443 q 521 528 528 497 q 492 573 514 558 q 431 592 471 588 q 326 596 390 596 q 255 594 296 596 q 175 589 214 592 q 115 582 136 586 l 115 699 q 240 715 172 710 q 376 719 308 719 q 509 710 456 719 q 596 679 563 700 q 646 625 629 658 q 669 545 663 592 q 676 439 676 499 l 676 0 l 540 0 l 535 92 l 526 92 q 463 24 503 47 q 378 -5 424 1 q 290 -11 332 -11 m 356 108 q 419 113 390 108 q 469 130 447 118 q 503 163 490 142 q 522 217 515 186 q 528 289 528 247 l 528 314 l 325 314 q 255 307 279 314 q 222 278 231 300 q 214 210 214 256 q 224 145 214 167 q 265 116 233 124 q 356 108 296 108 m 182 817 l 182 826 l 319 1015 l 468 1015 l 607 826 l 607 817 l 506 817 l 393 943 l 282 817 l 182 817 m 149 1069 q 155 1165 149 1126 q 185 1222 161 1203 q 260 1242 210 1242 q 337 1232 299 1242 q 411 1211 375 1222 q 465 1195 439 1203 q 515 1188 490 1188 q 551 1202 546 1188 q 556 1257 556 1217 l 636 1257 q 630 1162 636 1200 q 601 1104 624 1124 q 526 1085 578 1085 q 449 1094 485 1085 q 376 1115 413 1104 q 320 1131 347 1124 q 271 1139 293 1139 q 236 1124 242 1139 q 231 1069 231 1110 l 149 1069 z "},"ȁ":{"ha":786,"x_min":69,"x_max":676,"o":"m 290 -11 q 169 8 218 -11 q 94 73 119 28 q 69 196 69 118 q 89 326 69 278 q 156 394 108 374 q 289 415 203 415 q 330 415 303 415 q 392 413 357 414 q 463 412 428 413 q 528 410 499 411 l 528 443 q 521 528 528 497 q 492 573 514 558 q 431 592 471 588 q 326 596 390 596 q 255 594 296 596 q 175 589 214 592 q 115 582 136 586 l 115 699 q 240 715 172 710 q 376 719 308 719 q 509 710 456 719 q 596 679 563 700 q 646 625 629 658 q 669 545 663 592 q 676 439 676 499 l 676 0 l 540 0 l 535 92 l 526 92 q 463 24 503 47 q 378 -5 424 1 q 290 -11 332 -11 m 356 108 q 419 113 390 108 q 469 130 447 118 q 503 163 490 142 q 522 217 515 186 q 528 289 528 247 l 528 314 l 325 314 q 255 307 279 314 q 222 278 231 300 q 214 210 214 256 q 224 145 214 167 q 265 116 233 124 q 356 108 296 108 m 596 817 l 503 817 l 343 985 l 343 992 l 474 992 l 596 825 l 596 817 m 335 817 l 243 817 l 82 985 l 82 992 l 214 992 l 335 825 l 335 817 z "},"ä":{"ha":786,"x_min":69,"x_max":676,"o":"m 290 -11 q 169 8 218 -11 q 94 73 119 28 q 69 196 69 118 q 89 326 69 278 q 156 394 108 374 q 289 415 203 415 q 330 415 303 415 q 392 413 357 414 q 463 412 428 413 q 528 410 499 411 l 528 443 q 521 528 528 497 q 492 573 514 558 q 431 592 471 588 q 326 596 390 596 q 255 594 296 596 q 175 589 214 592 q 115 582 136 586 l 115 699 q 240 715 172 710 q 376 719 308 719 q 509 710 456 719 q 596 679 563 700 q 646 625 629 658 q 669 545 663 592 q 676 439 676 499 l 676 0 l 540 0 l 535 92 l 526 92 q 463 24 503 47 q 378 -5 424 1 q 290 -11 332 -11 m 356 108 q 419 113 390 108 q 469 130 447 118 q 503 163 490 142 q 522 217 515 186 q 528 289 528 247 l 528 314 l 325 314 q 255 307 279 314 q 222 278 231 300 q 214 210 214 256 q 224 145 214 167 q 265 116 233 124 q 356 108 296 108 m 186 856 l 186 982 l 318 982 l 318 856 l 186 856 m 471 856 l 471 982 l 603 982 l 603 856 l 471 856 z "},"ạ":{"ha":786,"x_min":69,"x_max":676,"o":"m 290 -11 q 169 8 218 -11 q 94 73 119 28 q 69 196 69 118 q 89 326 69 278 q 156 394 108 374 q 289 415 203 415 q 330 415 303 415 q 392 413 357 414 q 463 412 428 413 q 528 410 499 411 l 528 443 q 521 528 528 497 q 492 573 514 558 q 431 592 471 588 q 326 596 390 596 q 255 594 296 596 q 175 589 214 592 q 115 582 136 586 l 115 699 q 240 715 172 710 q 376 719 308 719 q 509 710 456 719 q 596 679 563 700 q 646 625 629 658 q 669 545 663 592 q 676 439 676 499 l 676 0 l 540 0 l 535 92 l 526 92 q 463 24 503 47 q 378 -5 424 1 q 290 -11 332 -11 m 356 108 q 419 113 390 108 q 469 130 447 118 q 503 163 490 142 q 522 217 515 186 q 528 289 528 247 l 528 314 l 325 314 q 255 307 279 314 q 222 278 231 300 q 214 210 214 256 q 224 145 214 167 q 265 116 233 124 q 356 108 296 108 m 333 -271 l 333 -151 l 456 -151 l 456 -271 l 333 -271 z "},"à":{"ha":786,"x_min":69,"x_max":676,"o":"m 290 -11 q 169 8 218 -11 q 94 73 119 28 q 69 196 69 118 q 89 326 69 278 q 156 394 108 374 q 289 415 203 415 q 330 415 303 415 q 392 413 357 414 q 463 412 428 413 q 528 410 499 411 l 528 443 q 521 528 528 497 q 492 573 514 558 q 431 592 471 588 q 326 596 390 596 q 255 594 296 596 q 175 589 214 592 q 115 582 136 586 l 115 699 q 240 715 172 710 q 376 719 308 719 q 509 710 456 719 q 596 679 563 700 q 646 625 629 658 q 669 545 663 592 q 676 439 676 499 l 676 0 l 540 0 l 535 92 l 526 92 q 463 24 503 47 q 378 -5 424 1 q 290 -11 332 -11 m 356 108 q 419 113 390 108 q 469 130 447 118 q 503 163 490 142 q 522 217 515 186 q 528 289 528 247 l 528 314 l 325 314 q 255 307 279 314 q 222 278 231 300 q 214 210 214 256 q 224 145 214 167 q 265 116 233 124 q 356 108 296 108 m 375 817 l 194 1007 l 194 1014 l 347 1014 l 483 825 l 483 817 l 375 817 z "},"ả":{"ha":786,"x_min":69,"x_max":676,"o":"m 290 -11 q 169 8 218 -11 q 94 73 119 28 q 69 196 69 118 q 89 326 69 278 q 156 394 108 374 q 289 415 203 415 q 330 415 303 415 q 392 413 357 414 q 463 412 428 413 q 528 410 499 411 l 528 443 q 521 528 528 497 q 492 573 514 558 q 431 592 471 588 q 326 596 390 596 q 255 594 296 596 q 175 589 214 592 q 115 582 136 586 l 115 699 q 240 715 172 710 q 376 719 308 719 q 509 710 456 719 q 596 679 563 700 q 646 625 629 658 q 669 545 663 592 q 676 439 676 499 l 676 0 l 540 0 l 535 92 l 526 92 q 463 24 503 47 q 378 -5 424 1 q 290 -11 332 -11 m 356 108 q 419 113 390 108 q 469 130 447 118 q 503 163 490 142 q 522 217 515 186 q 528 289 528 247 l 528 314 l 325 314 q 255 307 279 314 q 222 278 231 300 q 214 210 214 256 q 224 145 214 167 q 265 116 233 124 q 356 108 296 108 m 324 799 l 324 811 q 329 847 324 832 q 349 874 335 863 q 386 892 363 885 l 415 900 q 458 915 444 908 q 476 929 472 921 q 481 953 481 938 q 470 987 481 978 q 435 999 460 996 q 369 1001 411 1001 q 327 1001 353 1001 q 274 999 301 1000 q 226 994 247 997 l 226 1067 q 308 1076 261 1072 q 393 1079 356 1079 q 494 1072 453 1079 q 558 1040 536 1065 q 579 963 579 1015 q 571 909 579 929 q 543 877 563 889 q 490 856 524 865 l 460 846 q 424 834 435 839 q 410 822 413 829 q 407 799 407 814 l 324 799 z "},"ȃ":{"ha":786,"x_min":69,"x_max":676,"o":"m 290 -11 q 169 8 218 -11 q 94 73 119 28 q 69 196 69 118 q 89 326 69 278 q 156 394 108 374 q 289 415 203 415 q 330 415 303 415 q 392 413 357 414 q 463 412 428 413 q 528 410 499 411 l 528 443 q 521 528 528 497 q 492 573 514 558 q 431 592 471 588 q 326 596 390 596 q 255 594 296 596 q 175 589 214 592 q 115 582 136 586 l 115 699 q 240 715 172 710 q 376 719 308 719 q 509 710 456 719 q 596 679 563 700 q 646 625 629 658 q 669 545 663 592 q 676 439 676 499 l 676 0 l 540 0 l 535 92 l 526 92 q 463 24 503 47 q 378 -5 424 1 q 290 -11 332 -11 m 356 108 q 419 113 390 108 q 469 130 447 118 q 503 163 490 142 q 522 217 515 186 q 528 289 528 247 l 528 314 l 325 314 q 255 307 279 314 q 222 278 231 300 q 214 210 214 256 q 224 145 214 167 q 265 116 233 124 q 356 108 296 108 m 396 1025 q 504 1010 465 1025 q 563 967 543 994 q 587 903 582 940 q 592 822 592 867 l 503 822 q 499 884 503 858 q 472 923 494 910 q 396 936 450 936 q 320 923 343 936 q 292 884 297 910 q 286 822 286 858 l 196 822 q 201 903 196 867 q 226 967 207 940 q 286 1010 246 994 q 396 1025 326 1025 z "},"ā":{"ha":786,"x_min":69,"x_max":676,"o":"m 290 -11 q 169 8 218 -11 q 94 73 119 28 q 69 196 69 118 q 89 326 69 278 q 156 394 108 374 q 289 415 203 415 q 330 415 303 415 q 392 413 357 414 q 463 412 428 413 q 528 410 499 411 l 528 443 q 521 528 528 497 q 492 573 514 558 q 431 592 471 588 q 326 596 390 596 q 255 594 296 596 q 175 589 214 592 q 115 582 136 586 l 115 699 q 240 715 172 710 q 376 719 308 719 q 509 710 456 719 q 596 679 563 700 q 646 625 629 658 q 669 545 663 592 q 676 439 676 499 l 676 0 l 540 0 l 535 92 l 526 92 q 463 24 503 47 q 378 -5 424 1 q 290 -11 332 -11 m 356 108 q 419 113 390 108 q 469 130 447 118 q 503 163 490 142 q 522 217 515 186 q 528 289 528 247 l 528 314 l 325 314 q 255 307 279 314 q 222 278 231 300 q 214 210 214 256 q 224 145 214 167 q 265 116 233 124 q 356 108 296 108 m 185 856 l 185 954 l 604 954 l 604 856 l 185 856 z "},"ą":{"ha":786,"x_min":69,"x_max":678,"o":"m 290 -11 q 169 8 218 -11 q 94 73 119 28 q 69 196 69 118 q 89 326 69 278 q 156 394 108 374 q 289 415 203 415 q 330 415 303 415 q 392 413 357 414 q 463 412 428 413 q 528 410 499 411 l 528 443 q 521 528 528 497 q 492 573 514 558 q 431 592 471 588 q 326 596 390 596 q 255 594 296 596 q 175 589 214 592 q 115 582 136 586 l 115 699 q 240 715 172 710 q 376 719 308 719 q 509 710 456 719 q 596 679 563 700 q 646 625 629 658 q 669 545 663 592 q 676 439 676 499 l 676 0 l 540 0 l 535 92 l 526 92 q 463 24 503 47 q 378 -5 424 1 q 290 -11 332 -11 m 356 108 q 419 113 390 108 q 469 130 447 118 q 503 163 490 142 q 522 217 515 186 q 528 289 528 247 l 528 314 l 325 314 q 255 307 279 314 q 222 278 231 300 q 214 210 214 256 q 224 145 214 167 q 265 116 233 124 q 356 108 296 108 m 610 -278 q 519 -262 551 -278 q 475 -222 488 -247 q 463 -167 463 -197 q 492 -74 463 -122 q 567 14 521 -25 l 676 0 q 638 -35 658 -12 q 603 -85 618 -58 q 589 -135 589 -111 q 602 -172 589 -157 q 654 -187 615 -187 q 665 -187 658 -187 q 678 -185 671 -186 l 678 -274 q 645 -276 663 -275 q 610 -278 628 -278 z "},"å":{"ha":786,"x_min":69,"x_max":676,"o":"m 290 -11 q 169 8 218 -11 q 94 73 119 28 q 69 196 69 118 q 89 326 69 278 q 156 394 108 374 q 289 415 203 415 q 330 415 303 415 q 392 413 357 414 q 463 412 428 413 q 528 410 499 411 l 528 443 q 521 528 528 497 q 492 573 514 558 q 431 592 471 588 q 326 596 390 596 q 255 594 296 596 q 175 589 214 592 q 115 582 136 586 l 115 699 q 240 715 172 710 q 376 719 308 719 q 509 710 456 719 q 596 679 563 700 q 646 625 629 658 q 669 545 663 592 q 676 439 676 499 l 676 0 l 540 0 l 535 92 l 526 92 q 463 24 503 47 q 378 -5 424 1 q 290 -11 332 -11 m 356 108 q 419 113 390 108 q 469 130 447 118 q 503 163 490 142 q 522 217 515 186 q 528 289 528 247 l 528 314 l 325 314 q 255 307 279 314 q 222 278 231 300 q 214 210 214 256 q 224 145 214 167 q 265 116 233 124 q 356 108 296 108 m 393 797 q 288 806 326 797 q 233 834 250 815 q 212 882 217 853 q 207 951 207 911 q 212 1021 207 992 q 233 1069 217 1050 q 288 1097 250 1088 q 393 1107 326 1107 q 499 1097 460 1107 q 555 1069 538 1088 q 577 1021 572 1050 q 582 951 582 992 q 577 882 582 911 q 555 834 572 853 q 499 806 538 815 q 393 797 460 797 m 393 868 q 464 875 443 868 q 489 901 485 882 q 493 951 493 919 q 489 1002 493 983 q 464 1028 485 1021 q 393 1035 443 1035 q 324 1028 344 1035 q 299 1002 303 1021 q 294 951 294 983 q 299 901 294 919 q 324 875 303 882 q 393 868 344 868 z "},"ǻ":{"ha":786,"x_min":69,"x_max":676,"o":"m 290 -11 q 169 8 218 -11 q 94 73 119 28 q 69 196 69 118 q 89 326 69 278 q 156 394 108 374 q 289 415 203 415 q 330 415 303 415 q 392 413 357 414 q 463 412 428 413 q 528 410 499 411 l 528 443 q 521 528 528 497 q 492 573 514 558 q 431 592 471 588 q 326 596 390 596 q 255 594 296 596 q 175 589 214 592 q 115 582 136 586 l 115 699 q 240 715 172 710 q 376 719 308 719 q 509 710 456 719 q 596 679 563 700 q 646 625 629 658 q 669 545 663 592 q 676 439 676 499 l 676 0 l 540 0 l 535 92 l 526 92 q 463 24 503 47 q 378 -5 424 1 q 290 -11 332 -11 m 356 108 q 419 113 390 108 q 469 130 447 118 q 503 163 490 142 q 522 217 515 186 q 528 289 528 247 l 528 314 l 325 314 q 255 307 279 314 q 222 278 231 300 q 214 210 214 256 q 224 145 214 167 q 265 116 233 124 q 356 108 296 108 m 393 797 q 288 806 326 797 q 233 834 250 815 q 212 882 217 853 q 207 951 207 911 q 212 1021 207 992 q 233 1069 217 1050 q 288 1097 250 1088 q 393 1107 326 1107 q 499 1097 460 1107 q 555 1069 538 1088 q 577 1021 572 1050 q 582 951 582 992 q 577 882 582 911 q 555 834 572 853 q 499 806 538 815 q 393 797 460 797 m 393 868 q 464 875 443 868 q 489 901 485 882 q 493 951 493 919 q 489 1002 493 983 q 464 1028 485 1021 q 393 1035 443 1035 q 324 1028 344 1035 q 299 1002 303 1021 q 294 951 294 983 q 299 901 294 919 q 324 875 303 882 q 393 868 344 868 m 274 1171 l 274 1178 l 410 1369 l 563 1369 l 563 1363 l 382 1171 l 274 1171 z "},"ã":{"ha":786,"x_min":69,"x_max":676,"o":"m 290 -11 q 169 8 218 -11 q 94 73 119 28 q 69 196 69 118 q 89 326 69 278 q 156 394 108 374 q 289 415 203 415 q 330 415 303 415 q 392 413 357 414 q 463 412 428 413 q 528 410 499 411 l 528 443 q 521 528 528 497 q 492 573 514 558 q 431 592 471 588 q 326 596 390 596 q 255 594 296 596 q 175 589 214 592 q 115 582 136 586 l 115 699 q 240 715 172 710 q 376 719 308 719 q 509 710 456 719 q 596 679 563 700 q 646 625 629 658 q 669 545 663 592 q 676 439 676 499 l 676 0 l 540 0 l 535 92 l 526 92 q 463 24 503 47 q 378 -5 424 1 q 290 -11 332 -11 m 356 108 q 419 113 390 108 q 469 130 447 118 q 503 163 490 142 q 522 217 515 186 q 528 289 528 247 l 528 314 l 325 314 q 255 307 279 314 q 222 278 231 300 q 214 210 214 256 q 224 145 214 167 q 265 116 233 124 q 356 108 296 108 m 149 822 q 155 917 149 879 q 185 975 161 956 q 260 994 210 994 q 337 985 299 994 q 411 964 375 975 q 465 948 439 956 q 515 940 490 940 q 551 955 546 940 q 556 1010 556 969 l 636 1010 q 630 915 636 953 q 601 857 624 876 q 526 838 578 838 q 449 847 485 838 q 376 868 413 857 q 320 884 347 876 q 271 892 293 892 q 236 877 242 892 q 231 822 231 863 l 149 822 z "},"æ":{"ha":1225,"x_min":69,"x_max":1140,"o":"m 314 -11 q 207 -1 253 -11 q 131 34 161 10 q 85 98 100 58 q 69 196 69 138 q 89 325 69 278 q 156 393 108 372 q 289 414 203 414 q 353 413 313 414 q 442 412 394 413 q 528 410 489 411 l 528 443 q 521 528 528 497 q 492 573 514 558 q 431 592 471 588 q 326 596 390 596 q 252 594 296 596 q 169 589 208 592 q 115 582 131 586 l 115 699 q 228 713 160 706 q 376 719 296 719 q 524 704 468 719 q 611 651 579 689 q 703 703 646 688 q 847 719 760 719 q 986 706 932 719 q 1072 665 1040 693 q 1117 594 1103 638 q 1136 490 1132 550 q 1140 354 1140 431 l 1140 308 l 678 308 q 683 208 678 246 q 709 149 689 169 q 773 119 729 128 q 892 111 817 111 q 963 113 924 111 q 1041 118 1001 114 q 1113 125 1081 122 l 1113 10 q 1039 -1 1082 4 q 949 -8 996 -6 q 858 -11 901 -11 q 728 -1 782 -11 q 639 28 674 8 q 583 83 604 49 q 505 20 551 40 q 408 -6 458 0 q 314 -11 358 -11 m 356 108 q 424 113 393 108 q 476 133 454 118 q 510 175 497 147 q 524 224 519 197 q 528 289 528 251 l 528 310 l 325 310 q 255 303 279 310 q 222 276 231 297 q 214 210 214 254 q 224 145 214 167 q 265 116 233 124 q 356 108 296 108 m 1000 343 q 996 476 1000 426 q 976 553 992 526 q 930 588 961 579 q 844 597 899 597 q 756 590 789 597 q 707 562 724 582 q 684 504 690 542 q 678 407 678 467 l 1065 407 l 1000 343 z "},"ǽ":{"ha":1225,"x_min":69,"x_max":1140,"o":"m 314 -11 q 207 -1 253 -11 q 131 34 161 10 q 85 98 100 58 q 69 196 69 138 q 89 325 69 278 q 156 393 108 372 q 289 414 203 414 q 353 413 313 414 q 442 412 394 413 q 528 410 489 411 l 528 443 q 521 528 528 497 q 492 573 514 558 q 431 592 471 588 q 326 596 390 596 q 252 594 296 596 q 169 589 208 592 q 115 582 131 586 l 115 699 q 228 713 160 706 q 376 719 296 719 q 524 704 468 719 q 611 651 579 689 q 703 703 646 688 q 847 719 760 719 q 986 706 932 719 q 1072 665 1040 693 q 1117 594 1103 638 q 1136 490 1132 550 q 1140 354 1140 431 l 1140 308 l 678 308 q 683 208 678 246 q 709 149 689 169 q 773 119 729 128 q 892 111 817 111 q 963 113 924 111 q 1041 118 1001 114 q 1113 125 1081 122 l 1113 10 q 1039 -1 1082 4 q 949 -8 996 -6 q 858 -11 901 -11 q 728 -1 782 -11 q 639 28 674 8 q 583 83 604 49 q 505 20 551 40 q 408 -6 458 0 q 314 -11 358 -11 m 356 108 q 424 113 393 108 q 476 133 454 118 q 510 175 497 147 q 524 224 519 197 q 528 289 528 251 l 528 310 l 325 310 q 255 303 279 310 q 222 276 231 297 q 214 210 214 254 q 224 145 214 167 q 265 116 233 124 q 356 108 296 108 m 1000 343 q 996 476 1000 426 q 976 553 992 526 q 930 588 961 579 q 844 597 899 597 q 756 590 789 597 q 707 562 724 582 q 684 504 690 542 q 678 407 678 467 l 1065 407 l 1000 343 m 492 817 l 492 824 l 628 1015 l 781 1015 l 781 1008 l 600 817 l 492 817 z "},"b":{"ha":815,"x_min":110,"x_max":733,"o":"m 481 -11 q 394 -3 436 -11 q 317 26 351 4 q 260 93 282 49 l 250 93 l 246 0 l 110 0 l 110 1032 l 257 1032 l 257 625 l 265 625 q 319 683 286 663 q 393 711 351 703 q 485 719 435 719 q 603 701 556 719 q 678 642 650 683 q 720 531 707 601 q 733 354 733 461 q 719 177 733 247 q 676 66 706 107 q 599 7 647 25 q 481 -11 551 -11 m 419 119 q 508 127 475 119 q 557 158 540 135 q 579 228 574 182 q 585 354 585 275 q 579 480 585 433 q 557 549 574 526 q 508 580 540 572 q 419 588 475 588 q 333 575 365 588 q 285 533 300 563 q 262 459 267 503 q 257 354 257 415 q 262 249 257 294 q 283 175 267 204 q 333 133 300 146 q 419 119 365 119 z "},"c":{"ha":640,"x_min":82,"x_max":575,"o":"m 375 -11 q 240 3 293 -11 q 154 47 186 18 q 107 119 122 75 q 87 222 92 163 q 82 356 82 281 q 88 488 82 429 q 110 590 93 546 q 160 662 128 633 q 243 705 192 690 q 372 719 294 719 q 477 714 422 719 q 568 700 532 708 l 568 583 q 492 592 538 589 q 410 596 447 596 q 315 586 350 596 q 261 550 279 576 q 237 476 243 524 q 231 354 231 429 q 237 229 231 278 q 262 156 243 181 q 317 122 281 131 q 413 113 353 113 q 491 116 447 113 q 575 125 535 119 l 575 8 q 482 -6 538 0 q 375 -11 426 -11 z "},"ć":{"ha":640,"x_min":82,"x_max":575,"o":"m 375 -11 q 240 3 293 -11 q 154 47 186 18 q 107 119 122 75 q 87 222 92 163 q 82 356 82 281 q 88 488 82 429 q 110 590 93 546 q 160 662 128 633 q 243 705 192 690 q 372 719 294 719 q 477 714 422 719 q 568 700 532 708 l 568 583 q 492 592 538 589 q 410 596 447 596 q 315 586 350 596 q 261 550 279 576 q 237 476 243 524 q 231 354 231 429 q 237 229 231 278 q 262 156 243 181 q 317 122 281 131 q 413 113 353 113 q 491 116 447 113 q 575 125 535 119 l 575 8 q 482 -6 538 0 q 375 -11 426 -11 m 229 817 l 229 824 l 365 1015 l 518 1015 l 518 1008 l 338 817 l 229 817 z "},"č":{"ha":640,"x_min":82,"x_max":575,"o":"m 375 -11 q 240 3 293 -11 q 154 47 186 18 q 107 119 122 75 q 87 222 92 163 q 82 356 82 281 q 88 488 82 429 q 110 590 93 546 q 160 662 128 633 q 243 705 192 690 q 372 719 294 719 q 477 714 422 719 q 568 700 532 708 l 568 583 q 492 592 538 589 q 410 596 447 596 q 315 586 350 596 q 261 550 279 576 q 237 476 243 524 q 231 354 231 429 q 237 229 231 278 q 262 156 243 181 q 317 122 281 131 q 413 113 353 113 q 491 116 447 113 q 575 125 535 119 l 575 8 q 482 -6 538 0 q 375 -11 426 -11 m 276 817 l 139 1006 l 139 1014 l 238 1014 l 350 888 l 463 1014 l 563 1014 l 563 1006 l 425 817 l 276 817 z "},"ç":{"ha":640,"x_min":82,"x_max":575,"o":"m 375 -11 q 240 3 293 -11 q 154 47 186 18 q 107 119 122 75 q 87 222 92 163 q 82 356 82 281 q 88 488 82 429 q 110 590 93 546 q 160 662 128 633 q 243 705 192 690 q 372 719 294 719 q 477 714 422 719 q 568 700 532 708 l 568 583 q 492 592 538 589 q 410 596 447 596 q 315 586 350 596 q 261 550 279 576 q 237 476 243 524 q 231 354 231 429 q 237 229 231 278 q 262 156 243 181 q 317 122 281 131 q 413 113 353 113 q 491 116 447 113 q 575 125 535 119 l 575 8 q 482 -6 538 0 q 375 -11 426 -11 m 236 -264 l 236 -257 l 338 25 l 436 25 l 436 18 l 379 -264 l 236 -264 z "},"ĉ":{"ha":640,"x_min":82,"x_max":575,"o":"m 375 -11 q 240 3 293 -11 q 154 47 186 18 q 107 119 122 75 q 87 222 92 163 q 82 356 82 281 q 88 488 82 429 q 110 590 93 546 q 160 662 128 633 q 243 705 192 690 q 372 719 294 719 q 477 714 422 719 q 568 700 532 708 l 568 583 q 492 592 538 589 q 410 596 447 596 q 315 586 350 596 q 261 550 279 576 q 237 476 243 524 q 231 354 231 429 q 237 229 231 278 q 262 156 243 181 q 317 122 281 131 q 413 113 353 113 q 491 116 447 113 q 575 125 535 119 l 575 8 q 482 -6 538 0 q 375 -11 426 -11 m 139 817 l 139 826 l 276 1015 l 425 1015 l 563 826 l 563 817 l 463 817 l 350 943 l 238 817 l 139 817 z "},"ċ":{"ha":640,"x_min":82,"x_max":575,"o":"m 375 -11 q 240 3 293 -11 q 154 47 186 18 q 107 119 122 75 q 87 222 92 163 q 82 356 82 281 q 88 488 82 429 q 110 590 93 546 q 160 662 128 633 q 243 705 192 690 q 372 719 294 719 q 477 714 422 719 q 568 700 532 708 l 568 583 q 492 592 538 589 q 410 596 447 596 q 315 586 350 596 q 261 550 279 576 q 237 476 243 524 q 231 354 231 429 q 237 229 231 278 q 262 156 243 181 q 317 122 281 131 q 413 113 353 113 q 491 116 447 113 q 575 125 535 119 l 575 8 q 482 -6 538 0 q 375 -11 426 -11 m 283 856 l 283 982 l 415 982 l 415 856 l 283 856 z "},"d":{"ha":815,"x_min":82,"x_max":706,"o":"m 335 -11 q 215 6 264 -11 q 138 65 167 24 q 95 176 108 106 q 82 353 82 247 q 95 531 82 460 q 137 642 108 601 q 213 701 165 683 q 329 719 260 719 q 422 711 381 719 q 497 683 464 703 q 549 625 529 663 l 558 625 l 558 1032 l 706 1032 l 706 0 l 569 0 l 564 93 l 556 93 q 499 26 535 49 q 421 -3 464 4 q 335 -11 378 -11 m 394 119 q 490 135 456 119 q 538 186 524 151 q 555 260 551 218 q 558 357 558 301 q 555 449 558 410 q 539 517 551 489 q 490 571 524 554 q 394 588 456 588 q 306 580 339 588 q 258 549 274 572 q 236 480 242 526 q 231 354 231 433 q 236 228 231 275 q 258 158 242 182 q 308 127 275 135 q 394 119 340 119 z "},"ð":{"ha":803,"x_min":82,"x_max":717,"o":"m 399 -11 q 251 0 310 -11 q 159 37 193 11 q 108 105 125 63 q 87 208 92 147 q 82 353 82 269 q 90 518 82 449 q 124 632 97 588 q 207 697 151 676 q 360 718 263 718 q 455 710 415 718 q 522 689 494 703 l 528 693 q 493 774 513 736 q 453 844 474 811 l 292 818 l 292 914 l 392 929 q 340 983 365 960 q 292 1026 314 1007 l 292 1032 l 453 1032 q 492 996 471 1015 q 533 951 513 976 l 689 976 l 689 882 l 596 867 q 652 756 626 817 q 693 622 678 696 q 706 544 700 585 q 714 460 711 503 q 717 372 717 418 q 712 217 717 282 q 692 108 707 153 q 642 38 676 63 q 549 1 607 13 q 399 -11 490 -11 m 399 111 q 498 119 464 111 q 547 151 532 126 q 566 224 563 176 q 569 353 569 272 q 566 471 569 424 q 547 546 563 518 q 498 585 532 574 q 399 596 464 596 q 301 588 336 596 q 252 554 267 579 q 234 481 238 529 q 231 353 231 433 q 234 224 231 272 q 252 151 238 176 q 301 119 267 126 q 399 111 336 111 z "},"ď":{"ha":815,"x_min":82,"x_max":894,"o":"m 335 -11 q 215 6 264 -11 q 138 65 167 24 q 95 176 108 106 q 82 353 82 247 q 95 531 82 460 q 137 642 108 601 q 213 701 165 683 q 329 719 260 719 q 422 711 381 719 q 497 683 464 703 q 549 625 529 663 l 558 625 l 558 1032 l 706 1032 l 706 0 l 569 0 l 564 93 l 556 93 q 499 26 535 49 q 421 -3 464 4 q 335 -11 378 -11 m 394 119 q 490 135 456 119 q 538 186 524 151 q 555 260 551 218 q 558 357 558 301 q 555 449 558 410 q 539 517 551 489 q 490 571 524 554 q 394 588 456 588 q 306 580 339 588 q 258 549 274 572 q 236 480 242 526 q 231 354 231 433 q 236 228 231 275 q 258 158 242 182 q 308 127 275 135 q 394 119 340 119 m 747 608 l 768 860 l 768 956 l 894 956 l 894 860 l 839 608 l 747 608 z "},"đ":{"ha":815,"x_min":82,"x_max":796,"o":"m 379 861 l 379 956 l 796 956 l 796 861 l 379 861 m 335 -11 q 215 6 264 -11 q 138 65 167 24 q 95 176 108 106 q 82 353 82 247 q 95 531 82 460 q 137 642 108 601 q 213 701 165 683 q 329 719 260 719 q 422 711 381 719 q 497 683 464 703 q 549 625 529 663 l 558 625 l 558 1032 l 706 1032 l 706 0 l 569 0 l 564 93 l 556 93 q 499 26 535 49 q 421 -3 464 4 q 335 -11 378 -11 m 394 119 q 490 135 456 119 q 538 186 524 151 q 555 260 551 218 q 558 357 558 301 q 555 449 558 410 q 539 517 551 489 q 490 571 524 554 q 394 588 456 588 q 306 580 339 588 q 258 549 274 572 q 236 480 242 526 q 231 354 231 433 q 236 228 231 275 q 258 158 242 182 q 308 127 275 135 q 394 119 340 119 z "},"ḍ":{"ha":815,"x_min":82,"x_max":706,"o":"m 335 -11 q 215 6 264 -11 q 138 65 167 24 q 95 176 108 106 q 82 353 82 247 q 95 531 82 460 q 137 642 108 601 q 213 701 165 683 q 329 719 260 719 q 422 711 381 719 q 497 683 464 703 q 549 625 529 663 l 558 625 l 558 1032 l 706 1032 l 706 0 l 569 0 l 564 93 l 556 93 q 499 26 535 49 q 421 -3 464 4 q 335 -11 378 -11 m 394 119 q 490 135 456 119 q 538 186 524 151 q 555 260 551 218 q 558 357 558 301 q 555 449 558 410 q 539 517 551 489 q 490 571 524 554 q 394 588 456 588 q 306 580 339 588 q 258 549 274 572 q 236 480 242 526 q 231 354 231 433 q 236 228 231 275 q 258 158 242 182 q 308 127 275 135 q 394 119 340 119 m 347 -271 l 347 -151 l 469 -151 l 469 -271 l 347 -271 z "},"ǳ":{"ha":1529,"x_min":82,"x_max":1458,"o":"m 335 -11 q 215 6 264 -11 q 138 65 167 24 q 95 176 108 106 q 82 353 82 247 q 95 531 82 460 q 137 642 108 601 q 213 701 165 683 q 329 719 260 719 q 422 711 381 719 q 497 683 464 703 q 549 625 529 663 l 558 625 l 558 1032 l 706 1032 l 706 0 l 569 0 l 564 93 l 556 93 q 499 26 535 49 q 421 -3 464 4 q 335 -11 378 -11 m 394 119 q 490 135 456 119 q 538 186 524 151 q 555 260 551 218 q 558 357 558 301 q 555 449 558 410 q 539 517 551 489 q 490 571 524 554 q 394 588 456 588 q 306 580 339 588 q 258 549 274 572 q 236 480 242 526 q 231 354 231 433 q 236 228 231 275 q 258 158 242 182 q 308 127 275 135 q 394 119 340 119 m 886 0 l 886 114 l 1267 585 l 903 585 l 903 708 l 1457 708 l 1457 594 l 1076 124 l 1460 124 l 1460 0 l 886 0 z "},"ǆ":{"ha":1529,"x_min":82,"x_max":1458,"o":"m 335 -11 q 215 6 264 -11 q 138 65 167 24 q 95 176 108 106 q 82 353 82 247 q 95 531 82 460 q 137 642 108 601 q 213 701 165 683 q 329 719 260 719 q 422 711 381 719 q 497 683 464 703 q 549 625 529 663 l 558 625 l 558 1032 l 706 1032 l 706 0 l 569 0 l 564 93 l 556 93 q 499 26 535 49 q 421 -3 464 4 q 335 -11 378 -11 m 394 119 q 490 135 456 119 q 538 186 524 151 q 555 260 551 218 q 558 357 558 301 q 555 449 558 410 q 539 517 551 489 q 490 571 524 554 q 394 588 456 588 q 306 580 339 588 q 258 549 274 572 q 236 480 242 526 q 231 354 231 433 q 236 228 231 275 q 258 158 242 182 q 308 127 275 135 q 394 119 340 119 m 886 0 l 886 114 l 1267 585 l 903 585 l 903 708 l 1457 708 l 1457 594 l 1076 124 l 1460 124 l 1460 0 l 886 0 m 1108 817 l 971 1006 l 971 1014 l 1069 1014 l 1182 888 l 1294 1014 l 1394 1014 l 1394 1006 l 1257 817 l 1108 817 z "},"e":{"ha":775,"x_min":82,"x_max":693,"o":"m 411 -11 q 261 1 321 -11 q 165 40 201 13 q 111 109 129 67 q 88 212 93 151 q 82 353 82 272 q 92 518 82 449 q 132 633 101 588 q 227 699 163 678 q 400 719 292 719 q 539 706 485 719 q 624 665 593 693 q 670 594 656 638 q 689 490 685 550 q 693 353 693 429 l 693 306 l 231 306 q 236 205 231 243 q 262 147 242 167 q 326 119 282 126 q 444 111 369 111 q 515 113 476 111 q 593 118 553 114 q 665 125 633 122 l 665 10 q 592 -1 635 4 q 501 -8 549 -6 q 411 -11 454 -11 m 551 385 l 551 411 q 544 510 551 474 q 519 566 536 547 q 472 591 501 585 q 397 597 442 597 q 309 590 342 597 q 260 561 276 582 q 237 503 243 540 q 231 407 231 467 l 576 407 l 551 385 z "},"é":{"ha":775,"x_min":82,"x_max":693,"o":"m 411 -11 q 261 1 321 -11 q 165 40 201 13 q 111 109 129 67 q 88 212 93 151 q 82 353 82 272 q 92 518 82 449 q 132 633 101 588 q 227 699 163 678 q 400 719 292 719 q 539 706 485 719 q 624 665 593 693 q 670 594 656 638 q 689 490 685 550 q 693 353 693 429 l 693 306 l 231 306 q 236 205 231 243 q 262 147 242 167 q 326 119 282 126 q 444 111 369 111 q 515 113 476 111 q 593 118 553 114 q 665 125 633 122 l 665 10 q 592 -1 635 4 q 501 -8 549 -6 q 411 -11 454 -11 m 551 385 l 551 411 q 544 510 551 474 q 519 566 536 547 q 472 591 501 585 q 397 597 442 597 q 309 590 342 597 q 260 561 276 582 q 237 503 243 540 q 231 407 231 467 l 576 407 l 551 385 m 275 817 l 275 824 l 411 1015 l 564 1015 l 564 1008 l 383 817 l 275 817 z "},"ĕ":{"ha":775,"x_min":82,"x_max":693,"o":"m 411 -11 q 261 1 321 -11 q 165 40 201 13 q 111 109 129 67 q 88 212 93 151 q 82 353 82 272 q 92 518 82 449 q 132 633 101 588 q 227 699 163 678 q 400 719 292 719 q 539 706 485 719 q 624 665 593 693 q 670 594 656 638 q 689 490 685 550 q 693 353 693 429 l 693 306 l 231 306 q 236 205 231 243 q 262 147 242 167 q 326 119 282 126 q 444 111 369 111 q 515 113 476 111 q 593 118 553 114 q 665 125 633 122 l 665 10 q 592 -1 635 4 q 501 -8 549 -6 q 411 -11 454 -11 m 551 385 l 551 411 q 544 510 551 474 q 519 566 536 547 q 472 591 501 585 q 397 597 442 597 q 309 590 342 597 q 260 561 276 582 q 237 503 243 540 q 231 407 231 467 l 576 407 l 551 385 m 394 806 q 286 821 326 806 q 227 863 246 836 q 203 927 208 890 q 197 1008 197 964 l 286 1008 q 291 947 286 972 q 318 908 296 921 q 393 894 340 894 q 470 908 447 894 q 498 947 493 921 q 503 1008 503 972 l 593 1008 q 588 927 593 964 q 563 863 582 890 q 503 821 543 836 q 394 806 463 806 z "},"ě":{"ha":775,"x_min":82,"x_max":693,"o":"m 411 -11 q 261 1 321 -11 q 165 40 201 13 q 111 109 129 67 q 88 212 93 151 q 82 353 82 272 q 92 518 82 449 q 132 633 101 588 q 227 699 163 678 q 400 719 292 719 q 539 706 485 719 q 624 665 593 693 q 670 594 656 638 q 689 490 685 550 q 693 353 693 429 l 693 306 l 231 306 q 236 205 231 243 q 262 147 242 167 q 326 119 282 126 q 444 111 369 111 q 515 113 476 111 q 593 118 553 114 q 665 125 633 122 l 665 10 q 592 -1 635 4 q 501 -8 549 -6 q 411 -11 454 -11 m 551 385 l 551 411 q 544 510 551 474 q 519 566 536 547 q 472 591 501 585 q 397 597 442 597 q 309 590 342 597 q 260 561 276 582 q 237 503 243 540 q 231 407 231 467 l 576 407 l 551 385 m 322 817 l 185 1006 l 185 1014 l 283 1014 l 396 888 l 508 1014 l 608 1014 l 608 1006 l 471 817 l 322 817 z "},"ê":{"ha":775,"x_min":82,"x_max":693,"o":"m 411 -11 q 261 1 321 -11 q 165 40 201 13 q 111 109 129 67 q 88 212 93 151 q 82 353 82 272 q 92 518 82 449 q 132 633 101 588 q 227 699 163 678 q 400 719 292 719 q 539 706 485 719 q 624 665 593 693 q 670 594 656 638 q 689 490 685 550 q 693 353 693 429 l 693 306 l 231 306 q 236 205 231 243 q 262 147 242 167 q 326 119 282 126 q 444 111 369 111 q 515 113 476 111 q 593 118 553 114 q 665 125 633 122 l 665 10 q 592 -1 635 4 q 501 -8 549 -6 q 411 -11 454 -11 m 551 385 l 551 411 q 544 510 551 474 q 519 566 536 547 q 472 591 501 585 q 397 597 442 597 q 309 590 342 597 q 260 561 276 582 q 237 503 243 540 q 231 407 231 467 l 576 407 l 551 385 m 185 817 l 185 826 l 322 1015 l 471 1015 l 608 826 l 608 817 l 508 817 l 396 943 l 283 817 l 185 817 z "},"ế":{"ha":775,"x_min":82,"x_max":693,"o":"m 411 -11 q 261 1 321 -11 q 165 40 201 13 q 111 109 129 67 q 88 212 93 151 q 82 353 82 272 q 92 518 82 449 q 132 633 101 588 q 227 699 163 678 q 400 719 292 719 q 539 706 485 719 q 624 665 593 693 q 670 594 656 638 q 689 490 685 550 q 693 353 693 429 l 693 306 l 231 306 q 236 205 231 243 q 262 147 242 167 q 326 119 282 126 q 444 111 369 111 q 515 113 476 111 q 593 118 553 114 q 665 125 633 122 l 665 10 q 592 -1 635 4 q 501 -8 549 -6 q 411 -11 454 -11 m 551 385 l 551 411 q 544 510 551 474 q 519 566 536 547 q 472 591 501 585 q 397 597 442 597 q 309 590 342 597 q 260 561 276 582 q 237 503 243 540 q 231 407 231 467 l 576 407 l 551 385 m 185 817 l 185 826 l 322 1015 l 471 1015 l 608 826 l 608 817 l 508 817 l 396 943 l 283 817 l 185 817 m 275 1064 l 275 1071 l 411 1263 l 564 1263 l 564 1256 l 383 1064 l 275 1064 z "},"ệ":{"ha":775,"x_min":82,"x_max":693,"o":"m 411 -11 q 261 1 321 -11 q 165 40 201 13 q 111 109 129 67 q 88 212 93 151 q 82 353 82 272 q 92 518 82 449 q 132 633 101 588 q 227 699 163 678 q 400 719 292 719 q 539 706 485 719 q 624 665 593 693 q 670 594 656 638 q 689 490 685 550 q 693 353 693 429 l 693 306 l 231 306 q 236 205 231 243 q 262 147 242 167 q 326 119 282 126 q 444 111 369 111 q 515 113 476 111 q 593 118 553 114 q 665 125 633 122 l 665 10 q 592 -1 635 4 q 501 -8 549 -6 q 411 -11 454 -11 m 551 385 l 551 411 q 544 510 551 474 q 519 566 536 547 q 472 591 501 585 q 397 597 442 597 q 309 590 342 597 q 260 561 276 582 q 237 503 243 540 q 231 407 231 467 l 576 407 l 551 385 m 328 -271 l 328 -151 l 450 -151 l 450 -271 l 328 -271 m 185 817 l 185 826 l 322 1015 l 471 1015 l 608 826 l 608 817 l 508 817 l 396 943 l 283 817 l 185 817 z "},"ề":{"ha":775,"x_min":82,"x_max":693,"o":"m 411 -11 q 261 1 321 -11 q 165 40 201 13 q 111 109 129 67 q 88 212 93 151 q 82 353 82 272 q 92 518 82 449 q 132 633 101 588 q 227 699 163 678 q 400 719 292 719 q 539 706 485 719 q 624 665 593 693 q 670 594 656 638 q 689 490 685 550 q 693 353 693 429 l 693 306 l 231 306 q 236 205 231 243 q 262 147 242 167 q 326 119 282 126 q 444 111 369 111 q 515 113 476 111 q 593 118 553 114 q 665 125 633 122 l 665 10 q 592 -1 635 4 q 501 -8 549 -6 q 411 -11 454 -11 m 551 385 l 551 411 q 544 510 551 474 q 519 566 536 547 q 472 591 501 585 q 397 597 442 597 q 309 590 342 597 q 260 561 276 582 q 237 503 243 540 q 231 407 231 467 l 576 407 l 551 385 m 185 817 l 185 826 l 322 1015 l 471 1015 l 608 826 l 608 817 l 508 817 l 396 943 l 283 817 l 185 817 m 376 1064 l 196 1254 l 196 1261 l 350 1261 l 486 1071 l 486 1064 l 376 1064 z "},"ể":{"ha":775,"x_min":82,"x_max":693,"o":"m 411 -11 q 261 1 321 -11 q 165 40 201 13 q 111 109 129 67 q 88 212 93 151 q 82 353 82 272 q 92 518 82 449 q 132 633 101 588 q 227 699 163 678 q 400 719 292 719 q 539 706 485 719 q 624 665 593 693 q 670 594 656 638 q 689 490 685 550 q 693 353 693 429 l 693 306 l 231 306 q 236 205 231 243 q 262 147 242 167 q 326 119 282 126 q 444 111 369 111 q 515 113 476 111 q 593 118 553 114 q 665 125 633 122 l 665 10 q 592 -1 635 4 q 501 -8 549 -6 q 411 -11 454 -11 m 551 385 l 551 411 q 544 510 551 474 q 519 566 536 547 q 472 591 501 585 q 397 597 442 597 q 309 590 342 597 q 260 561 276 582 q 237 503 243 540 q 231 407 231 467 l 576 407 l 551 385 m 185 817 l 185 826 l 322 1015 l 471 1015 l 608 826 l 608 817 l 508 817 l 396 943 l 283 817 l 185 817 m 326 1046 l 326 1058 q 332 1094 326 1079 q 351 1121 338 1110 q 389 1139 364 1132 l 418 1147 q 460 1162 446 1156 q 478 1176 474 1168 q 483 1200 483 1185 q 473 1234 483 1225 q 438 1246 463 1243 q 372 1249 414 1249 q 329 1248 354 1249 q 277 1246 304 1247 q 229 1242 250 1244 l 229 1314 q 311 1323 264 1319 q 396 1326 358 1326 q 497 1319 456 1326 q 560 1288 538 1313 q 582 1210 582 1263 q 574 1156 582 1176 q 546 1124 565 1136 q 492 1103 526 1113 l 463 1093 q 426 1081 438 1086 q 413 1069 415 1076 q 410 1046 410 1061 l 326 1046 z "},"ễ":{"ha":775,"x_min":82,"x_max":693,"o":"m 411 -11 q 261 1 321 -11 q 165 40 201 13 q 111 109 129 67 q 88 212 93 151 q 82 353 82 272 q 92 518 82 449 q 132 633 101 588 q 227 699 163 678 q 400 719 292 719 q 539 706 485 719 q 624 665 593 693 q 670 594 656 638 q 689 490 685 550 q 693 353 693 429 l 693 306 l 231 306 q 236 205 231 243 q 262 147 242 167 q 326 119 282 126 q 444 111 369 111 q 515 113 476 111 q 593 118 553 114 q 665 125 633 122 l 665 10 q 592 -1 635 4 q 501 -8 549 -6 q 411 -11 454 -11 m 551 385 l 551 411 q 544 510 551 474 q 519 566 536 547 q 472 591 501 585 q 397 597 442 597 q 309 590 342 597 q 260 561 276 582 q 237 503 243 540 q 231 407 231 467 l 576 407 l 551 385 m 183 817 l 183 826 l 321 1015 l 469 1015 l 608 826 l 608 817 l 507 817 l 394 943 l 283 817 l 183 817 m 150 1069 q 156 1165 150 1126 q 187 1222 163 1203 q 261 1242 211 1242 q 338 1232 300 1242 q 413 1211 376 1222 q 466 1195 440 1203 q 517 1188 492 1188 q 552 1202 547 1188 q 557 1257 557 1217 l 638 1257 q 631 1162 638 1200 q 602 1104 625 1124 q 528 1085 579 1085 q 450 1094 486 1085 q 378 1115 414 1104 q 322 1131 349 1124 q 272 1139 294 1139 q 238 1124 243 1139 q 232 1069 232 1110 l 150 1069 z "},"ȅ":{"ha":775,"x_min":82,"x_max":693,"o":"m 411 -11 q 261 1 321 -11 q 165 40 201 13 q 111 109 129 67 q 88 212 93 151 q 82 353 82 272 q 92 518 82 449 q 132 633 101 588 q 227 699 163 678 q 400 719 292 719 q 539 706 485 719 q 624 665 593 693 q 670 594 656 638 q 689 490 685 550 q 693 353 693 429 l 693 306 l 231 306 q 236 205 231 243 q 262 147 242 167 q 326 119 282 126 q 444 111 369 111 q 515 113 476 111 q 593 118 553 114 q 665 125 633 122 l 665 10 q 592 -1 635 4 q 501 -8 549 -6 q 411 -11 454 -11 m 551 385 l 551 411 q 544 510 551 474 q 519 566 536 547 q 472 591 501 585 q 397 597 442 597 q 309 590 342 597 q 260 561 276 582 q 237 503 243 540 q 231 407 231 467 l 576 407 l 551 385 m 597 817 l 504 817 l 344 985 l 344 992 l 475 992 l 597 825 l 597 817 m 336 817 l 244 817 l 83 985 l 83 992 l 215 992 l 336 825 l 336 817 z "},"ë":{"ha":775,"x_min":82,"x_max":693,"o":"m 411 -11 q 261 1 321 -11 q 165 40 201 13 q 111 109 129 67 q 88 212 93 151 q 82 353 82 272 q 92 518 82 449 q 132 633 101 588 q 227 699 163 678 q 400 719 292 719 q 539 706 485 719 q 624 665 593 693 q 670 594 656 638 q 689 490 685 550 q 693 353 693 429 l 693 306 l 231 306 q 236 205 231 243 q 262 147 242 167 q 326 119 282 126 q 444 111 369 111 q 515 113 476 111 q 593 118 553 114 q 665 125 633 122 l 665 10 q 592 -1 635 4 q 501 -8 549 -6 q 411 -11 454 -11 m 551 385 l 551 411 q 544 510 551 474 q 519 566 536 547 q 472 591 501 585 q 397 597 442 597 q 309 590 342 597 q 260 561 276 582 q 237 503 243 540 q 231 407 231 467 l 576 407 l 551 385 m 188 856 l 188 982 l 319 982 l 319 856 l 188 856 m 472 856 l 472 982 l 604 982 l 604 856 l 472 856 z "},"ė":{"ha":775,"x_min":82,"x_max":693,"o":"m 411 -11 q 261 1 321 -11 q 165 40 201 13 q 111 109 129 67 q 88 212 93 151 q 82 353 82 272 q 92 518 82 449 q 132 633 101 588 q 227 699 163 678 q 400 719 292 719 q 539 706 485 719 q 624 665 593 693 q 670 594 656 638 q 689 490 685 550 q 693 353 693 429 l 693 306 l 231 306 q 236 205 231 243 q 262 147 242 167 q 326 119 282 126 q 444 111 369 111 q 515 113 476 111 q 593 118 553 114 q 665 125 633 122 l 665 10 q 592 -1 635 4 q 501 -8 549 -6 q 411 -11 454 -11 m 551 385 l 551 411 q 544 510 551 474 q 519 566 536 547 q 472 591 501 585 q 397 597 442 597 q 309 590 342 597 q 260 561 276 582 q 237 503 243 540 q 231 407 231 467 l 576 407 l 551 385 m 329 856 l 329 982 l 461 982 l 461 856 l 329 856 z "},"ẹ":{"ha":775,"x_min":82,"x_max":693,"o":"m 411 -11 q 261 1 321 -11 q 165 40 201 13 q 111 109 129 67 q 88 212 93 151 q 82 353 82 272 q 92 518 82 449 q 132 633 101 588 q 227 699 163 678 q 400 719 292 719 q 539 706 485 719 q 624 665 593 693 q 670 594 656 638 q 689 490 685 550 q 693 353 693 429 l 693 306 l 231 306 q 236 205 231 243 q 262 147 242 167 q 326 119 282 126 q 444 111 369 111 q 515 113 476 111 q 593 118 553 114 q 665 125 633 122 l 665 10 q 592 -1 635 4 q 501 -8 549 -6 q 411 -11 454 -11 m 551 385 l 551 411 q 544 510 551 474 q 519 566 536 547 q 472 591 501 585 q 397 597 442 597 q 309 590 342 597 q 260 561 276 582 q 237 503 243 540 q 231 407 231 467 l 576 407 l 551 385 m 328 -271 l 328 -151 l 450 -151 l 450 -271 l 328 -271 z "},"è":{"ha":775,"x_min":82,"x_max":693,"o":"m 411 -11 q 261 1 321 -11 q 165 40 201 13 q 111 109 129 67 q 88 212 93 151 q 82 353 82 272 q 92 518 82 449 q 132 633 101 588 q 227 699 163 678 q 400 719 292 719 q 539 706 485 719 q 624 665 593 693 q 670 594 656 638 q 689 490 685 550 q 693 353 693 429 l 693 306 l 231 306 q 236 205 231 243 q 262 147 242 167 q 326 119 282 126 q 444 111 369 111 q 515 113 476 111 q 593 118 553 114 q 665 125 633 122 l 665 10 q 592 -1 635 4 q 501 -8 549 -6 q 411 -11 454 -11 m 551 385 l 551 411 q 544 510 551 474 q 519 566 536 547 q 472 591 501 585 q 397 597 442 597 q 309 590 342 597 q 260 561 276 582 q 237 503 243 540 q 231 407 231 467 l 576 407 l 551 385 m 376 817 l 196 1007 l 196 1014 l 349 1014 l 485 825 l 485 817 l 376 817 z "},"ẻ":{"ha":775,"x_min":82,"x_max":693,"o":"m 411 -11 q 261 1 321 -11 q 165 40 201 13 q 111 109 129 67 q 88 212 93 151 q 82 353 82 272 q 92 518 82 449 q 132 633 101 588 q 227 699 163 678 q 400 719 292 719 q 539 706 485 719 q 624 665 593 693 q 670 594 656 638 q 689 490 685 550 q 693 353 693 429 l 693 306 l 231 306 q 236 205 231 243 q 262 147 242 167 q 326 119 282 126 q 444 111 369 111 q 515 113 476 111 q 593 118 553 114 q 665 125 633 122 l 665 10 q 592 -1 635 4 q 501 -8 549 -6 q 411 -11 454 -11 m 551 385 l 551 411 q 544 510 551 474 q 519 566 536 547 q 472 591 501 585 q 397 597 442 597 q 309 590 342 597 q 260 561 276 582 q 237 503 243 540 q 231 407 231 467 l 576 407 l 551 385 m 325 799 l 325 811 q 331 847 325 832 q 350 874 336 863 q 388 892 364 885 l 417 900 q 460 915 446 908 q 478 929 474 921 q 482 953 482 938 q 472 987 482 978 q 437 999 461 996 q 371 1001 413 1001 q 328 1001 354 1001 q 276 999 303 1000 q 228 994 249 997 l 228 1067 q 310 1076 263 1072 q 394 1079 357 1079 q 496 1072 454 1079 q 559 1040 538 1065 q 581 963 581 1015 q 572 909 581 929 q 544 877 564 889 q 492 856 525 865 l 461 846 q 425 834 436 839 q 411 822 414 829 q 408 799 408 814 l 325 799 z "},"ȇ":{"ha":775,"x_min":82,"x_max":693,"o":"m 411 -11 q 261 1 321 -11 q 165 40 201 13 q 111 109 129 67 q 88 212 93 151 q 82 353 82 272 q 92 518 82 449 q 132 633 101 588 q 227 699 163 678 q 400 719 292 719 q 539 706 485 719 q 624 665 593 693 q 670 594 656 638 q 689 490 685 550 q 693 353 693 429 l 693 306 l 231 306 q 236 205 231 243 q 262 147 242 167 q 326 119 282 126 q 444 111 369 111 q 515 113 476 111 q 593 118 553 114 q 665 125 633 122 l 665 10 q 592 -1 635 4 q 501 -8 549 -6 q 411 -11 454 -11 m 551 385 l 551 411 q 544 510 551 474 q 519 566 536 547 q 472 591 501 585 q 397 597 442 597 q 309 590 342 597 q 260 561 276 582 q 237 503 243 540 q 231 407 231 467 l 576 407 l 551 385 m 397 1025 q 506 1010 467 1025 q 564 967 544 994 q 588 903 583 940 q 593 822 593 867 l 504 822 q 500 884 504 858 q 474 923 496 910 q 397 936 451 936 q 322 923 344 936 q 293 884 299 910 q 288 822 288 858 l 197 822 q 203 903 197 867 q 228 967 208 940 q 288 1010 247 994 q 397 1025 328 1025 z "},"ē":{"ha":775,"x_min":82,"x_max":693,"o":"m 411 -11 q 261 1 321 -11 q 165 40 201 13 q 111 109 129 67 q 88 212 93 151 q 82 353 82 272 q 92 518 82 449 q 132 633 101 588 q 227 699 163 678 q 400 719 292 719 q 539 706 485 719 q 624 665 593 693 q 670 594 656 638 q 689 490 685 550 q 693 353 693 429 l 693 306 l 231 306 q 236 205 231 243 q 262 147 242 167 q 326 119 282 126 q 444 111 369 111 q 515 113 476 111 q 593 118 553 114 q 665 125 633 122 l 665 10 q 592 -1 635 4 q 501 -8 549 -6 q 411 -11 454 -11 m 551 385 l 551 411 q 544 510 551 474 q 519 566 536 547 q 472 591 501 585 q 397 597 442 597 q 309 590 342 597 q 260 561 276 582 q 237 503 243 540 q 231 407 231 467 l 576 407 l 551 385 m 186 856 l 186 954 l 606 954 l 606 856 l 186 856 z "},"ę":{"ha":775,"x_min":82,"x_max":693,"o":"m 411 -11 q 261 1 321 -11 q 165 40 201 13 q 111 109 129 67 q 88 212 93 151 q 82 353 82 272 q 92 518 82 449 q 132 633 101 588 q 227 699 163 678 q 400 719 292 719 q 539 706 485 719 q 624 665 593 693 q 670 594 656 638 q 689 490 685 550 q 693 353 693 429 l 693 306 l 231 306 q 236 205 231 243 q 262 147 242 167 q 326 119 282 126 q 444 111 369 111 q 515 113 476 111 q 593 118 553 114 q 665 125 633 122 l 665 10 q 592 -1 635 4 q 501 -8 549 -6 q 411 -11 454 -11 m 551 385 l 551 411 q 544 510 551 474 q 519 566 536 547 q 472 591 501 585 q 397 597 442 597 q 309 590 342 597 q 260 561 276 582 q 237 503 243 540 q 231 407 231 467 l 576 407 l 551 385 m 599 -268 q 508 -253 540 -268 q 464 -212 476 -237 q 451 -157 451 -187 q 481 -64 451 -112 q 556 24 510 -15 l 665 10 q 627 -26 647 -3 q 592 -75 607 -49 q 578 -125 578 -101 q 591 -162 578 -147 q 643 -178 604 -178 q 653 -177 647 -178 q 667 -175 660 -176 l 667 -264 q 634 -267 651 -265 q 599 -268 617 -268 z "},"ẽ":{"ha":775,"x_min":82,"x_max":693,"o":"m 411 -11 q 261 1 321 -11 q 165 40 201 13 q 111 109 129 67 q 88 212 93 151 q 82 353 82 272 q 92 518 82 449 q 132 633 101 588 q 227 699 163 678 q 400 719 292 719 q 539 706 485 719 q 624 665 593 693 q 670 594 656 638 q 689 490 685 550 q 693 353 693 429 l 693 306 l 231 306 q 236 205 231 243 q 262 147 242 167 q 326 119 282 126 q 444 111 369 111 q 515 113 476 111 q 593 118 553 114 q 665 125 633 122 l 665 10 q 592 -1 635 4 q 501 -8 549 -6 q 411 -11 454 -11 m 551 385 l 551 411 q 544 510 551 474 q 519 566 536 547 q 472 591 501 585 q 397 597 442 597 q 309 590 342 597 q 260 561 276 582 q 237 503 243 540 q 231 407 231 467 l 576 407 l 551 385 m 150 822 q 156 917 150 879 q 187 975 163 956 q 261 994 211 994 q 338 985 300 994 q 413 964 376 975 q 466 948 440 956 q 517 940 492 940 q 552 955 547 940 q 557 1010 557 969 l 638 1010 q 631 915 638 953 q 602 857 625 876 q 528 838 579 838 q 450 847 486 838 q 378 868 414 857 q 322 884 349 876 q 272 892 294 892 q 238 877 243 892 q 232 822 232 863 l 150 822 z "},"ə":{"ha":775,"x_min":82,"x_max":693,"o":"m 364 719 q 513 708 453 719 q 610 669 574 696 q 664 599 646 642 q 688 497 682 557 q 693 356 693 436 q 683 190 693 260 q 642 76 674 121 q 547 10 611 31 q 375 -11 483 -11 q 236 2 290 -11 q 151 43 182 15 q 105 115 119 71 q 86 219 90 158 q 82 356 82 279 l 82 403 l 544 403 q 539 503 544 465 q 513 562 533 542 q 449 590 493 582 q 331 597 406 597 q 260 596 300 597 q 182 591 221 594 q 110 583 143 588 l 110 699 q 184 710 142 706 q 274 717 226 714 q 364 719 321 719 m 224 324 l 224 297 q 231 198 224 235 q 256 142 239 161 q 303 117 274 124 q 378 111 333 111 q 466 119 433 111 q 515 147 499 126 q 538 205 532 168 q 544 301 544 242 l 199 301 l 224 324 z "},"f":{"ha":539,"x_min":33,"x_max":501,"o":"m 174 0 l 174 585 l 33 585 l 33 708 l 174 708 l 174 794 q 183 906 174 863 q 216 975 193 950 q 277 1012 239 1000 q 371 1027 315 1024 q 501 1031 426 1031 l 501 919 q 408 916 443 919 q 353 903 372 913 q 328 873 335 893 q 322 821 322 853 l 322 708 l 501 708 l 501 585 l 322 585 l 322 0 l 174 0 z "},"g":{"ha":815,"x_min":82,"x_max":706,"o":"m 374 -286 q 283 -284 329 -286 q 197 -278 238 -282 q 129 -272 157 -275 l 129 -156 q 196 -160 158 -158 q 271 -162 233 -161 q 340 -162 308 -162 q 459 -153 415 -162 q 524 -122 503 -144 q 552 -56 546 -99 q 558 56 558 -12 l 558 90 l 550 90 q 499 32 531 53 q 426 3 468 11 q 335 -6 385 -6 q 215 12 263 -6 q 138 69 167 29 q 95 179 108 110 q 82 354 82 249 q 95 531 82 461 q 138 642 108 601 q 215 701 167 683 q 336 719 264 719 q 421 712 378 719 q 499 681 464 704 q 556 614 535 658 l 564 614 l 569 708 l 706 708 l 706 88 q 696 -83 706 -12 q 653 -199 686 -154 q 553 -265 619 -243 q 374 -286 488 -286 m 394 124 q 485 138 451 124 q 533 182 518 153 q 554 253 550 211 q 558 356 558 296 q 554 456 558 413 q 535 528 550 499 q 484 574 518 560 q 394 589 450 589 q 308 581 340 589 q 258 550 275 574 q 236 481 242 526 q 231 356 231 435 q 236 232 231 278 q 258 163 242 186 q 308 131 275 139 q 394 124 340 124 z "},"ǵ":{"ha":815,"x_min":82,"x_max":706,"o":"m 374 -286 q 283 -284 329 -286 q 197 -278 238 -282 q 129 -272 157 -275 l 129 -156 q 196 -160 158 -158 q 271 -162 233 -161 q 340 -162 308 -162 q 459 -153 415 -162 q 524 -122 503 -144 q 552 -56 546 -99 q 558 56 558 -12 l 558 90 l 550 90 q 499 32 531 53 q 426 3 468 11 q 335 -6 385 -6 q 215 12 263 -6 q 138 69 167 29 q 95 179 108 110 q 82 354 82 249 q 95 531 82 461 q 138 642 108 601 q 215 701 167 683 q 336 719 264 719 q 421 712 378 719 q 499 681 464 704 q 556 614 535 658 l 564 614 l 569 708 l 706 708 l 706 88 q 696 -83 706 -12 q 653 -199 686 -154 q 553 -265 619 -243 q 374 -286 488 -286 m 394 124 q 485 138 451 124 q 533 182 518 153 q 554 253 550 211 q 558 356 558 296 q 554 456 558 413 q 535 528 550 499 q 484 574 518 560 q 394 589 450 589 q 308 581 340 589 q 258 550 275 574 q 236 481 242 526 q 231 356 231 435 q 236 232 231 278 q 258 163 242 186 q 308 131 275 139 q 394 124 340 124 m 286 817 l 286 824 l 422 1015 l 575 1015 l 575 1008 l 394 817 l 286 817 z "},"ğ":{"ha":815,"x_min":82,"x_max":706,"o":"m 374 -286 q 283 -284 329 -286 q 197 -278 238 -282 q 129 -272 157 -275 l 129 -156 q 196 -160 158 -158 q 271 -162 233 -161 q 340 -162 308 -162 q 459 -153 415 -162 q 524 -122 503 -144 q 552 -56 546 -99 q 558 56 558 -12 l 558 90 l 550 90 q 499 32 531 53 q 426 3 468 11 q 335 -6 385 -6 q 215 12 263 -6 q 138 69 167 29 q 95 179 108 110 q 82 354 82 249 q 95 531 82 461 q 138 642 108 601 q 215 701 167 683 q 336 719 264 719 q 421 712 378 719 q 499 681 464 704 q 556 614 535 658 l 564 614 l 569 708 l 706 708 l 706 88 q 696 -83 706 -12 q 653 -199 686 -154 q 553 -265 619 -243 q 374 -286 488 -286 m 394 124 q 485 138 451 124 q 533 182 518 153 q 554 253 550 211 q 558 356 558 296 q 554 456 558 413 q 535 528 550 499 q 484 574 518 560 q 394 589 450 589 q 308 581 340 589 q 258 550 275 574 q 236 481 242 526 q 231 356 231 435 q 236 232 231 278 q 258 163 242 186 q 308 131 275 139 q 394 124 340 124 m 407 806 q 299 821 339 806 q 240 863 258 836 q 215 927 221 890 q 210 1008 210 964 l 299 1008 q 303 947 299 972 q 331 908 308 921 q 406 894 353 894 q 483 908 460 894 q 510 947 506 921 q 515 1008 515 972 l 606 1008 q 600 927 606 964 q 575 863 594 890 q 515 821 556 836 q 407 806 475 806 z "},"ǧ":{"ha":815,"x_min":82,"x_max":706,"o":"m 374 -286 q 283 -284 329 -286 q 197 -278 238 -282 q 129 -272 157 -275 l 129 -156 q 196 -160 158 -158 q 271 -162 233 -161 q 340 -162 308 -162 q 459 -153 415 -162 q 524 -122 503 -144 q 552 -56 546 -99 q 558 56 558 -12 l 558 90 l 550 90 q 499 32 531 53 q 426 3 468 11 q 335 -6 385 -6 q 215 12 263 -6 q 138 69 167 29 q 95 179 108 110 q 82 354 82 249 q 95 531 82 461 q 138 642 108 601 q 215 701 167 683 q 336 719 264 719 q 421 712 378 719 q 499 681 464 704 q 556 614 535 658 l 564 614 l 569 708 l 706 708 l 706 88 q 696 -83 706 -12 q 653 -199 686 -154 q 553 -265 619 -243 q 374 -286 488 -286 m 394 124 q 485 138 451 124 q 533 182 518 153 q 554 253 550 211 q 558 356 558 296 q 554 456 558 413 q 535 528 550 499 q 484 574 518 560 q 394 589 450 589 q 308 581 340 589 q 258 550 275 574 q 236 481 242 526 q 231 356 231 435 q 236 232 231 278 q 258 163 242 186 q 308 131 275 139 q 394 124 340 124 m 333 817 l 196 1006 l 196 1014 l 294 1014 l 407 888 l 519 1014 l 619 1014 l 619 1006 l 482 817 l 333 817 z "},"ĝ":{"ha":815,"x_min":82,"x_max":706,"o":"m 374 -286 q 283 -284 329 -286 q 197 -278 238 -282 q 129 -272 157 -275 l 129 -156 q 196 -160 158 -158 q 271 -162 233 -161 q 340 -162 308 -162 q 459 -153 415 -162 q 524 -122 503 -144 q 552 -56 546 -99 q 558 56 558 -12 l 558 90 l 550 90 q 499 32 531 53 q 426 3 468 11 q 335 -6 385 -6 q 215 12 263 -6 q 138 69 167 29 q 95 179 108 110 q 82 354 82 249 q 95 531 82 461 q 138 642 108 601 q 215 701 167 683 q 336 719 264 719 q 421 712 378 719 q 499 681 464 704 q 556 614 535 658 l 564 614 l 569 708 l 706 708 l 706 88 q 696 -83 706 -12 q 653 -199 686 -154 q 553 -265 619 -243 q 374 -286 488 -286 m 394 124 q 485 138 451 124 q 533 182 518 153 q 554 253 550 211 q 558 356 558 296 q 554 456 558 413 q 535 528 550 499 q 484 574 518 560 q 394 589 450 589 q 308 581 340 589 q 258 550 275 574 q 236 481 242 526 q 231 356 231 435 q 236 232 231 278 q 258 163 242 186 q 308 131 275 139 q 394 124 340 124 m 196 817 l 196 826 l 333 1015 l 482 1015 l 619 826 l 619 817 l 519 817 l 407 943 l 294 817 l 196 817 z "},"ģ":{"ha":815,"x_min":82,"x_max":706,"o":"m 374 -286 q 283 -284 329 -286 q 197 -278 238 -282 q 129 -272 157 -275 l 129 -156 q 196 -160 158 -158 q 271 -162 233 -161 q 340 -162 308 -162 q 459 -153 415 -162 q 524 -122 503 -144 q 552 -56 546 -99 q 558 56 558 -12 l 558 90 l 550 90 q 499 32 531 53 q 426 3 468 11 q 335 -6 385 -6 q 215 12 263 -6 q 138 69 167 29 q 95 179 108 110 q 82 354 82 249 q 95 531 82 461 q 138 642 108 601 q 215 701 167 683 q 336 719 264 719 q 421 712 378 719 q 499 681 464 704 q 556 614 535 658 l 564 614 l 569 708 l 706 708 l 706 88 q 696 -83 706 -12 q 653 -199 686 -154 q 553 -265 619 -243 q 374 -286 488 -286 m 394 124 q 485 138 451 124 q 533 182 518 153 q 554 253 550 211 q 558 356 558 296 q 554 456 558 413 q 535 528 550 499 q 484 574 518 560 q 394 589 450 589 q 308 581 340 589 q 258 550 275 574 q 236 481 242 526 q 231 356 231 435 q 236 232 231 278 q 258 163 242 186 q 308 131 275 139 q 394 124 340 124 m 328 799 l 328 913 q 334 1007 328 971 q 359 1064 340 1043 q 413 1092 378 1085 q 510 1100 449 1100 l 510 1036 q 440 1025 457 1036 q 422 975 422 1014 l 422 951 l 488 951 l 488 799 l 328 799 z "},"ġ":{"ha":815,"x_min":82,"x_max":706,"o":"m 374 -286 q 283 -284 329 -286 q 197 -278 238 -282 q 129 -272 157 -275 l 129 -156 q 196 -160 158 -158 q 271 -162 233 -161 q 340 -162 308 -162 q 459 -153 415 -162 q 524 -122 503 -144 q 552 -56 546 -99 q 558 56 558 -12 l 558 90 l 550 90 q 499 32 531 53 q 426 3 468 11 q 335 -6 385 -6 q 215 12 263 -6 q 138 69 167 29 q 95 179 108 110 q 82 354 82 249 q 95 531 82 461 q 138 642 108 601 q 215 701 167 683 q 336 719 264 719 q 421 712 378 719 q 499 681 464 704 q 556 614 535 658 l 564 614 l 569 708 l 706 708 l 706 88 q 696 -83 706 -12 q 653 -199 686 -154 q 553 -265 619 -243 q 374 -286 488 -286 m 394 124 q 485 138 451 124 q 533 182 518 153 q 554 253 550 211 q 558 356 558 296 q 554 456 558 413 q 535 528 550 499 q 484 574 518 560 q 394 589 450 589 q 308 581 340 589 q 258 550 275 574 q 236 481 242 526 q 231 356 231 435 q 236 232 231 278 q 258 163 242 186 q 308 131 275 139 q 394 124 340 124 m 342 856 l 342 982 l 474 982 l 474 856 l 342 856 z "},"h":{"ha":828,"x_min":110,"x_max":718,"o":"m 110 0 l 110 1032 l 257 1032 l 257 621 l 267 621 q 311 674 283 653 q 381 707 339 696 q 485 718 424 718 q 606 701 560 718 q 676 650 653 685 q 709 564 700 615 q 718 443 718 513 l 718 0 l 569 0 l 569 385 q 565 495 569 454 q 544 556 560 536 q 499 582 529 576 q 419 588 469 588 q 331 574 364 588 q 283 532 299 560 q 262 463 267 504 q 257 365 257 421 l 257 0 l 110 0 z "},"ħ":{"ha":828,"x_min":18,"x_max":718,"o":"m 18 861 l 18 956 l 436 956 l 436 861 l 18 861 m 110 0 l 110 1032 l 257 1032 l 257 621 l 267 621 q 311 674 283 653 q 381 707 339 696 q 485 718 424 718 q 606 701 560 718 q 676 650 653 685 q 709 564 700 615 q 718 443 718 513 l 718 0 l 569 0 l 569 385 q 565 495 569 454 q 544 556 560 536 q 499 582 529 576 q 419 588 469 588 q 331 574 364 588 q 283 532 299 560 q 262 463 267 504 q 257 365 257 421 l 257 0 l 110 0 z "},"ĥ":{"ha":828,"x_min":-28,"x_max":718,"o":"m 110 0 l 110 1032 l 257 1032 l 257 621 l 267 621 q 311 674 283 653 q 381 707 339 696 q 485 718 424 718 q 606 701 560 718 q 676 650 653 685 q 709 564 700 615 q 718 443 718 513 l 718 0 l 569 0 l 569 385 q 565 495 569 454 q 544 556 560 536 q 499 582 529 576 q 419 588 469 588 q 331 574 364 588 q 283 532 299 560 q 262 463 267 504 q 257 365 257 421 l 257 0 l 110 0 m -28 1065 l -28 1074 l 110 1263 l 258 1263 l 396 1074 l 396 1065 l 296 1065 l 183 1190 l 71 1065 l -28 1065 z "},"ḥ":{"ha":828,"x_min":110,"x_max":718,"o":"m 110 0 l 110 1032 l 257 1032 l 257 621 l 267 621 q 311 674 283 653 q 381 707 339 696 q 485 718 424 718 q 606 701 560 718 q 676 650 653 685 q 709 564 700 615 q 718 443 718 513 l 718 0 l 569 0 l 569 385 q 565 495 569 454 q 544 556 560 536 q 499 582 529 576 q 419 588 469 588 q 331 574 364 588 q 283 532 299 560 q 262 463 267 504 q 257 365 257 421 l 257 0 l 110 0 m 353 -271 l 353 -151 l 475 -151 l 475 -271 l 353 -271 z "},"i":{"ha":367,"x_min":107,"x_max":261,"o":"m 107 886 l 107 1032 l 261 1032 l 261 886 l 107 886 m 110 0 l 110 708 l 257 708 l 257 0 l 110 0 z "},"ı":{"ha":367,"x_min":110,"x_max":257,"o":"m 110 0 l 110 708 l 257 708 l 257 0 l 110 0 z "},"í":{"ha":367,"x_min":63,"x_max":351,"o":"m 110 0 l 110 708 l 257 708 l 257 0 l 110 0 m 63 817 l 63 824 l 199 1015 l 351 1015 l 351 1008 l 171 817 l 63 817 z "},"ĭ":{"ha":367,"x_min":-15,"x_max":381,"o":"m 110 0 l 110 708 l 257 708 l 257 0 l 110 0 m 182 806 q 74 821 114 806 q 15 863 33 836 q -10 927 -4 890 q -15 1008 -15 964 l 74 1008 q 78 947 74 972 q 106 908 83 921 q 181 894 128 894 q 258 908 235 894 q 285 947 281 921 q 290 1008 290 972 l 381 1008 q 375 927 381 964 q 350 863 369 890 q 290 821 331 836 q 182 806 250 806 z "},"ǐ":{"ha":367,"x_min":-28,"x_max":396,"o":"m 110 0 l 110 708 l 257 708 l 257 0 l 110 0 m 110 817 l -28 1006 l -28 1014 l 71 1014 l 183 888 l 296 1014 l 396 1014 l 396 1006 l 258 817 l 110 817 z "},"î":{"ha":367,"x_min":-28,"x_max":396,"o":"m 110 0 l 110 708 l 257 708 l 257 0 l 110 0 m -28 817 l -28 826 l 110 1015 l 258 1015 l 396 826 l 396 817 l 296 817 l 183 943 l 71 817 l -28 817 z "},"ȉ":{"ha":367,"x_min":-129,"x_max":383,"o":"m 110 0 l 110 708 l 257 708 l 257 0 l 110 0 m 385 817 l 292 817 l 132 985 l 132 992 l 263 992 l 385 825 l 385 817 m 124 817 l 32 817 l -129 985 l -129 992 l 3 992 l 124 825 l 124 817 z "},"ï":{"ha":367,"x_min":-25,"x_max":392,"o":"m 110 0 l 110 708 l 257 708 l 257 0 l 110 0 m -25 856 l -25 982 l 107 982 l 107 856 l -25 856 m 260 856 l 260 982 l 392 982 l 392 856 l 260 856 z "},"ị":{"ha":367,"x_min":107,"x_max":261,"o":"m 107 886 l 107 1032 l 261 1032 l 261 886 l 107 886 m 110 0 l 110 708 l 257 708 l 257 0 l 110 0 m 122 -271 l 122 -151 l 244 -151 l 244 -271 l 122 -271 z "},"ì":{"ha":367,"x_min":-17,"x_max":272,"o":"m 110 0 l 110 708 l 257 708 l 257 0 l 110 0 m 164 817 l -17 1007 l -17 1014 l 136 1014 l 272 825 l 272 817 l 164 817 z "},"ỉ":{"ha":367,"x_min":15,"x_max":369,"o":"m 110 0 l 110 708 l 257 708 l 257 0 l 110 0 m 113 799 l 113 811 q 118 847 113 832 q 138 874 124 863 q 175 892 151 885 l 204 900 q 247 915 233 908 q 265 929 261 921 q 269 953 269 938 q 259 987 269 978 q 224 999 249 996 q 158 1001 200 1001 q 116 1001 142 1001 q 63 999 90 1000 q 15 994 36 997 l 15 1067 q 97 1076 50 1072 q 182 1079 144 1079 q 283 1072 242 1079 q 347 1040 325 1065 q 368 963 368 1015 q 360 909 368 929 q 332 877 351 889 q 279 856 313 865 l 249 846 q 213 834 224 839 q 199 822 201 829 q 196 799 196 814 l 113 799 z "},"ȋ":{"ha":367,"x_min":-15,"x_max":381,"o":"m 110 0 l 110 708 l 257 708 l 257 0 l 110 0 m 185 1025 q 293 1010 254 1025 q 351 967 332 994 q 376 903 371 940 q 381 822 381 867 l 292 822 q 288 884 292 858 q 261 923 283 910 q 185 936 239 936 q 109 923 132 936 q 81 884 86 910 q 75 822 75 858 l -15 822 q -10 903 -15 867 q 15 967 -4 940 q 75 1010 35 994 q 185 1025 115 1025 z "},"ĳ":{"ha":735,"x_min":107,"x_max":628,"o":"m 107 886 l 107 1032 l 261 1032 l 261 886 l 107 886 m 110 0 l 110 708 l 257 708 l 257 0 l 110 0 m 474 886 l 474 1032 l 628 1032 l 628 886 l 474 886 m 349 -278 l 349 -164 q 435 -157 408 -164 q 469 -133 463 -150 q 476 -89 476 -117 l 476 708 l 624 708 l 624 -57 q 611 -178 624 -133 q 567 -244 599 -222 q 483 -272 536 -265 q 349 -278 429 -278 z "},"ī":{"ha":367,"x_min":-26,"x_max":393,"o":"m 110 0 l 110 708 l 257 708 l 257 0 l 110 0 m -26 856 l -26 954 l 393 954 l 393 856 l -26 856 z "},"į":{"ha":367,"x_min":43,"x_max":261,"o":"m 107 886 l 107 1032 l 261 1032 l 261 886 l 107 886 m 110 0 l 110 708 l 257 708 l 257 0 l 110 0 m 190 -278 q 100 -262 132 -278 q 56 -222 68 -247 q 43 -167 43 -197 q 72 -74 43 -122 q 147 14 101 -25 l 257 0 q 219 -35 239 -12 q 184 -85 199 -58 q 169 -135 169 -111 q 183 -172 169 -157 q 235 -187 196 -187 q 245 -187 239 -187 q 258 -185 251 -186 l 258 -274 q 226 -276 243 -275 q 190 -278 208 -278 z "},"ĩ":{"ha":367,"x_min":-62,"x_max":426,"o":"m 110 0 l 110 708 l 257 708 l 257 0 l 110 0 m -62 822 q -56 917 -62 879 q -26 975 -50 956 q 49 994 -1 994 q 126 985 88 994 q 200 964 164 975 q 253 948 228 956 q 304 940 279 940 q 340 955 335 940 q 344 1010 344 969 l 425 1010 q 419 915 425 953 q 390 857 413 876 q 315 838 367 838 q 238 847 274 838 q 165 868 201 857 q 109 884 136 876 q 60 892 82 892 q 25 877 31 892 q 19 822 19 863 l -62 822 z "}}}
